<svg width="185" height="89" viewBox="0 0 185 89" fill="none" xmlns="http://www.w3.org/2000/svg">
<g id="JUSOUR_H">
<path id="Path 3" d="M1.24548 70.5898C1.80753 70.7668 2.39599 70.8456 2.98491 70.8228H10.0782V65.2622H8.58723V69.4702H5.76348V65.2997C5.52252 65.2622 5.1159 65.2321 4.53609 65.202C3.95628 65.172 3.4593 65.157 3.04515 65.157C2.43096 65.1341 1.81735 65.2154 1.23042 65.3974C1.02661 65.4667 0.838893 65.5763 0.678466 65.7196C0.51804 65.8629 0.388196 66.037 0.296698 66.2315C0.0769097 66.7776 -0.0232218 67.3644 0.00302902 67.9523C-0.0279485 68.5663 0.0774794 69.1796 0.311762 69.7482C0.403955 69.9453 0.534728 70.1219 0.696379 70.2677C0.85803 70.4136 1.04729 70.5256 1.25301 70.5973L1.24548 70.5898ZM1.64457 67.0581C1.74841 66.8565 1.92657 66.703 2.14155 66.6298C2.45135 66.5366 2.7746 66.496 3.09786 66.5095C3.51201 66.5095 3.89604 66.5321 4.27254 66.5621V69.4627H3.06774C2.75936 69.4751 2.45115 69.4344 2.15661 69.3425C2.04778 69.3043 1.94772 69.2447 1.86236 69.1673C1.777 69.0898 1.70806 68.9961 1.65963 68.8916C1.53543 68.5893 1.47889 68.2636 1.49397 67.9373C1.47893 67.6336 1.53299 67.3304 1.6521 67.0506L1.64457 67.0581Z" fill="#8E1537"/>
<path id="Rectangle 1" d="M9.07665 71.7095H7.92456V73.0996H9.07665V71.7095Z" fill="#8E1537"/>
<path id="Rectangle 2" d="M10.7709 71.7095H9.61884V73.0996H10.7709V71.7095Z" fill="#8E1537"/>
<path id="Rectangle 3" d="M145.965 63.0304H144.474V70.8228H145.965V63.0304Z" fill="#8E1537"/>
<path id="Rectangle 4" d="M152.764 62.8275H151.62V64.2177H152.764V62.8275Z" fill="#8E1537"/>
<path id="Rectangle 5" d="M29.4001 71.7095H28.0297V73.1522H29.4001V71.7095Z" fill="#8E1537"/>
<path id="Rectangle 6" d="M175.437 62.8876H174.292V64.2251H175.437V62.8876Z" fill="#8E1537"/>
<path id="Rectangle 7" d="M109.873 62.8275H108.729V64.2177H109.873V62.8275Z" fill="#8E1537"/>
<path id="Rectangle 8" d="M154.458 62.8275H153.314V64.2177H154.458V62.8275Z" fill="#8E1537"/>
<path id="Rectangle 9" d="M173.75 62.8876H172.598V64.2251H173.75V62.8876Z" fill="#8E1537"/>
<path id="Rectangle 10" d="M37.2915 63.0304H35.8006V70.8228H37.2915V63.0304Z" fill="#8E1537"/>
<path id="Rectangle 11" d="M174.556 61.3472H173.487V62.5946H174.556V61.3472Z" fill="#8E1537"/>
<path id="Rectangle 12" d="M63.2098 62.8275H62.0577V64.2177H63.2098V62.8275Z" fill="#8E1537"/>
<path id="Rectangle 13" d="M116.055 71.7095H114.903V73.0996H116.055V71.7095Z" fill="#8E1537"/>
<path id="Rectangle 14" d="M61.5156 62.8275H60.3635V64.2177H61.5156V62.8275Z" fill="#8E1537"/>
<path id="Path 4" d="M108.224 70.5898C108.786 70.7668 109.375 70.8456 109.964 70.8228H117.057V65.2622H115.566V69.4702H112.742V65.2997C112.501 65.2622 112.095 65.2321 111.515 65.202C110.935 65.172 110.438 65.157 110.024 65.157C109.41 65.1341 108.796 65.2154 108.209 65.3974C108.005 65.4667 107.818 65.5763 107.657 65.7196C107.497 65.8629 107.367 66.037 107.275 66.2315C106.886 67.3729 106.894 68.6119 107.298 69.7482C107.39 69.9453 107.521 70.1219 107.683 70.2677C107.844 70.4136 108.033 70.5256 108.239 70.5973L108.224 70.5898ZM108.623 67.0581C108.727 66.8565 108.905 66.703 109.12 66.6298C109.43 66.5366 109.753 66.496 110.077 66.5095C110.491 66.5095 110.875 66.5321 111.244 66.5621V69.4627H110.039C109.73 69.4751 109.422 69.4344 109.128 69.3425C109.019 69.3043 108.919 69.2447 108.833 69.1673C108.748 69.0898 108.679 68.9961 108.631 68.8916C108.51 68.5886 108.456 68.263 108.473 67.9373C108.458 67.6336 108.512 67.3304 108.631 67.0506L108.623 67.0581Z" fill="#8E1537"/>
<path id="Rectangle 15" d="M117.742 71.7095H116.597V73.0996H117.742V71.7095Z" fill="#8E1537"/>
<path id="Rectangle 16" d="M111.567 62.8275H110.423V64.2177H111.567V62.8275Z" fill="#8E1537"/>
<path id="Rectangle 17" d="M21.3581 62.8876H20.206V64.2251H21.3581V62.8876Z" fill="#8E1537"/>
<path id="Rectangle 18" d="M22.1638 61.3472H21.0945V62.5946H22.1638V61.3472Z" fill="#8E1537"/>
<path id="Rectangle 19" d="M136.206 62.8275H135.054V64.2177H136.206V62.8275Z" fill="#8E1537"/>
<path id="Rectangle 20" d="M2.90209 62.8275H1.75V64.2177H2.90209V62.8275Z" fill="#8E1537"/>
<path id="Rectangle 21" d="M4.5963 62.8275H3.44421V64.2177H4.5963V62.8275Z" fill="#8E1537"/>
<path id="Rectangle 22" d="M137.9 62.8275H136.748V64.2177H137.9V62.8275Z" fill="#8E1537"/>
<path id="Rectangle 23" d="M23.0524 62.8876H21.9003V64.2251H23.0524V62.8876Z" fill="#8E1537"/>
<path id="Path 5" d="M32.5251 69.4627H29.483V65.2546H27.9845V69.4627H25.3866V67.7269C25.3752 67.3795 25.3425 67.0332 25.2887 66.6899C25.2285 66.2014 25.1532 65.7205 25.0704 65.2471L23.7677 65.2997C23.8204 65.9234 23.8505 66.3968 23.8656 66.7275C23.8806 67.0581 23.8882 67.4563 23.8882 67.9373V69.4627H23.0523C22.9393 69.461 22.8274 69.4407 22.721 69.4026C22.628 69.3683 22.5395 69.3229 22.4575 69.2673C22.5368 68.9351 22.5748 68.5944 22.5704 68.2529V65.8182H21.0795V68.2529C21.0924 68.5593 21.0138 68.8627 20.8536 69.1245C20.7836 69.2332 20.6863 69.3217 20.5713 69.381C20.4564 69.4404 20.3278 69.4685 20.1985 69.4627H19.6864V65.8107H18.1955V69.4627H14.6489V65.2546H13.1579V71.0106C13.1757 71.3218 13.1052 71.6318 12.9546 71.9048C12.892 72.0068 12.803 72.0899 12.697 72.1455C12.5909 72.201 12.4718 72.2269 12.3522 72.2204L11.9757 72.1979V73.5355C12.42 73.5655 12.6911 73.5805 12.7889 73.5805C13.0635 73.5952 13.3369 73.536 13.5807 73.4091C13.8244 73.2822 14.0295 73.0923 14.1745 72.8592C14.5187 72.2374 14.6829 71.5323 14.6489 70.8228H20.718C21.1296 70.8372 21.5302 70.6886 21.8325 70.4095C21.999 70.5356 22.1846 70.6345 22.3822 70.7025C22.6091 70.7843 22.8488 70.825 23.09 70.8228H34.016V63.0304H32.5251V69.4627Z" fill="#8E1537"/>
<path id="Path 6" d="M142.689 63.0304H141.198V69.4627H138.743V65.4124L138.163 65.3448C137.618 65.2898 137.07 65.2647 136.522 65.2697C135.942 65.2503 135.363 65.3343 134.813 65.5176C134.4 65.665 134.057 65.9594 133.849 66.3442C133.614 66.8412 133.505 67.3884 133.532 67.9373C133.524 68.4544 133.588 68.9703 133.721 69.4702H131.59V68.0349C131.605 67.3171 131.401 66.6117 131.002 66.0136C130.772 65.7132 130.468 65.4763 130.12 65.3251C129.773 65.1739 129.392 65.1135 129.014 65.1494C128.582 65.1407 128.153 65.2253 127.757 65.3974C127.406 65.5543 127.083 65.7675 126.801 66.0286C126.477 66.348 126.172 66.6867 125.889 67.0431V63.0379H124.399V69.4702H121.62V65.2622H120.129V71.0181C120.147 71.3294 120.076 71.6393 119.926 71.9124C119.863 72.0143 119.774 72.0974 119.668 72.153C119.562 72.2085 119.443 72.2344 119.323 72.228L118.947 72.2054V73.543C119.391 73.573 119.662 73.5881 119.76 73.5881C120.035 73.6028 120.308 73.5436 120.552 73.4167C120.796 73.2898 121.001 73.0998 121.146 72.8667C121.49 72.2449 121.654 71.5398 121.62 70.8303H142.681V63.0379L142.689 63.0304ZM130.099 69.4627H125.897V69.365C125.976 69.0341 126.111 68.7191 126.296 68.4332C126.569 67.9412 126.914 67.4928 127.32 67.1032C127.496 66.9178 127.707 66.7692 127.941 66.666C128.175 66.5628 128.427 66.507 128.683 66.502C128.887 66.4939 129.089 66.538 129.271 66.6301C129.453 66.7221 129.608 66.8591 129.722 67.028C129.982 67.4082 130.114 67.8608 130.099 68.3205V69.4702V69.4627ZM137.245 69.4627H135.257C135.189 69.2523 135.136 69.0644 135.099 68.8916C135.058 68.666 135.04 68.4369 135.046 68.2078C135.03 67.8653 135.071 67.5227 135.166 67.1933C135.199 67.0913 135.253 66.9972 135.325 66.917C135.396 66.8369 135.483 66.7723 135.581 66.7275C135.867 66.6223 136.172 66.5763 136.477 66.5922C136.665 66.5922 136.921 66.5997 137.245 66.6223V69.4627Z" fill="#8E1537"/>
<path id="Path 7" d="M162.448 65.9008C162.263 65.7331 162.047 65.6041 161.811 65.5215C161.576 65.4389 161.326 65.4043 161.077 65.4199H158.871L159.074 65.0292C159.4 64.4104 159.764 63.813 160.166 63.2408L159.059 62.6171C158.833 62.865 158.6 63.1506 158.344 63.4887C158.114 63.7877 157.912 64.1072 157.741 64.443L157.071 65.743L157.839 66.78H160.829C160.96 66.783 161.088 66.8182 161.202 66.8824C161.317 66.9466 161.413 67.0379 161.484 67.1482C161.674 67.4266 161.769 67.7586 161.755 68.095V69.4626H155.633V65.2922C155.392 65.2546 154.985 65.2245 154.406 65.1945C153.826 65.1644 153.329 65.1494 152.915 65.1494C152.3 65.1265 151.687 65.2079 151.1 65.3899C150.896 65.4592 150.708 65.5687 150.548 65.712C150.388 65.8554 150.258 66.0295 150.166 66.224C149.777 67.3654 149.785 68.6043 150.189 69.7407C150.281 69.9377 150.412 70.1143 150.573 70.2602C150.735 70.406 150.924 70.5181 151.13 70.5898C151.692 70.7668 152.281 70.8456 152.869 70.8227H163.261V68.1101C163.256 67.7292 163.203 67.3505 163.103 66.9829C162.988 66.5726 162.767 66.1995 162.463 65.9008H162.448ZM154.142 69.4626H152.937C152.629 69.475 152.321 69.4344 152.026 69.3424C151.917 69.3042 151.817 69.2446 151.732 69.1672C151.647 69.0898 151.578 68.996 151.529 68.8916C151.408 68.5886 151.354 68.263 151.371 67.9372C151.356 67.6335 151.41 67.3304 151.529 67.0505C151.633 66.8489 151.811 66.6954 152.026 66.6222C152.336 66.5291 152.659 66.4884 152.982 66.502C153.397 66.502 153.781 66.5245 154.15 66.5546V69.4551L154.142 69.4626Z" fill="#8E1537"/>
<path id="Rectangle 24" d="M71.282 63.0304H69.791V70.8228H71.282V63.0304Z" fill="#8E1537"/>
<path id="Path 8" d="M101.688 69.4627H99.1656V66.983C99.1872 66.7294 99.1555 66.4741 99.0725 66.2334C98.9895 65.9927 98.8571 65.772 98.6837 65.5853C98.2491 65.2554 97.7064 65.0999 97.1626 65.1495C96.6966 65.1572 96.2314 65.1923 95.7696 65.2547C95.2946 65.3096 94.8241 65.3975 94.3614 65.5177L94.4066 66.5096L94.9789 66.487C95.4809 66.4645 96.0758 66.442 96.7635 66.4194C96.8918 66.4068 97.0214 66.4217 97.1435 66.4632C97.2656 66.5046 97.3774 66.5717 97.4713 66.6599C97.6226 66.8687 97.6947 67.1244 97.6746 67.3813V69.4702H93.4729V70.8303H103.187V63.038H101.696V69.4702L101.688 69.4627Z" fill="#8E1537"/>
<path id="Path 9" d="M93.4729 70.8228V69.4627H92.3057V63.0304H90.8148V69.4627H88.0739V65.3148C87.7426 65.2396 87.3435 65.1795 86.8616 65.1194C86.4066 65.0672 85.9491 65.0396 85.4911 65.0367C85.0053 65.0198 84.5211 65.1016 84.0679 65.2772C83.6785 65.4675 83.3787 65.8018 83.2321 66.209C83.0066 66.8555 82.9069 67.539 82.9384 68.2228C82.9384 69.9586 83.7065 70.8253 85.2426 70.8228H86.5378C86.5489 71.1116 86.5159 71.4005 86.4399 71.6794C86.3995 71.852 86.2944 72.0026 86.1462 72.1002C85.9747 72.1897 85.7822 72.2312 85.589 72.2204C84.983 72.1893 84.3795 72.1216 83.7818 72.0176V73.3626C84.4235 73.4791 85.0727 73.5494 85.7245 73.573C87.11 73.573 87.8781 72.6563 88.0438 70.8153H93.488L93.4729 70.8228ZM86.5679 69.4627H85.6417C85.4593 69.4881 85.2734 69.4662 85.1019 69.399C84.9305 69.3319 84.7792 69.2218 84.6628 69.0795C84.4882 68.7924 84.4018 68.4606 84.4143 68.1251C84.3965 67.7503 84.4501 67.3754 84.5724 67.0205C84.6498 66.8041 84.8056 66.6244 85.0092 66.5171C85.2463 66.4242 85.5 66.3807 85.7546 66.3893C86.0265 66.3923 86.2979 66.4099 86.5679 66.4419V69.4552V69.4627Z" fill="#8E1537"/>
<path id="Path 10" d="M81.1915 72.2806C81.4448 71.8915 81.5783 71.437 81.5755 70.9731V63.0304H80.0846V70.8228C80.0868 71.0706 80.0161 71.3136 79.8813 71.5216C79.7368 71.7459 79.5301 71.9234 79.2864 72.0326C79.0091 72.1638 78.7047 72.2282 78.3979 72.2204C78.0839 72.2266 77.7725 72.1624 77.4867 72.0326C77.2332 71.9193 77.0148 71.7403 76.8542 71.5141C76.7057 71.3029 76.6267 71.0508 76.6283 70.7927C76.6283 70.5974 76.666 70.1991 76.7413 69.5904C76.8166 68.9818 76.8994 68.3956 76.9897 67.8321L75.5816 67.7569C75.3827 68.8122 75.2494 69.8788 75.1825 70.9505C75.1796 71.4236 75.3244 71.8858 75.5967 72.2731C75.8936 72.6863 76.2933 73.0152 76.7563 73.2274C77.2854 73.4682 77.8615 73.5888 78.443 73.5805C79.0103 73.5923 79.5725 73.4713 80.0846 73.2274C80.5295 73.019 80.9076 72.6912 81.1764 72.2806H81.1915Z" fill="#8E1537"/>
<path id="Path 11" d="M180.09 69.4627H177.786V67.7269C177.775 67.3795 177.742 67.0332 177.688 66.6899C177.628 66.2014 177.553 65.7205 177.47 65.2471L176.167 65.2997C176.22 65.9234 176.25 66.3968 176.265 66.7275C176.28 67.0581 176.288 67.4563 176.288 67.9373V69.4627H175.452C175.339 69.461 175.227 69.4407 175.121 69.4026C175.028 69.3683 174.939 69.3229 174.857 69.2673C174.937 68.9351 174.974 68.5944 174.97 68.2529V65.8182H173.479V68.2529C173.492 68.5593 173.413 68.8627 173.253 69.1245C173.183 69.2332 173.086 69.3217 172.971 69.381C172.856 69.4404 172.727 69.4685 172.598 69.4627H172.086V65.8107H170.595V69.4627H167.049V65.2546H165.558V71.0106C165.575 71.3218 165.505 71.6318 165.354 71.9048C165.292 72.0068 165.203 72.0899 165.097 72.1455C164.991 72.201 164.871 72.2269 164.752 72.2204L164.375 72.1979V73.5355C164.82 73.5655 165.091 73.5805 165.189 73.5805C165.463 73.5952 165.737 73.536 165.98 73.4091C166.224 73.2822 166.429 73.0923 166.574 72.8592C166.918 72.2374 167.083 71.5323 167.049 70.8228H173.11C173.522 70.8372 173.922 70.6886 174.225 70.4095C174.391 70.5356 174.577 70.6345 174.774 70.7025C175.001 70.7843 175.241 70.825 175.482 70.8228H181.581V63.0304H180.09V69.4627Z" fill="#8E1537"/>
<path id="Path 12" d="M50.2055 70.6725C50.2195 70.3246 50.1552 69.9779 50.0172 69.6581C49.8793 69.3854 49.6682 69.1565 49.4073 68.9968C49.0336 68.7778 48.6339 68.6061 48.2176 68.4858C47.7432 68.3355 47.4043 68.2228 47.201 68.1477C47.0173 68.0795 46.8466 67.9804 46.6965 67.8546C46.6306 67.7981 46.5781 67.7276 46.543 67.6483C46.5078 67.5691 46.4908 67.4829 46.4932 67.3962C46.4932 66.8627 46.8998 66.5922 47.7055 66.5922C48.4486 66.6139 49.1901 66.6741 49.9269 66.7726L50.0474 65.5627C49.3847 65.4425 48.8877 65.3674 48.5414 65.3223C48.2114 65.284 47.8796 65.2639 47.5474 65.2622C46.8642 65.218 46.188 65.4208 45.6423 65.8333C45.4087 66.044 45.2262 66.3052 45.1088 66.5968C44.9914 66.8885 44.9421 67.203 44.9646 67.5165C44.9522 67.8707 45.0299 68.2223 45.1905 68.5384C45.3673 68.8386 45.6223 69.0853 45.9284 69.2523C46.3647 69.4938 46.8304 69.6782 47.314 69.8008C47.6762 69.8956 48.0271 70.0291 48.3606 70.1991C48.4613 70.2588 48.5435 70.3452 48.598 70.4486C48.6525 70.5521 48.6772 70.6686 48.6694 70.7852C48.7088 71.1827 48.6076 71.5815 48.3832 71.9124C48.2651 72.0258 48.124 72.1126 47.9695 72.1671C47.8149 72.2215 47.6504 72.2423 47.4872 72.228H44.4074C44.0942 72.2338 43.7843 72.1643 43.5038 72.0251C43.256 71.8985 43.0457 71.7094 42.8939 71.4765C42.7504 71.2466 42.6747 70.981 42.6755 70.7101C42.6755 70.5523 42.6981 70.2968 42.7357 69.9361C42.7734 69.5754 42.8261 69.2373 42.8713 68.9292L41.4782 68.7037C41.4029 69.0644 41.3351 69.4627 41.2749 69.891C41.2198 70.2342 41.1872 70.5806 41.177 70.928C41.1611 71.4601 41.3374 71.9802 41.674 72.3933C42.0073 72.7946 42.4412 73.1005 42.9315 73.28C43.4188 73.4694 43.9372 73.5662 44.4601 73.5655H47.57C47.9221 73.5869 48.2749 73.5359 48.6065 73.4157C48.9381 73.2955 49.2414 73.1086 49.4977 72.8667C50.0091 72.2519 50.2579 71.4612 50.1904 70.665L50.2055 70.6725Z" fill="#8E1537"/>
<path id="Rectangle 25" d="M184.857 63.0304H183.366V70.8228H184.857V63.0304Z" fill="#8E1537"/>
<path id="Path 13" d="M57.8485 70.8228H68.0064V63.0304H66.5155V69.4627H64.0607V65.4124L63.4809 65.3448C62.9355 65.2898 62.3875 65.2647 61.8394 65.2697C61.2594 65.2503 60.6806 65.3343 60.1301 65.5176C59.7163 65.6628 59.3723 65.9578 59.1662 66.3442C58.9313 66.8412 58.8227 67.3884 58.85 67.9373C58.8419 68.4544 58.9053 68.9703 59.0382 69.4702H56.4705V65.3223C56.1467 65.2471 55.7401 65.187 55.2582 65.1269C54.8032 65.0747 54.3457 65.0471 53.8877 65.0442C53.4019 65.0273 52.9177 65.1091 52.4645 65.2847C52.0751 65.4751 51.7753 65.8093 51.6287 66.2165C51.4032 66.863 51.3035 67.5465 51.335 68.2303C51.335 69.9661 52.1031 70.8328 53.6392 70.8303H54.9344C54.9455 71.1191 54.9125 71.408 54.8365 71.6869C54.7961 71.8595 54.691 72.0101 54.5428 72.1077C54.3713 72.1972 54.1788 72.2387 53.9856 72.228C53.3796 72.1968 52.7761 72.1291 52.1784 72.0251V73.3701C52.8201 73.4866 53.4693 73.5569 54.1211 73.5805C55.5067 73.5805 56.2747 72.6638 56.4404 70.8228H57.8485ZM60.484 67.1933C60.5156 67.0907 60.569 66.9959 60.6404 66.9156C60.7119 66.8352 60.7997 66.7711 60.8981 66.7275C61.1846 66.6223 61.4894 66.5763 61.7942 66.5922C61.9824 66.5922 62.2385 66.5997 62.5623 66.6223V69.4627H60.5743C60.5066 69.2523 60.4539 69.0644 60.4162 68.8916C60.3756 68.666 60.358 68.4369 60.3635 68.2078C60.348 67.8653 60.3887 67.5227 60.484 67.1933ZM54.9796 69.4627H54.0534C53.8709 69.4881 53.6851 69.4662 53.5136 69.399C53.3422 69.3319 53.1909 69.2218 53.0745 69.0795C52.8999 68.7924 52.8135 68.4606 52.826 68.1251C52.8081 67.7503 52.8618 67.3754 52.9841 67.0205C53.0614 66.8041 53.2173 66.6244 53.4208 66.5171C53.658 66.4242 53.9117 66.3807 54.1663 66.3893C54.4381 66.3923 54.7096 66.4099 54.9796 66.4419V69.4552V69.4627Z" fill="#8E1537"/>
<path id="Path 14" d="M134.654 85.7462C134.58 85.7569 134.504 85.7454 134.435 85.7134C134.367 85.6813 134.31 85.6301 134.27 85.5659C134.194 85.2974 134.169 85.0171 134.195 84.7393V81.7786H135.234V80.7792H134.188V78.6978L132.915 79.4492V80.7943H132.185V81.7937H132.915V84.8295C132.883 85.326 132.949 85.824 133.111 86.2948C133.291 86.6555 133.736 86.8358 134.436 86.8358C134.753 86.8348 135.068 86.7841 135.37 86.6855L135.219 85.6335C135.039 85.7028 134.848 85.7409 134.654 85.7462Z" fill="#8E1537"/>
<path id="Path 15" d="M178.592 80.6515C178.196 80.633 177.801 80.7008 177.435 80.85C177.068 80.9992 176.738 81.2264 176.468 81.5157C175.91 82.154 175.621 82.9836 175.663 83.8301C175.644 84.2309 175.706 84.6313 175.845 85.008C175.983 85.3848 176.195 85.7302 176.468 86.0243C176.746 86.3015 177.078 86.5181 177.443 86.6604C177.809 86.8027 178.2 86.8676 178.592 86.8509C178.985 86.8671 179.377 86.7998 179.741 86.6534C180.106 86.507 180.436 86.2849 180.708 86.0018C181.232 85.3689 181.52 84.5737 181.521 83.7526C181.522 82.9314 181.238 82.1353 180.715 81.5007C180.441 81.2186 180.11 80.9973 179.744 80.851C179.378 80.7047 178.986 80.6368 178.592 80.6515ZM179.767 85.2654C179.63 85.4464 179.453 85.5921 179.248 85.6902C179.044 85.7882 178.819 85.8358 178.592 85.8289C177.515 85.8289 176.973 85.1376 176.973 83.755C176.973 82.3723 177.515 81.681 178.592 81.681C179.669 81.681 180.211 82.3798 180.211 83.7775C180.237 84.3072 180.08 84.8297 179.767 85.2578V85.2654Z" fill="#8E1537"/>
<path id="Path 16" d="M128.389 83.6648C128.427 84.1867 128.347 84.7104 128.156 85.1977C128.04 85.41 127.866 85.5845 127.654 85.7004C127.441 85.8163 127.2 85.8688 126.959 85.8515C126.213 85.8515 125.837 85.2879 125.837 84.1607V80.7943H124.549V84.5139C124.521 85.0355 124.619 85.5563 124.835 86.0318C125.017 86.314 125.274 86.5404 125.577 86.6863C125.88 86.8321 126.217 86.8917 126.552 86.8584C126.934 86.8726 127.312 86.788 127.652 86.6128C127.991 86.4377 128.279 86.178 128.487 85.859L128.502 86.7382H129.662V80.7943H128.389V83.6648Z" fill="#8E1537"/>
<path id="Rectangle 26" d="M138.608 80.7869H137.335V86.7307H138.608V80.7869Z" fill="#8E1537"/>
<path id="Rectangle 27" d="M138.608 78.5175H137.335V79.8099H138.608V78.5175Z" fill="#8E1537"/>
<path id="Path 17" d="M42.0279 84.9573L40.0626 78.5175H37.8638V86.7306H39.1515V79.5469L41.3577 86.7306H42.6228L44.8441 79.5469V86.7306H46.1544V78.5175H44.0309L42.0279 84.9573Z" fill="#8E1537"/>
<path id="Path 18" d="M152.847 81.5007C152.669 81.2132 152.414 80.9812 152.11 80.8311C151.807 80.681 151.467 80.6188 151.13 80.6516C150.748 80.6386 150.369 80.722 150.028 80.8941C149.687 81.0662 149.396 81.3213 149.18 81.636V80.7868H148.005V86.7307H149.278V83.7475C149.248 83.2661 149.333 82.7845 149.526 82.3423C149.639 82.1272 149.813 81.9495 150.025 81.8307C150.238 81.712 150.48 81.6574 150.723 81.6735C151.484 81.6735 151.86 82.2446 151.86 83.3868V86.7307H153.133V83.2666C153.14 82.8829 153.128 82.4992 153.095 82.1169C153.045 81.9 152.961 81.6922 152.847 81.5007Z" fill="#8E1537"/>
<path id="Path 19" d="M170.234 85.7162C168.66 85.7162 167.874 84.6717 167.877 82.5827C167.877 80.4937 168.682 79.5394 170.286 79.5394C170.752 79.5144 171.211 79.6579 171.579 79.9437C171.947 80.2295 172.199 80.6383 172.289 81.0949L173.622 80.7718C173.541 80.4618 173.419 80.1637 173.261 79.8851C172.964 79.3871 172.534 78.9813 172.02 78.7132C171.505 78.4451 170.926 78.3253 170.347 78.3672C169.822 78.3417 169.297 78.4314 168.811 78.6301C168.324 78.8287 167.887 79.1314 167.53 79.5169C166.795 80.3762 166.418 81.4842 166.476 82.6128C166.417 83.742 166.779 84.8531 167.493 85.7312C167.847 86.1128 168.281 86.4122 168.763 86.6082C169.246 86.8043 169.766 86.8923 170.286 86.8659C171.088 86.9151 171.88 86.668 172.51 86.1718C173.141 85.6756 173.566 84.9651 173.705 84.1758L172.372 83.7775C172.086 85.07 171.371 85.7162 170.234 85.7162Z" fill="#8E1537"/>
<path id="Path 20" d="M143.299 80.6515C142.903 80.633 142.508 80.7008 142.142 80.85C141.775 80.9992 141.445 81.2264 141.175 81.5157C140.617 82.154 140.328 82.9836 140.37 83.8301C140.351 84.2309 140.413 84.6313 140.552 85.008C140.69 85.3848 140.902 85.7302 141.175 86.0243C141.453 86.3015 141.785 86.5181 142.15 86.6604C142.516 86.8027 142.907 86.8676 143.299 86.8509C143.692 86.8671 144.084 86.7998 144.448 86.6534C144.813 86.507 145.143 86.2849 145.415 86.0018C145.939 85.3689 146.227 84.5737 146.228 83.7526C146.229 82.9314 145.945 82.1353 145.422 81.5007C145.148 81.2186 144.817 80.9973 144.451 80.851C144.085 80.7047 143.693 80.6368 143.299 80.6515ZM144.474 85.2654C144.337 85.4464 144.16 85.5921 143.955 85.6902C143.751 85.7882 143.526 85.8358 143.299 85.8289C142.222 85.8289 141.68 85.1376 141.68 83.755C141.68 82.3723 142.222 81.681 143.299 81.681C144.376 81.681 144.918 82.3798 144.918 83.7775C144.944 84.3072 144.787 84.8297 144.474 85.2578V85.2654Z" fill="#8E1537"/>
<path id="Rectangle 28" d="M122.042 78.5175H120.754V86.7306H122.042V78.5175Z" fill="#8E1537"/>
<path id="Rectangle 29" d="M184.646 85.3856H183.298V86.7307H184.646V85.3856Z" fill="#8E1537"/>
<path id="Path 21" d="M158.442 83.0486C158.057 82.9817 157.685 82.8602 157.335 82.6879C157.251 82.6508 157.18 82.5909 157.13 82.5151C157.079 82.4393 157.051 82.3507 157.049 82.2596C157.049 81.8388 157.433 81.6284 158.193 81.6284C158.954 81.6284 159.345 81.9139 159.443 82.4775L160.663 82.2821C160.46 81.2 159.594 80.6515 158.065 80.6515C157.484 80.6253 156.912 80.8005 156.446 81.1474C156.249 81.294 156.089 81.486 155.982 81.7071C155.874 81.9281 155.822 82.1718 155.829 82.4174C155.816 82.6432 155.859 82.8687 155.953 83.0743C156.048 83.2798 156.191 83.4593 156.371 83.5971C157.111 84.0161 157.919 84.301 158.758 84.4387C159.308 84.5514 159.586 84.7694 159.586 85.0774C159.586 85.6185 159.157 85.889 158.299 85.889C158.135 85.9106 157.968 85.8991 157.808 85.8553C157.649 85.8115 157.5 85.7362 157.37 85.634C157.24 85.5317 157.132 85.4045 157.052 85.2599C156.973 85.1152 156.923 84.9561 156.906 84.7919L155.633 84.9873C155.881 86.2271 156.78 86.8483 158.329 86.8508C158.988 86.882 159.64 86.6944 160.181 86.3173C160.406 86.1559 160.588 85.9422 160.711 85.6947C160.835 85.4472 160.896 85.1734 160.889 84.8971C160.897 84.6759 160.853 84.4558 160.76 84.2548C160.667 84.0537 160.528 83.8773 160.354 83.7399C159.772 83.3777 159.121 83.1397 158.442 83.0411V83.0486Z" fill="#8E1537"/>
<path id="Path 22" d="M15.3341 82.9134C15.3708 82.4411 15.2933 81.967 15.1082 81.5308C14.7694 80.9446 14.0465 80.6591 12.9471 80.6591C12.3712 80.5965 11.7913 80.7353 11.3065 81.0519C10.8217 81.3685 10.4621 81.8432 10.289 82.3949L11.4863 82.6203C11.5614 82.3153 11.7466 82.0486 12.0063 81.8711C12.2661 81.6937 12.5822 81.618 12.8944 81.6585C13.0489 81.6346 13.2068 81.6468 13.3558 81.694C13.5047 81.7412 13.6407 81.8223 13.7531 81.9307C13.8654 82.0392 13.951 82.1721 14.0032 82.3192C14.0555 82.4662 14.0728 82.6233 14.054 82.7781V82.9134C13.5106 83.0807 12.9539 83.2014 12.3899 83.2741C12.0168 83.3348 11.6491 83.4253 11.2905 83.5446C10.9466 83.647 10.6456 83.8588 10.4335 84.1478C10.2215 84.4368 10.1099 84.787 10.1158 85.1452C10.1158 86.2873 10.7935 86.8584 12.1565 86.8584C12.9039 86.8553 13.6213 86.5646 14.1594 86.0469C14.2038 86.2863 14.2797 86.5188 14.3853 86.7382H15.673C15.4161 86.2129 15.2969 85.6312 15.3266 85.0475L15.3416 82.9134H15.3341ZM14.0615 84.2059C14.0818 84.555 14.0145 84.9037 13.8658 85.2203C13.7263 85.4545 13.5242 85.6454 13.2821 85.7714C13.0401 85.8975 12.7676 85.9539 12.4953 85.9342C11.7875 85.9342 11.4336 85.6411 11.4336 85.0625C11.4336 84.5966 11.8402 84.2885 12.6459 84.1533C13.0676 84.0856 13.3613 84.033 13.5194 83.9955C13.7041 83.9511 13.8853 83.8933 14.0615 83.8226V84.2209V84.2059Z" fill="#8E1537"/>
<path id="Path 23" d="M19.8671 85.7462C19.7925 85.7569 19.7163 85.7454 19.6481 85.7134C19.5798 85.6813 19.5225 85.6301 19.4831 85.5659C19.407 85.2974 19.3814 85.0171 19.4078 84.7393V81.7786H20.4469V80.7792H19.3927V78.6978L18.1202 79.4492V80.7943H17.3898V81.7937H18.1202V84.8295C18.0877 85.326 18.1543 85.824 18.316 86.2948C18.4967 86.6555 18.9409 86.8358 19.6337 86.8358C19.9534 86.8348 20.2709 86.7841 20.575 86.6855L20.4244 85.6335C20.2413 85.7029 20.0478 85.741 19.8521 85.7462H19.8671Z" fill="#8E1537"/>
<path id="Path 24" d="M60.853 81.5007C60.6749 81.2132 60.4197 80.9812 60.1162 80.8311C59.8128 80.681 59.4732 80.6188 59.1361 80.6516C58.7543 80.6386 58.3753 80.722 58.0344 80.8941C57.6935 81.0662 57.4016 81.3213 57.1858 81.636V80.7868H56.0112V86.7307H57.2837V83.7475C57.254 83.2661 57.3392 82.7845 57.5322 82.3423C57.6455 82.1272 57.819 81.9495 58.0315 81.8307C58.244 81.712 58.4865 81.6574 58.7295 81.6735C59.49 81.6735 59.8665 82.2446 59.8665 83.3868V86.7307H61.1391V83.2666C61.1462 82.8829 61.1336 82.4992 61.1014 82.1169C61.0507 81.9 60.9668 81.6922 60.853 81.5007Z" fill="#8E1537"/>
<path id="Path 25" d="M30.2435 81.666V80.7943H29.0688V86.7382H30.3414V84.2209C30.3414 82.6504 30.7028 81.8689 31.4181 81.8689C31.6907 81.8747 31.9565 81.9553 32.1862 82.1018L32.6079 80.9671C32.2859 80.7763 31.9205 80.6703 31.5462 80.6591C31.0416 80.6591 30.6124 80.9972 30.251 81.666H30.2435Z" fill="#8E1537"/>
<path id="Path 26" d="M53.9479 82.9134C53.9846 82.4411 53.9071 81.967 53.722 81.5308C53.3832 80.9446 52.6603 80.6591 51.5609 80.6591C50.985 80.5965 50.4051 80.7353 49.9203 81.0519C49.4356 81.3685 49.0759 81.8432 48.9028 82.3949L50.1001 82.6203C50.1753 82.3153 50.3604 82.0486 50.6202 81.8711C50.8799 81.6937 51.1961 81.618 51.5082 81.6585C51.6627 81.6346 51.8206 81.6468 51.9696 81.694C52.1186 81.7412 52.2546 81.8223 52.3669 81.9307C52.4792 82.0392 52.5649 82.1721 52.6171 82.3192C52.6693 82.4662 52.6867 82.6233 52.6678 82.7781V82.9134C52.1244 83.0807 51.5677 83.2014 51.0037 83.2741C50.6306 83.3348 50.263 83.4253 49.9043 83.5446C49.5604 83.647 49.2594 83.8588 49.0474 84.1478C48.8353 84.4368 48.7237 84.787 48.7297 85.1452C48.7297 86.2873 49.4074 86.8584 50.7703 86.8584C51.5177 86.8553 52.2352 86.5646 52.7733 86.0469C52.8176 86.2863 52.8936 86.5188 52.9992 86.7382H54.2868C54.0299 86.2129 53.9108 85.6312 53.9404 85.0475L53.9555 82.9134H53.9479ZM52.6754 84.2059C52.6956 84.555 52.6283 84.9037 52.4796 85.2203C52.3401 85.4545 52.138 85.6454 51.8959 85.7714C51.6539 85.8975 51.3815 85.9539 51.1091 85.9342C50.4013 85.9342 50.0474 85.6411 50.0474 85.0625C50.0474 84.5966 50.454 84.2885 51.2597 84.1533C51.6814 84.0856 51.9751 84.033 52.1332 83.9955C52.3179 83.9511 52.4991 83.8933 52.6754 83.8226V84.2209V84.2059Z" fill="#8E1537"/>
<path id="Path 27" d="M66.6134 80.6516C66.2594 80.6439 65.9092 80.726 65.5958 80.8903C65.2823 81.0546 65.0158 81.2957 64.8212 81.5909V80.7794H63.6465V89.0001H64.9191V86.0695C65.1198 86.3186 65.3745 86.519 65.6641 86.6557C65.9536 86.7924 66.2705 86.8617 66.5908 86.8585C66.9437 86.8664 67.2934 86.7909 67.6114 86.6381C67.9295 86.4853 68.2067 86.2595 68.4206 85.9793C68.9145 85.3284 69.1648 84.5256 69.1284 83.71C69.1702 82.9122 68.9244 82.1259 68.4356 81.4932C68.2183 81.2237 67.9413 81.0082 67.6265 80.8634C67.3116 80.7187 66.9674 80.6488 66.6209 80.6591L66.6134 80.6516ZM66.3423 85.844C65.3559 85.844 64.8589 85.1753 64.8589 83.8377C64.8589 82.3799 65.3634 81.6585 66.3649 81.6585C67.3664 81.6585 67.8257 82.3499 67.8257 83.7325C67.8257 85.1152 67.3287 85.8516 66.3423 85.8516V85.844Z" fill="#8E1537"/>
<path id="Path 28" d="M27.0056 82.9134C27.0422 82.4411 26.9647 81.967 26.7797 81.5308C26.4408 80.9446 25.7179 80.6591 24.6186 80.6591C24.0426 80.5965 23.4627 80.7353 22.978 81.0519C22.4932 81.3685 22.1336 81.8432 21.9605 82.3949L23.1577 82.6203C23.2329 82.3153 23.418 82.0486 23.6778 81.8711C23.9375 81.6937 24.2537 81.618 24.5658 81.6585C24.7203 81.6346 24.8782 81.6468 25.0272 81.694C25.1762 81.7412 25.3122 81.8223 25.4245 81.9307C25.5368 82.0392 25.6225 82.1721 25.6747 82.3192C25.7269 82.4662 25.7443 82.6233 25.7255 82.7781V82.9134C25.1821 83.0807 24.6253 83.2014 24.0613 83.2741C23.6882 83.3348 23.3206 83.4253 22.962 83.5446C22.618 83.647 22.3171 83.8588 22.105 84.1478C21.8929 84.4368 21.7813 84.787 21.7873 85.1452C21.7873 86.2873 22.465 86.8584 23.8279 86.8584C24.5753 86.8553 25.2928 86.5646 25.8309 86.0469C25.8752 86.2863 25.9512 86.5188 26.0568 86.7382H27.3444C27.0876 86.2129 26.9684 85.6312 26.998 85.0475L27.0131 82.9134H27.0056ZM25.733 84.2059C25.7532 84.555 25.6859 84.9037 25.5372 85.2203C25.3977 85.4545 25.1956 85.6454 24.9536 85.7714C24.7115 85.8975 24.4391 85.9539 24.1668 85.9342C23.4589 85.9342 23.105 85.6411 23.105 85.0625C23.105 84.5966 23.5116 84.2885 24.3174 84.1533C24.739 84.0856 25.0327 84.033 25.1908 83.9955C25.3755 83.9511 25.5567 83.8933 25.733 83.8226V84.2209V84.2059Z" fill="#8E1537"/>
<path id="Path 29" d="M96.9141 81.666V80.7943H95.7394V86.7382H97.012V84.2209C97.012 82.6504 97.3734 81.8689 98.0887 81.8689C98.3613 81.8747 98.6271 81.9553 98.8568 82.1018L99.2785 80.9671C98.9565 80.7763 98.5911 80.6703 98.2168 80.6591C97.7122 80.6591 97.283 80.9972 96.9216 81.666H96.9141Z" fill="#8E1537"/>
<path id="Path 30" d="M8.12788 82.6278C8.18968 81.4948 7.80297 80.383 7.05109 79.5319C6.27533 78.7893 5.24201 78.3748 4.1671 78.3748C3.09219 78.3748 2.05887 78.7893 1.28311 79.5319C0.585647 80.4137 0.206299 81.5044 0.206299 82.6278C0.206299 83.7512 0.585647 84.8418 1.28311 85.7237C1.65276 86.1088 2.10065 86.4107 2.59675 86.609C3.09285 86.8072 3.6257 86.8974 4.15957 86.8734C4.83073 86.8818 5.49504 86.7379 6.10231 86.4526C6.2002 86.5127 6.26044 86.5503 6.29056 86.5728C6.7273 86.8659 7.0285 87.0612 7.20169 87.1514C7.42967 87.2672 7.66632 87.3652 7.90951 87.4445L8.36884 86.5052C7.88884 86.3185 7.43363 86.0737 7.01344 85.7763C7.76377 84.8978 8.16323 83.7742 8.13541 82.6203L8.12788 82.6278ZM5.91406 85.0173C5.44904 84.6533 4.9206 84.3781 4.35535 84.2058L3.99391 85.085C4.37318 85.1834 4.7307 85.3516 5.04811 85.5809C4.75643 85.688 4.44775 85.7414 4.13698 85.7387C3.78439 85.7537 3.43318 85.6861 3.11149 85.5413C2.78981 85.3964 2.50662 85.1784 2.2846 84.9046C1.84242 84.23 1.60692 83.4414 1.60692 82.6353C1.60692 81.8292 1.84242 81.0406 2.2846 80.366C2.5173 80.0964 2.80839 79.8833 3.13585 79.7427C3.46331 79.6021 3.81854 79.5377 4.17463 79.5544C4.52995 79.5379 4.88427 79.6039 5.20965 79.7474C5.53502 79.8908 5.82257 80.1077 6.0496 80.381C6.53667 81.0512 6.77613 81.869 6.7273 82.6954C6.75316 83.1181 6.69459 83.5417 6.55498 83.9416C6.41537 84.3415 6.19751 84.7097 5.91406 85.0248V85.0173Z" fill="#8E1537"/>
<path id="Path 31" d="M110.34 82.6353C109.644 82.1926 108.865 81.8936 108.051 81.7561C107.521 81.6655 107.009 81.4958 106.53 81.2527C106.407 81.1845 106.304 81.0842 106.234 80.9624C106.164 80.8405 106.128 80.7019 106.131 80.5614C106.131 79.87 106.688 79.5244 107.795 79.5244C108.902 79.5244 109.444 79.9903 109.564 80.9145L110.897 80.8394C110.83 79.1862 109.783 78.3597 107.757 78.3597C106.998 78.3222 106.249 78.5449 105.634 78.9909C105.377 79.1824 105.17 79.4323 105.03 79.7199C104.89 80.0075 104.821 80.3243 104.828 80.644C104.817 80.9503 104.88 81.2547 105.011 81.5319C105.142 81.809 105.337 82.0508 105.581 82.2371C106.256 82.6547 107.001 82.9475 107.78 83.1012C108.367 83.2024 108.932 83.4032 109.452 83.6948C109.565 83.7782 109.657 83.8884 109.717 84.0156C109.777 84.1429 109.805 84.2831 109.798 84.4237C109.798 85.2804 109.18 85.7087 107.946 85.7087C107.69 85.7417 107.431 85.7218 107.183 85.6502C106.936 85.5786 106.706 85.4568 106.508 85.2924C106.311 85.1281 106.149 84.9247 106.033 84.695C105.918 84.4654 105.851 84.2144 105.837 83.9578L104.527 84.0781C104.662 85.9341 105.794 86.8634 107.923 86.8659C108.763 86.9129 109.593 86.6745 110.28 86.1896C110.561 85.9723 110.786 85.6912 110.937 85.3698C111.087 85.0483 111.159 84.6957 111.146 84.3411C111.16 84.0133 111.093 83.687 110.951 83.391C110.809 83.0949 110.597 82.838 110.333 82.6428L110.34 82.6353Z" fill="#8E1537"/>
<path id="Path 32" d="M91.2214 80.6515C90.8455 80.6369 90.4709 80.7055 90.1247 80.8523C89.7784 80.9991 89.4689 81.2205 89.2184 81.5007C88.6916 82.1451 88.4232 82.9619 88.4654 83.7925C88.4163 84.613 88.6921 85.4199 89.2335 86.0393C89.503 86.3153 89.8286 86.5305 90.1884 86.6705C90.5481 86.8105 90.9338 86.872 91.3193 86.8509C91.906 86.9119 92.4951 86.7602 92.979 86.4235C93.4628 86.0869 93.8092 85.5878 93.9548 85.0174L92.6521 84.8295C92.5882 85.1278 92.4227 85.3948 92.1839 85.5852C91.9451 85.7756 91.6476 85.8776 91.3419 85.874C90.348 85.874 89.8284 85.2804 89.7832 84.1006H94V83.9654C93.9981 83.9326 94.0007 83.8998 94.0075 83.8677C94.0541 83.0159 93.7922 82.1758 93.2696 81.5007C93.0128 81.2162 92.6958 80.9924 92.3415 80.8455C91.9872 80.6987 91.6046 80.6324 91.2214 80.6515ZM89.8133 83.2139C89.9338 82.1694 90.4233 81.651 91.2741 81.651C92.125 81.651 92.6446 82.177 92.7048 83.2139H89.8133Z" fill="#8E1537"/>
<path id="Path 33" d="M116.048 80.6515C115.652 80.633 115.257 80.7008 114.891 80.85C114.524 80.9992 114.194 81.2264 113.924 81.5157C113.366 82.154 113.077 82.9836 113.119 83.8301C113.1 84.2309 113.162 84.6313 113.3 85.008C113.439 85.3848 113.651 85.7302 113.924 86.0243C114.202 86.3015 114.533 86.5181 114.899 86.6604C115.265 86.8027 115.656 86.8676 116.048 86.8509C116.441 86.8671 116.833 86.7998 117.197 86.6534C117.562 86.507 117.892 86.2849 118.164 86.0018C118.688 85.3689 118.976 84.5737 118.977 83.7526C118.978 82.9314 118.693 82.1353 118.171 81.5007C117.897 81.2186 117.566 80.9973 117.2 80.851C116.834 80.7047 116.442 80.6368 116.048 80.6515ZM117.223 85.2654C117.086 85.4464 116.909 85.5921 116.704 85.6902C116.5 85.7882 116.275 85.8358 116.048 85.8289C114.971 85.8289 114.429 85.1376 114.429 83.755C114.429 82.3723 114.971 81.681 116.048 81.681C117.125 81.681 117.667 82.3798 117.667 83.7775C117.693 84.3072 117.536 84.8297 117.223 85.2578V85.2654Z" fill="#8E1537"/>
<path id="Path 34" d="M74.2037 80.6515C73.8081 80.633 73.4132 80.7008 73.0465 80.85C72.6797 80.9992 72.35 81.2264 72.0802 81.5157C71.5215 82.154 71.2327 82.9836 71.2745 83.8301C71.2562 84.2309 71.318 84.6313 71.4563 85.008C71.5946 85.3848 71.8067 85.7302 72.0802 86.0243C72.3574 86.3015 72.6893 86.5181 73.0548 86.6604C73.4204 86.8027 73.8116 86.8676 74.2037 86.8509C74.5964 86.8663 74.988 86.7986 75.3527 86.6523C75.7173 86.5059 76.0469 86.2842 76.3196 86.0018C76.8439 85.3689 77.1314 84.5737 77.1327 83.7526C77.1341 82.9314 76.8493 82.1353 76.3271 81.5007C76.0525 81.2186 75.7216 80.9973 75.3558 80.851C74.99 80.7047 74.5975 80.6368 74.2037 80.6515ZM75.3783 85.2654C75.2421 85.4464 75.0643 85.5921 74.8599 85.6902C74.6555 85.7882 74.4304 85.8358 74.2037 85.8289C73.1269 85.8289 72.5847 85.1376 72.5847 83.755C72.5847 82.3723 73.1269 81.681 74.2037 81.681C75.2804 81.681 75.8226 82.3798 75.8226 83.7775C75.8487 84.3072 75.6919 84.8297 75.3783 85.2578V85.2654Z" fill="#8E1537"/>
<path id="Path 35" d="M85.0995 84.4388C85.0242 84.6868 84.964 84.9123 84.9113 85.1151L83.8119 80.7869H82.5544L81.3947 85.1151L80.1824 80.7869H78.9099L80.7622 86.7307H82.0499L82.9986 83.0712L83.1342 82.4926L84.2712 86.7307H85.5287L87.4187 80.7869H86.1688L85.092 84.4388H85.0995Z" fill="#8E1537"/>
<path id="Path 36" d="M115.061 52.5329C116.936 52.5309 118.733 51.7869 120.059 50.4641C121.384 49.1412 122.13 47.3477 122.132 45.4769V35.1672H117.772V45.4769C117.772 46.1944 117.487 46.8825 116.978 47.3898C116.47 47.8971 115.78 48.1821 115.061 48.1821C114.342 48.1821 113.653 47.8971 113.145 47.3898C112.636 46.8825 112.351 46.1944 112.351 45.4769V35.1672H107.991V45.4769C107.993 47.3477 108.738 49.1412 110.064 50.4641C111.389 51.7869 113.187 52.5309 115.061 52.5329Z" fill="#19255B"/>
<path id="Path 37" d="M130.95 48.9785C130.072 48.9467 129.211 48.7261 128.426 48.3319C127.641 47.9376 126.95 47.379 126.402 46.6942L124.143 49.3693C124.939 50.3975 125.97 51.2205 127.151 51.7696C128.331 52.3186 129.626 52.5777 130.927 52.5253C132.629 52.6158 134.308 52.0931 135.656 51.0525C136.231 50.6042 136.693 50.0287 137.007 49.3714C137.32 48.7141 137.477 47.9931 137.463 47.2652C137.463 45.4618 136.529 44.0792 134.692 43.1173C134.24 42.8769 132.915 42.3358 130.746 41.5243C129.783 41.1936 129.301 40.7127 129.301 40.0214C129.301 39.27 130.054 38.6388 131.168 38.6388C132.588 38.6635 133.941 39.2468 134.933 40.2619L137.041 37.5266C136.3 36.756 135.405 36.1492 134.414 35.7453C133.423 35.3415 132.358 35.1496 131.289 35.1822C129.685 35.099 128.105 35.5893 126.831 36.5648C126.215 37.0661 125.741 37.7181 125.453 38.4571C125.166 39.1961 125.075 39.9968 125.191 40.7812C125.306 41.5655 125.623 42.3066 126.111 42.932C126.599 43.5575 127.242 44.0459 127.975 44.3497C128.337 44.53 129.03 44.8306 130.084 45.2213C131.138 45.6121 131.77 45.8525 132.042 45.9728C132.825 46.3335 133.216 46.8144 133.216 47.3855C133.216 48.3173 132.252 48.9785 130.957 48.9785H130.95Z" fill="#19255B"/>
<path id="Path 38" d="M139.986 42.2232V45.4769C139.986 47.3483 140.731 49.143 142.057 50.4663C143.383 51.7895 145.181 52.5329 147.056 52.5329C148.932 52.5329 150.73 51.7895 152.056 50.4663C153.382 49.143 154.127 47.3483 154.127 45.4769V42.2232C154.127 40.3519 153.382 38.5571 152.056 37.2339C150.73 35.9106 148.932 35.1672 147.056 35.1672C145.181 35.1672 143.383 35.9106 142.057 37.2339C140.731 38.5571 139.986 40.3519 139.986 42.2232ZM149.767 42.2232V45.4769C149.767 46.1944 149.482 46.8825 148.973 47.3898C148.465 47.8971 147.775 48.1821 147.056 48.1821C146.337 48.1821 145.648 47.8971 145.14 47.3898C144.631 46.8825 144.346 46.1944 144.346 45.4769V42.2232C144.346 41.5058 144.631 40.8177 145.14 40.3104C145.648 39.803 146.337 39.518 147.056 39.518C147.775 39.518 148.465 39.803 148.973 40.3104C149.482 40.8177 149.767 41.5058 149.767 42.2232Z" fill="#19255B"/>
<path id="Path 39" d="M173.984 42.7642V52.5329H178.344V42.7642C178.345 41.9038 178.688 41.079 179.298 40.4706C179.908 39.8622 180.734 39.5196 181.596 39.518H184.864V35.1672H181.596C179.578 35.1706 177.644 35.9721 176.217 37.3961C174.79 38.8201 173.987 40.7504 173.984 42.7642Z" fill="#19255B"/>
<path id="Path 40" d="M100.385 44.9358C100.384 45.7962 100.041 46.621 99.4309 47.2294C98.8212 47.8379 97.9947 48.1804 97.1325 48.182H93.8644V52.5328H97.1325C99.1505 52.5294 101.085 51.7279 102.512 50.3039C103.939 48.88 104.742 46.9496 104.745 44.9358V29.7493H100.385V44.9358Z" fill="#19255B"/>
<path id="Path 41" d="M156.589 35.1672V45.4769C156.589 47.3483 157.334 49.143 158.66 50.4663C159.986 51.7895 161.785 52.5329 163.66 52.5329C165.535 52.5329 167.334 51.7895 168.66 50.4663C169.986 49.143 170.731 47.3483 170.731 45.4769V35.1672H166.371V45.4769C166.371 46.1944 166.085 46.8825 165.577 47.3898C165.068 47.8971 164.379 48.1821 163.66 48.1821C162.941 48.1821 162.252 47.8971 161.743 47.3898C161.235 46.8825 160.949 46.1944 160.949 45.4769V35.1672H156.589Z" fill="#19255B"/>
<path id="Path 42" d="M124.067 16.2836H141.785C143.39 16.2821 144.938 15.6878 146.13 14.6154C147.321 15.6892 148.87 16.2837 150.475 16.2837C152.08 16.2837 153.628 15.6892 154.82 14.6154C156.011 15.6897 157.559 16.2842 159.165 16.2836H182.485L185 11.9328H182.583C182.176 11.9323 181.778 11.8152 181.437 11.5954C181.095 11.3755 180.824 11.0623 180.655 10.6929L177.508 3.78723C176.993 2.65946 176.164 1.703 175.12 1.03161C174.076 0.360225 172.861 0.00215974 171.619 0H164.594V4.35081H171.619C172.026 4.35229 172.423 4.46984 172.765 4.68955C173.106 4.90925 173.378 5.22195 173.547 5.59068L176.438 11.9403H159.052C158.772 11.9429 158.495 11.8881 158.238 11.7791C157.981 11.6702 157.749 11.5095 157.557 11.3072C157.365 11.1048 157.216 10.8651 157.121 10.6029C157.026 10.3408 156.986 10.0619 157.003 9.78369V0.00751596H152.644V9.77617C152.671 10.1338 152.599 10.4919 152.435 10.8114C152.272 11.1308 152.023 11.3992 151.717 11.5871C151.387 11.8038 151.003 11.9276 150.608 11.9454C150.213 11.9632 149.82 11.8744 149.471 11.6883C149.122 11.5023 148.83 11.2258 148.625 10.888C148.42 10.5502 148.31 10.1635 148.306 9.76866V0H143.946V9.76866C143.946 10.3426 143.718 10.8929 143.311 11.2987C142.904 11.7045 142.353 11.9326 141.778 11.9328H138.525V0H134.165V11.9328H124.15L124.075 7.44673C124.074 6.30629 123.814 5.18084 123.314 4.15544C122.655 2.86423 121.641 1.78779 120.389 1.05292C119.138 0.318039 117.702 -0.0446687 116.251 0.00751596C114.258 0.117669 112.384 0.990725 111.019 2.44498C109.654 3.89923 108.904 5.82265 108.924 7.81492V8.68659C108.925 10.7011 109.728 12.6329 111.155 14.0574C112.583 15.4819 114.519 16.2826 116.537 16.2836H119.594C119.37 16.914 118.956 17.4596 118.409 17.8458C117.861 18.2319 117.208 18.4395 116.537 18.4402H108.924V22.791H116.537C118.365 22.7887 120.131 22.1299 121.513 20.935C122.894 19.7401 123.798 18.089 124.06 16.2836H124.067ZM116.545 11.9328C115.683 11.9312 114.856 11.5887 114.246 10.9802C113.637 10.3718 113.293 9.54705 113.292 8.68659V7.60452C113.292 6.74358 113.635 5.9179 114.245 5.30912C114.855 4.70034 115.682 4.35833 116.545 4.35833C117.408 4.35833 118.235 4.70034 118.845 5.30912C119.455 5.9179 119.798 6.74358 119.798 7.60452V11.9403H116.545V11.9328Z" fill="#19255B"/>
<path id="Path 43" d="M104.595 15.1941V0.00756836H100.235V15.1941C100.233 16.0545 99.89 16.8793 99.2803 17.4877C98.6706 18.0962 97.8441 18.4387 96.9819 18.4403H93.7139V22.7911H96.9819C98.9999 22.7877 100.934 21.9862 102.361 20.5622C103.788 19.1383 104.591 17.2079 104.595 15.1941Z" fill="#19255B"/>
<path id="Rectangle 30" d="M170.234 17.7369L167.161 20.8027L170.234 23.8686L173.306 20.8027L170.234 17.7369Z" fill="#19255B"/>
<path id="Ellipse 7" d="M66.1691 14.6455C70.2197 14.6455 73.5033 11.3687 73.5033 7.32655C73.5033 3.28439 70.2197 0.00756836 66.1691 0.00756836C62.1185 0.00756836 58.8349 3.28439 58.8349 7.32655C58.8349 11.3687 62.1185 14.6455 66.1691 14.6455Z" fill="#19255B"/>
<path id="Ellipse 8" d="M46.0689 18.3968C48.145 16.325 48.145 12.966 46.0689 10.8942C43.9928 8.82243 40.6268 8.82243 38.5507 10.8942C36.4746 12.966 36.4746 16.325 38.5507 18.3968C40.6268 20.4686 43.9928 20.4686 46.0689 18.3968Z" fill="#19255B"/>
<path id="Ellipse 9" d="M23.2782 34.2354C25.632 34.2354 27.5402 32.3312 27.5402 29.9822C27.5402 27.6333 25.632 25.7291 23.2782 25.7291C20.9244 25.7291 19.0162 27.6333 19.0162 29.9822C19.0162 32.3312 20.9244 34.2354 23.2782 34.2354Z" fill="#19255B"/>
<path id="Path 44" d="M184.428 55.3883H80.9279V20.7997C73.1598 18.1966 64.8411 17.6839 56.811 19.3132C48.7809 20.9425 41.3234 24.6563 35.1907 30.08L28.0673 36.377C24.5132 39.518 20.8837 42.3885 16.9455 45.289C11.8929 49.0086 6.16258 52.6831 0.71839 54.96C0.467947 55.0667 0.262176 55.2566 0.135934 55.4974C0.00969232 55.7381 -0.029257 56.0151 0.0256831 56.2813C0.0806233 56.5474 0.226075 56.7865 0.437399 56.9579C0.648724 57.1293 0.912922 57.2225 1.18525 57.2218H184.428C184.544 57.2218 184.655 57.1759 184.737 57.0941C184.818 57.0124 184.864 56.9016 184.864 56.786V55.8166C184.864 55.7594 184.853 55.7027 184.831 55.6498C184.809 55.597 184.777 55.5489 184.737 55.5084C184.696 55.468 184.648 55.4359 184.595 55.414C184.542 55.3921 184.485 55.3808 184.428 55.3808V55.3883ZM71.4175 26.706C73.0335 27.5194 74.3897 28.7673 75.333 30.3087C76.2763 31.8502 76.7693 33.624 76.7563 35.4302V55.3883H55.6045V35.9937C55.6045 28.4869 63.4659 22.8061 71.4251 26.706H71.4175ZM46.8246 36.5724C48.1122 37.3175 49.193 38.3717 49.9688 39.6393C50.7446 40.9069 51.191 42.3478 51.2673 43.8312V55.3883H33.3609V44.4023C33.3609 38.0226 40.0626 33.2059 46.8246 36.5724ZM26.8249 45.7549C27.5173 46.2439 28.0893 46.8836 28.4976 47.6256C28.9059 48.3676 29.1399 49.1926 29.1818 50.0381V55.3883H17.3747V50.5941C17.3747 46.2058 22.1864 42.937 26.8249 45.7549Z" fill="#19255B"/>
</g>
</svg>
