<svg width="24" height="24" viewBox="0 0 24 24" fill="none" xmlns="http://www.w3.org/2000/svg">
<g clip-path="url(#clip0_517_13067)">
<path d="M12 3V11.5M12 11.5L9.5 9.5M12 11.5L14.5 9.5" stroke="white" stroke-width="2" stroke-linecap="round" stroke-linejoin="round"/>
<path d="M3 14H6H7.54648C7.96619 14 8.17604 14 8.37881 14.0425C8.44818 14.057 8.51672 14.0752 8.58416 14.097C8.78128 14.1607 8.96348 14.2648 9.32789 14.4731V14.4731C10.4807 15.1318 11.0571 15.4612 11.6817 15.5278C11.8933 15.5504 12.1067 15.5504 12.3183 15.5278C12.9429 15.4612 13.5193 15.1318 14.6721 14.4731V14.4731C15.0365 14.2648 15.2187 14.1607 15.4158 14.097C15.4833 14.0752 15.5518 14.057 15.6212 14.0425C15.824 14 16.0338 14 16.4535 14H18H21V17C21 18.8856 21 19.8284 20.4142 20.4142C19.8284 21 18.8856 21 17 21H7C5.11438 21 4.17157 21 3.58579 20.4142C3 19.8284 3 18.8856 3 17V14Z" stroke="white" stroke-width="2"/>
<path d="M3 14V12.2224C3 11.9735 3 11.8491 3.01508 11.727C3.0329 11.5827 3.06641 11.4407 3.11501 11.3037C3.15613 11.1877 3.21177 11.0765 3.32305 10.8539L4.40424 8.69153C4.68766 8.12468 4.82937 7.84125 5.03233 7.62645C5.27193 7.37286 5.57369 7.18636 5.90766 7.08546C6.19055 7 6.50743 7 7.14118 7H7.5M21 14V12.1494C21 11.9254 21 11.8135 20.9877 11.7032C20.9732 11.5729 20.9459 11.4443 20.9063 11.3193C20.8727 11.2135 20.8272 11.1112 20.7363 10.9066L19.8077 8.81722C19.5378 8.21002 19.4029 7.90643 19.199 7.67574C18.9584 7.40344 18.6482 7.20183 18.3017 7.09257C18.0081 7 17.6759 7 17.0114 7H16.5" stroke="white" stroke-width="2" stroke-linecap="round"/>
</g>
<defs>
<clipPath id="clip0_517_13067">
<rect width="24" height="24" fill="white"/>
</clipPath>
</defs>
</svg>
