<svg width="13" height="14" viewBox="0 0 13 14" fill="none" xmlns="http://www.w3.org/2000/svg">
    <g clip-path="url(#clip0_517_13245)">
        <path
            d="M6.49972 0.548828C2.91035 0.548828 0 3.45918 0 7.04855C0 10.6379 2.91035 13.5488 6.49972 13.5488C10.0891 13.5488 13 10.6379 13 7.04855C13 3.45918 10.0891 0.548828 6.49972 0.548828ZM7.85283 10.6225C7.51826 10.7546 7.25194 10.8547 7.05219 10.9241C6.82814 10.9972 6.59342 11.0324 6.35776 11.0281C5.95276 11.0281 5.63746 10.929 5.41295 10.7315C5.18844 10.5339 5.07674 10.2836 5.07674 9.97926C5.07674 9.86096 5.08499 9.7399 5.1015 9.61664C5.12191 9.47623 5.1489 9.33686 5.18239 9.19899L5.60114 7.71988C5.63801 7.57791 5.66993 7.44309 5.69524 7.31763C5.72055 7.19107 5.73266 7.07497 5.73266 6.96932C5.73266 6.78112 5.69359 6.64906 5.616 6.57478C5.53731 6.50049 5.38929 6.46417 5.16863 6.46417C5.06078 6.46417 4.94963 6.48013 4.83572 6.5137C4.72292 6.54836 4.62497 6.57973 4.54463 6.61054L4.65524 6.15492C4.92927 6.04322 5.19175 5.94747 5.44212 5.86824C5.67107 5.79164 5.91055 5.75116 6.15196 5.74828C6.5542 5.74828 6.86455 5.84622 7.083 6.03992C7.30036 6.23416 7.40986 6.48673 7.40986 6.79708C7.40986 6.86146 7.40216 6.97482 7.3873 7.1366C7.37439 7.28777 7.34637 7.43727 7.30366 7.58286L6.88711 9.05757C6.84978 9.19096 6.81911 9.32612 6.79522 9.46256C6.77254 9.57611 6.7591 9.69131 6.75505 9.80703C6.75505 10.0029 6.79852 10.1366 6.88656 10.2076C6.9735 10.2786 7.12593 10.3144 7.34163 10.3144C7.44343 10.3144 7.55733 10.2962 7.6861 10.261C7.81376 10.2258 7.9062 10.1944 7.96453 10.1675L7.85283 10.6225ZM7.77909 4.63674C7.58969 4.81535 7.33779 4.91255 7.0775 4.90747C6.80457 4.90747 6.56906 4.81723 6.37316 4.63674C6.28001 4.5548 6.20559 4.45375 6.15498 4.34047C6.10437 4.22719 6.07875 4.10434 6.07987 3.98028C6.07987 3.7244 6.17892 3.5043 6.37316 3.32216C6.56297 3.14213 6.81594 3.04391 7.0775 3.04868C7.35098 3.04868 7.5854 3.13947 7.77909 3.32216C7.97333 3.5043 8.07073 3.7244 8.07073 3.98028C8.07073 4.23725 7.97333 4.45626 7.77909 4.63674Z"
            fill="white" />
    </g>
    <defs>
        <clipPath id="clip0_517_13245">
            <rect width="13" height="13" fill="white" transform="translate(0 0.548828)" />
        </clipPath>
    </defs>
</svg>