<svg version="1.1" id="Layer_1" xmlns="http://www.w3.org/2000/svg" xmlns:xlink="http://www.w3.org/1999/xlink" x="0px" y="0px"
	 width="100%" viewBox="0 0 174 169" enable-background="new 0 0 174 169" xml:space="preserve">
<path fill="#000000" opacity="1.000000" stroke="none" 
	d="
M1.000000,67.000000 
	C1.000000,44.666672 1.000000,22.833344 1.000000,1.000012 
	C58.999981,1.000008 116.999962,1.000008 174.999954,1.000004 
	C174.999969,57.333302 174.999969,113.666603 174.999985,169.999939 
	C117.000046,169.999954 59.000092,169.999954 1.000069,169.999969 
	C1.000000,135.833328 1.000000,101.666664 1.000000,67.000000 
M153.964523,136.436996 
	C154.940994,135.127655 155.893356,133.799515 156.897568,132.511810 
	C170.606842,114.932213 174.486664,94.524872 171.598877,73.214775 
	C168.824142,52.738903 158.675034,35.715591 142.170898,22.671928 
	C122.468636,7.100688 100.153625,0.795934 75.486160,4.324285 
	C52.642967,7.591700 33.603928,18.316727 19.619570,37.011627 
	C5.793619,55.494759 0.116119,76.368713 4.361134,99.099777 
	C7.936778,118.246529 17.090235,134.539368 32.570549,147.114990 
	C56.163395,166.280945 82.694000,171.287491 111.632790,163.812607 
	C128.327377,159.500397 142.374557,150.354797 153.964523,136.436996 
z"/>
<path fill="#2E99EF" opacity="1.000000" stroke="none" 
	d="
M153.711304,136.693115 
	C142.374557,150.354797 128.327377,159.500397 111.632790,163.812607 
	C82.694000,171.287491 56.163395,166.280945 32.570549,147.114990 
	C17.090235,134.539368 7.936778,118.246529 4.361134,99.099777 
	C0.116119,76.368713 5.793619,55.494759 19.619570,37.011627 
	C33.603928,18.316727 52.642967,7.591700 75.486160,4.324285 
	C100.153625,0.795934 122.468636,7.100688 142.170898,22.671928 
	C158.675034,35.715591 168.824142,52.738903 171.598877,73.214775 
	C174.486664,94.524872 170.606842,114.932213 156.897568,132.511810 
	C155.893356,133.799515 154.940994,135.127655 153.711304,136.693115 
M141.986404,42.013508 
	C141.986404,42.013508 141.993042,41.977867 141.784454,41.549000 
	C141.584183,41.284237 141.322769,41.112656 140.965790,41.034241 
	C140.965790,41.034241 140.962692,40.999985 140.742706,40.582062 
	C140.545090,40.320831 140.288055,40.147945 139.369507,39.763382 
	C126.899628,26.934708 111.721046,19.384272 93.944366,18.055567 
	C71.397408,16.370308 51.780067,23.373564 36.248089,40.222424 
	C19.530289,58.357639 14.198677,79.425430 20.662651,103.353165 
	C24.157549,116.290253 31.530756,126.786987 41.262928,136.389923 
	C41.460560,136.668381 41.723099,136.856049 42.000000,137.000000 
	C42.000000,137.000000 42.049320,136.951569 42.237648,137.592178 
	C48.470966,142.436615 54.119125,148.443954 61.038197,151.925583 
	C92.137688,167.574554 129.965485,156.661667 150.496170,129.477859 
	C166.586014,108.173996 169.746658,76.620758 153.106583,52.959419 
	C150.431595,49.155708 146.408035,46.300373 142.994568,43.005138 
	C142.994568,43.005138 142.993759,42.991722 142.796158,42.552860 
	C142.602325,42.279839 142.344299,42.097832 141.986404,42.013508 
z"/>
<path fill="#000000" opacity="1.000000" stroke="none" 
	d="
M41.053455,135.945816 
	C31.530756,126.786987 24.157549,116.290253 20.662651,103.353165 
	C14.198677,79.425430 19.530289,58.357639 36.248089,40.222424 
	C51.780067,23.373564 71.397408,16.370308 93.944366,18.055567 
	C111.721046,19.384272 126.899628,26.934708 139.737000,40.156181 
	C140.390564,40.699318 140.676636,40.849651 140.962692,40.999985 
	C140.962692,40.999985 140.965790,41.034241 141.046494,41.280357 
	C141.415817,41.676937 141.704422,41.827400 141.993042,41.977867 
	C141.993042,41.977867 141.986404,42.013508 142.055756,42.262993 
	C142.414658,42.672230 142.704208,42.831978 142.993759,42.991722 
	C142.993759,42.991722 142.994568,43.005138 143.008026,43.363842 
	C144.035538,45.181137 145.084671,46.616734 146.058151,48.101902 
	C155.062912,61.839680 159.388260,76.584396 157.164749,93.240189 
	C155.005859,109.412033 148.105301,123.105499 136.349670,133.963730 
	C125.181335,144.279449 111.778290,150.432968 96.353767,152.284760 
	C80.746208,154.158539 66.355438,151.307220 52.844433,143.506653 
	C49.199509,141.402267 45.645214,139.140884 42.049320,136.951569 
	C42.049320,136.951569 42.000000,137.000000 41.952049,136.730759 
	C41.620548,136.289612 41.337002,136.117722 41.053455,135.945816 
M127.000610,92.000610 
	C127.000610,92.000610 127.008934,92.004913 127.505058,91.863930 
	C127.681374,91.579521 127.857681,91.295113 127.999504,90.996887 
	C127.999504,90.996887 128.022034,91.026024 128.650665,90.805962 
	C130.117310,89.543633 131.583954,88.281311 133.001984,86.996925 
	C133.001984,86.996925 133.019958,87.047180 133.741989,86.958351 
	C136.572006,83.257301 133.227829,82.911011 130.998169,81.997749 
	C130.998169,81.997749 131.048386,81.976677 130.798843,81.348663 
	C128.809433,79.972656 126.820015,78.596642 124.481804,77.056641 
	C124.481804,77.056641 124.100060,77.003517 123.897171,76.513840 
	C123.604889,76.334030 123.312599,76.154221 123.001831,75.999695 
	C123.001831,75.999695 123.024033,75.973129 122.873917,75.435432 
	C122.540009,75.363907 122.206093,75.292389 121.481476,75.081436 
	C121.481476,75.081436 121.070518,75.024849 120.786636,74.458679 
	C120.191971,74.276108 119.597313,74.093529 118.832817,73.454613 
	C118.628937,73.164429 118.349686,73.020935 117.656097,72.436989 
	C116.029655,71.701897 114.403221,70.966805 112.510262,70.094147 
	C112.510262,70.094147 112.210716,70.109093 112.175598,69.945061 
	C112.175598,69.945061 112.007912,69.940445 111.764503,69.380226 
	C111.181282,69.316444 110.598068,69.252663 109.549164,69.039688 
	C109.549164,69.039688 109.064560,68.974258 108.785721,68.412346 
	C108.189621,68.236290 107.593513,68.060226 107.010681,67.978264 
	C107.010681,67.978264 107.104706,67.964470 106.926414,67.462982 
	C106.618355,67.366364 106.310303,67.269753 105.374855,67.034103 
	C104.947136,67.009872 104.519409,66.985641 103.733818,66.370018 
	C102.834251,66.205574 101.934677,66.041130 100.595108,65.231705 
	C97.434883,64.804977 94.274658,64.378242 90.673111,63.276817 
	C88.390129,63.514927 86.107147,63.753036 83.427994,64.028061 
	C83.427994,64.028061 83.052315,64.159149 82.264275,64.018860 
	C80.793831,64.350815 79.323380,64.682762 77.460709,65.030144 
	C77.460709,65.030144 77.092026,65.164879 76.392334,65.030617 
	C75.922592,65.074310 75.452843,65.118011 74.466141,65.101540 
	C74.285576,65.383797 74.105011,65.666054 73.991684,65.939835 
	C73.991684,65.939835 73.971909,65.875023 73.278801,65.978966 
	C72.470985,66.313622 71.663162,66.648270 70.204590,67.259094 
	C59.802505,72.601044 48.614227,76.670593 39.279385,86.407066 
	C49.219204,92.094101 58.611900,97.468102 68.501572,102.946022 
	C68.665565,102.904198 68.829552,102.862373 69.452583,102.964996 
	C69.452583,102.964996 69.931175,103.015396 70.221771,103.572823 
	C70.819168,103.655830 71.416557,103.738838 72.449104,103.969727 
	C72.449104,103.969727 72.905838,104.020813 73.318863,104.674637 
	C75.878113,105.146873 78.437355,105.619118 80.991898,106.025421 
	C80.991898,106.025421 80.928711,106.044823 81.420486,106.755234 
	C85.960754,106.518990 90.501022,106.282753 95.002846,106.003159 
	C95.002846,106.003159 95.003365,106.061089 95.790916,106.001785 
	C97.229057,105.676376 98.667206,105.350967 100.736488,104.982040 
	C101.151909,104.921242 101.567322,104.860443 102.510078,104.868881 
	C102.711380,104.588409 102.912682,104.307945 103.555176,103.960999 
	C103.555176,103.960999 103.972382,103.802841 104.590012,103.925850 
	C105.073654,103.621712 105.557304,103.317574 106.506020,102.933212 
	C106.506020,102.933212 106.950356,102.774185 107.479744,102.854912 
	C107.683014,102.574951 107.886292,102.294983 108.534950,101.962578 
	C108.534950,101.962578 108.958443,101.815010 109.589226,101.943428 
	C110.084351,101.630920 110.579483,101.318405 111.522644,100.932182 
	C111.522644,100.932182 111.952484,100.785881 112.487244,100.878929 
	C112.690132,100.593994 112.893021,100.309052 113.518471,99.952286 
	C113.518471,99.952286 113.913635,99.786255 114.568794,99.787376 
	C115.411331,99.181183 116.253876,98.574997 117.502228,97.893295 
	C117.502228,97.893295 117.865036,97.696449 118.355049,97.750099 
	C118.695831,97.622978 118.893631,97.379738 119.433517,96.896217 
	C119.616867,96.630951 119.800224,96.365685 120.655922,95.972527 
	C121.771881,95.324707 122.887848,94.676880 124.008057,94.015221 
	C124.008057,94.015221 124.020821,94.010345 124.536362,93.869743 
	C124.727287,93.577118 124.918205,93.284485 125.524406,92.928902 
	C125.524406,92.928902 125.910049,92.762505 126.430946,92.830299 
	C126.622200,92.556618 126.813454,92.282936 127.000610,92.000610 
M64.936920,56.470333 
	C63.388069,56.226673 61.839218,55.983013 60.290367,55.739353 
	C60.154758,56.344643 60.019150,56.949932 59.883541,57.555218 
	C62.835922,60.221981 65.788307,62.888741 69.299454,66.060211 
	C70.923981,60.537163 67.178703,59.321285 64.936920,56.470333 
M112.452209,109.984673 
	C110.558464,108.026711 109.579559,103.726906 104.732376,107.810852 
	C107.457390,110.684982 110.070351,113.440926 112.759956,116.277702 
	C116.142342,113.953438 114.815079,112.226448 112.452209,109.984673 
M69.095177,109.369087 
	C69.190361,108.359482 69.285553,107.349876 69.380737,106.340271 
	C68.273735,106.389549 66.843880,106.017845 66.123039,106.570663 
	C64.294693,107.972839 62.596844,109.652878 61.242493,111.510231 
	C60.730267,112.212692 61.305004,113.707748 61.384270,114.841507 
	C62.541359,114.726509 64.036522,115.023338 64.784172,114.409584 
	C66.276680,113.184372 67.359108,111.459618 69.095177,109.369087 
M76.452538,50.114616 
	C75.760590,49.853527 75.068634,49.592438 74.376686,49.331352 
	C74.037315,50.784718 73.004311,52.562382 73.501045,53.624840 
	C74.579300,55.931107 76.439117,57.871967 77.979393,59.962227 
	C78.617249,58.930901 79.976723,57.696072 79.754303,56.907337 
	C79.146919,54.753529 77.872383,52.787857 76.452538,50.114616 
M101.541626,115.130562 
	C100.509285,113.373215 99.476936,111.615868 98.270767,109.562614 
	C94.136818,112.886459 96.940033,115.637627 98.147064,118.091064 
	C98.834869,119.489128 100.619041,120.347809 101.909523,121.449364 
	C102.339729,121.068695 102.769936,120.688026 103.200134,120.307350 
	C102.770576,118.811165 102.341011,117.314972 101.541626,115.130562 
M101.938873,55.302788 
	C102.934685,52.946472 104.320023,50.501945 100.076149,48.735538 
	C98.469719,52.361378 96.968224,55.750362 95.466728,59.139351 
	C96.184692,59.612038 96.902657,60.084728 97.620621,60.557419 
	C98.922653,59.030010 100.224678,57.502602 101.938873,55.302788 
M106.002350,62.682667 
	C106.588470,63.425106 107.200592,64.821915 107.756355,64.799843 
	C110.580078,64.687698 114.875145,58.230339 114.211502,53.626369 
	C111.091354,56.801624 108.574844,59.362583 106.002350,62.682667 
M73.058167,117.849907 
	C73.673920,118.878464 74.289673,119.907013 74.905418,120.935562 
	C76.464172,118.543198 78.253883,116.259621 79.459137,113.700752 
	C79.893791,112.777954 78.924988,111.194115 78.596634,109.911934 
	C78.171005,109.924385 77.745369,109.936836 77.319733,109.949280 
	C76.007576,112.344368 74.695412,114.739449 73.058167,117.849907 
M86.246124,49.344322 
	C86.159492,51.655849 85.762222,54.016472 86.116493,56.258316 
	C86.295235,57.389313 87.835739,58.305099 88.760498,59.318195 
	C89.936256,55.846127 90.198990,53.334240 89.796082,50.934101 
	C89.651878,50.075096 87.899307,49.486084 86.246124,49.344322 
z"/>
<path fill="#267BC0" opacity="1.000000" stroke="none" 
	d="
M42.143486,137.271881 
	C45.645214,139.140884 49.199509,141.402267 52.844433,143.506653 
	C66.355438,151.307220 80.746208,154.158539 96.353767,152.284760 
	C111.778290,150.432968 125.181335,144.279449 136.349670,133.963730 
	C148.105301,123.105499 155.005859,109.412033 157.164749,93.240189 
	C159.388260,76.584396 155.062912,61.839680 146.058151,48.101902 
	C145.084671,46.616734 144.035538,45.181137 143.014694,43.364586 
	C146.408035,46.300373 150.431595,49.155708 153.106583,52.959419 
	C169.746658,76.620758 166.586014,108.173996 150.496170,129.477859 
	C129.965485,156.661667 92.137688,167.574554 61.038197,151.925583 
	C54.119125,148.443954 48.470966,142.436615 42.143486,137.271881 
z"/>
<path fill="#267BC0" opacity="1.000000" stroke="none" 
	d="
M41.158192,136.167877 
	C41.337002,136.117722 41.620548,136.289612 41.977318,136.707230 
	C41.723099,136.856049 41.460560,136.668381 41.158192,136.167877 
z"/>
<path fill="#267BC0" opacity="1.000000" stroke="none" 
	d="
M140.852692,40.791023 
	C140.676636,40.849651 140.390564,40.699318 140.038055,40.306190 
	C140.288055,40.147945 140.545090,40.320831 140.852692,40.791023 
z"/>
<path fill="#267BC0" opacity="1.000000" stroke="none" 
	d="
M141.888748,41.763432 
	C141.704422,41.827400 141.415817,41.676937 141.063690,41.280357 
	C141.322769,41.112656 141.584183,41.284237 141.888748,41.763432 
z"/>
<path fill="#267BC0" opacity="1.000000" stroke="none" 
	d="
M142.894958,42.772293 
	C142.704208,42.831978 142.414658,42.672230 142.073578,42.259666 
	C142.344299,42.097832 142.602325,42.279839 142.894958,42.772293 
z"/>
<path fill="#3298E9" opacity="1.000000" stroke="none" 
	d="
M108.958443,101.815018 
	C108.958443,101.815010 108.534950,101.962578 108.101578,102.081673 
	C107.397903,102.353081 107.158623,102.544220 106.950356,102.774185 
	C106.950356,102.774185 106.506020,102.933212 105.993164,103.002045 
	C104.977661,103.314865 104.475021,103.558853 103.972382,103.802841 
	C103.972382,103.802841 103.555176,103.960999 103.129883,104.097977 
	C102.441757,104.394798 102.201141,104.583023 101.982742,104.799652 
	C101.567322,104.860443 101.151909,104.921242 100.033310,104.992355 
	C97.887871,105.355476 96.445618,105.708282 95.003365,106.061089 
	C95.003365,106.061089 95.002846,106.003159 94.554901,106.010284 
	C89.714211,106.026550 85.321465,106.035690 80.928711,106.044823 
	C80.928711,106.044823 80.991898,106.025421 80.728836,105.791946 
	C77.945793,105.045921 75.425819,104.533371 72.905838,104.020813 
	C72.905838,104.020813 72.449104,103.969727 71.999634,103.731117 
	C71.010498,103.333473 70.470833,103.174438 69.931175,103.015396 
	C69.931175,103.015396 69.452583,102.964996 69.106804,102.819305 
	C68.480553,102.586983 68.228409,102.643150 68.004601,102.842102 
	C58.611900,97.468102 49.219204,92.094101 39.279385,86.407066 
	C48.614227,76.670593 59.802505,72.601044 70.873123,67.111816 
	C72.351746,66.601372 73.161827,66.238197 73.971909,65.875023 
	C73.971909,65.875023 73.991684,65.939835 74.223473,65.964630 
	C74.632248,65.994331 74.809235,65.999252 75.269714,65.960449 
	C76.066139,65.666115 76.579086,65.415497 77.092026,65.164879 
	C77.092026,65.164879 77.460709,65.030144 78.045609,65.035034 
	C80.104446,64.746338 81.578384,64.452744 83.052315,64.159149 
	C83.052315,64.159149 83.427994,64.028061 84.069221,64.023087 
	C86.469101,64.027168 88.227753,64.036240 89.831757,64.360504 
	C87.143501,65.803307 84.609901,66.930916 82.058746,68.044067 
	C82.041199,68.029610 82.057716,68.063705 81.727386,68.071388 
	C80.610550,68.415276 79.824059,68.751488 78.895859,69.371468 
	C77.855141,70.119995 76.956123,70.584747 75.866585,71.175415 
	C75.434593,71.492287 75.231628,71.717896 75.065445,72.023239 
	C75.063736,72.068329 74.973518,72.067001 74.796539,72.189148 
	C74.396606,72.496407 74.212364,72.714264 74.066513,73.015381 
	C74.066185,73.065872 73.965202,73.067322 73.782722,73.206612 
	C73.372528,73.555847 73.182213,73.795494 73.020905,74.033203 
	C73.012520,74.001556 73.058517,74.048233 72.743362,73.938164 
	C71.242004,73.238884 70.055786,72.649673 68.515350,72.043182 
	C62.577076,76.117836 56.993027,80.209778 50.674866,84.839668 
	C57.152981,89.834946 62.568085,94.010536 68.188301,98.352966 
	C69.071465,98.606918 69.749519,98.694038 70.427574,98.781151 
	C69.936440,98.203598 69.445312,97.626038 68.975586,97.030006 
	C68.997002,97.011528 68.948563,97.036407 68.896423,96.752426 
	C68.534248,95.995842 68.224220,95.523239 67.639633,94.929001 
	C67.238152,94.232658 67.111237,93.657959 67.018684,92.789948 
	C67.629387,92.194908 68.535614,91.496132 68.728264,91.656197 
	C69.933022,92.657227 70.978493,93.849976 72.312996,95.056297 
	C72.843048,95.332733 73.011177,95.608665 73.177063,96.156036 
	C73.494896,96.595543 73.728004,96.794998 74.028473,96.948769 
	C74.057167,96.948273 74.052620,97.005486 74.171158,97.191940 
	C74.474915,97.613052 74.699455,97.800621 75.011459,97.943581 
	C75.059608,97.946045 75.056496,98.042412 75.178078,98.226471 
	C75.489120,98.640938 75.715347,98.826546 76.005928,98.964005 
	C76.033516,98.960663 76.030602,99.016174 76.163895,99.202950 
	C76.497337,99.625191 76.729950,99.822350 77.006271,99.982948 
	C77.017525,99.984680 77.019028,100.007408 77.163681,100.198792 
	C77.525307,100.629959 77.776291,100.826256 78.386993,100.998260 
	C79.467911,101.403183 80.223114,101.788918 81.209122,102.335365 
	C81.973984,102.651787 82.508049,102.807487 83.022614,102.982193 
	C83.003120,103.001190 83.003365,102.946762 83.326981,103.162323 
	C86.438194,103.310600 89.225784,103.243301 92.230492,103.103828 
	C92.447601,103.031647 92.901390,102.972702 93.194717,102.910217 
	C93.975677,102.516571 94.463318,102.185410 95.031601,101.614182 
	C95.410759,101.301208 95.709290,101.228294 96.136292,101.214134 
	C96.569839,101.306984 96.805893,101.189850 96.979584,100.953537 
	C96.986259,100.985588 96.930382,100.951447 97.218597,100.897247 
	C98.000488,100.541214 98.494156,100.239388 98.992409,99.967133 
	C98.996986,99.996704 98.940399,99.977257 99.138580,99.840569 
	C99.587814,99.498749 99.797302,99.257523 99.977463,98.984802 
	C99.989708,98.989426 99.980324,98.964951 100.172638,98.827545 
	C100.606506,98.482941 100.802940,98.239349 101.041748,97.717041 
	C101.414642,97.299187 101.700027,97.123680 102.232330,96.780319 
	C102.796669,96.357231 103.114105,96.101997 103.357422,95.897705 
	C103.283318,95.948662 103.181610,95.800316 103.497696,95.621475 
	C104.203156,94.600639 104.592529,93.758644 104.998016,92.584427 
	C105.302940,91.493385 105.591736,90.734566 106.160339,89.983589 
	C106.626740,89.993690 106.813339,89.995941 107.234787,90.119576 
	C107.923187,90.512695 108.376740,90.784416 108.869614,91.397949 
	C108.950943,92.197433 108.992950,92.655098 109.014511,93.430428 
	C108.595032,94.471504 108.195992,95.194916 107.531418,96.003647 
	C106.777718,96.759850 106.289543,97.430733 105.801361,98.101608 
	C106.221291,98.040787 106.641228,97.979965 107.373505,97.955414 
	C108.418755,97.650520 109.151642,97.309364 110.098137,96.838974 
	C110.581017,96.505585 110.801300,96.257866 110.984924,95.982033 
	C110.997253,95.997482 110.969620,95.963089 111.174004,95.867500 
	C111.637703,95.612473 111.864685,95.415733 112.255074,95.104019 
	C112.450821,95.026360 112.868050,94.968803 113.083969,94.826256 
	C113.530891,94.428474 113.761887,94.173241 113.989265,93.949799 
	C113.985649,93.981598 113.930809,93.948593 114.199051,93.972244 
	C114.646690,94.002625 114.826088,94.009354 115.141907,94.322411 
	C115.540833,95.708664 115.803322,96.788597 115.786789,97.983246 
	C114.976387,98.660728 114.445015,99.223495 113.913635,99.786255 
	C113.913635,99.786255 113.518471,99.952286 113.096909,100.082947 
	C112.406609,100.369255 112.165649,100.560013 111.952484,100.785881 
	C111.952484,100.785881 111.522644,100.932182 111.013077,101.005905 
	C109.988495,101.324760 109.473473,101.569885 108.958443,101.815018 
z"/>
<path fill="#289AF5" opacity="1.000000" stroke="none" 
	d="
M116.065819,97.868530 
	C115.803322,96.788597 115.540833,95.708664 115.142426,94.060165 
	C114.992325,93.318001 114.978134,93.144402 114.977158,92.982666 
	C114.990364,92.994514 114.978264,92.962532 115.274445,92.927704 
	C116.044304,92.550972 116.517982,92.209068 117.065430,91.654343 
	C117.318092,91.170700 117.569283,91.022179 118.119629,90.876602 
	C118.558556,90.493401 118.770630,90.229553 118.992218,89.983711 
	C119.001732,90.001717 118.966385,89.981514 119.177605,89.858620 
	C119.652504,89.531273 119.850395,89.275848 119.991913,88.985542 
	C120.001350,89.001648 119.969040,88.982918 120.188080,88.855499 
	C120.602722,88.456833 120.798325,88.185577 121.062119,87.689468 
	C121.312393,87.177757 121.572800,87.020966 122.139297,86.864830 
	C122.578316,86.460915 122.789543,86.186394 123.039246,85.710403 
	C123.077721,85.508934 123.227036,85.126854 123.449654,85.000481 
	C123.110977,84.256073 122.549683,83.638039 121.994041,83.010590 
	C121.999695,83.001167 121.986855,83.015800 121.866119,82.805161 
	C121.541824,82.332161 121.286461,82.137901 120.990250,82.005241 
	C121.001221,81.998756 120.988678,82.020851 120.862198,81.808205 
	C120.524185,81.332130 120.262573,81.135231 119.977005,80.998672 
	C120.003128,80.992485 119.987579,81.043877 119.878235,80.731308 
	C118.841255,79.950493 117.913620,79.482246 116.992989,79.007004 
	C117.000000,79.000000 116.985855,79.013977 116.986649,78.691948 
	C115.311882,77.255150 113.636337,76.140381 111.982056,75.012390 
	C112.003311,74.999176 111.990875,75.047676 111.860291,74.833679 
	C111.467987,74.415588 111.206268,74.211487 110.971375,74.001938 
	C110.998199,73.996483 110.972771,74.044991 110.992477,73.785324 
	C111.015541,73.352089 111.018883,73.178505 111.211525,72.750000 
	C111.670792,71.699738 111.940758,70.904419 112.210716,70.109093 
	C112.210716,70.109093 112.510262,70.094147 112.784637,70.487564 
	C114.704361,71.595367 116.349709,72.309746 117.995056,73.024132 
	C118.349686,73.020935 118.628937,73.164429 119.119263,73.908363 
	C119.960640,74.583031 120.515579,74.803940 121.070518,75.024849 
	C121.070518,75.024849 121.481476,75.081436 121.842369,75.316498 
	C122.442604,75.758797 122.716194,75.899315 123.024033,75.973129 
	C123.024033,75.973129 123.001831,75.999695 123.142670,76.204857 
	C123.555687,76.607849 123.827873,76.805679 124.100060,77.003517 
	C124.100060,77.003517 124.481804,77.056641 124.736160,77.474258 
	C127.009811,79.253471 129.029099,80.615074 131.048386,81.976677 
	C131.048386,81.976677 130.998169,81.997749 131.073181,82.311432 
	C131.772125,84.099136 132.396042,85.573158 133.019958,87.047180 
	C133.019958,87.047180 133.001984,86.996925 132.626266,86.999382 
	C129.404602,86.833847 127.797363,87.967484 128.022034,91.026024 
	C128.022034,91.026024 127.999504,90.996887 127.800201,91.117950 
	C127.329643,91.437187 127.132324,91.692482 127.008934,92.004913 
	C127.008934,92.004913 127.000610,92.000610 126.795265,92.089844 
	C126.328102,92.332535 126.101479,92.527008 125.910049,92.762505 
	C125.910049,92.762505 125.524406,92.928902 125.093918,93.082733 
	C124.449219,93.494484 124.235023,93.752419 124.020821,94.010345 
	C124.020821,94.010345 124.008057,94.015221 123.643822,94.002747 
	C122.180916,94.693649 121.082237,95.397026 119.983566,96.100418 
	C119.800224,96.365685 119.616867,96.630951 118.972267,96.996132 
	C118.224327,97.219345 118.009003,97.419479 117.865036,97.696449 
	C117.865036,97.696449 117.502228,97.893295 117.041595,97.903511 
	C116.409241,97.898659 116.237534,97.883598 116.065819,97.868530 
z"/>
<path fill="#3797E3" opacity="1.000000" stroke="none" 
	d="
M112.193161,70.027077 
	C111.940758,70.904419 111.670792,71.699738 110.862534,72.748306 
	C109.860527,73.008644 109.396812,73.015739 108.650764,72.923233 
	C107.700333,72.648689 107.032219,72.473732 106.364120,72.298782 
	C106.585594,72.835854 106.807068,73.372932 107.090454,74.199112 
	C107.466759,74.977226 107.781136,75.466240 108.363457,76.087494 
	C108.760109,76.792183 108.888824,77.364624 109.010605,78.371986 
	C109.361183,82.238495 109.718697,85.670090 110.070534,89.062210 
	C110.064850,89.022743 110.143982,89.012833 109.922523,89.226448 
	C109.410805,89.978752 109.120544,90.517441 108.830292,91.056137 
	C108.376740,90.784416 107.923187,90.512695 107.238266,89.675148 
	C106.643158,86.067307 106.279419,83.025284 105.945984,79.998749 
	C105.976288,80.014229 105.938232,80.070656 105.929764,79.736206 
	C105.577515,78.600891 105.233742,77.800018 104.941803,77.004532 
	C104.993629,77.009926 104.982597,77.113556 104.831520,76.909164 
	C104.431396,76.476501 104.182358,76.248238 103.963257,76.014084 
	C103.993195,76.008186 103.971062,76.065063 103.868729,75.873283 
	C103.612427,75.434265 103.432312,75.207840 103.141724,74.772614 
	C103.057411,74.543007 102.968369,74.061996 102.827240,73.866058 
	C102.476662,73.422256 102.234039,73.212822 101.720993,72.963394 
	C101.180229,72.692184 101.009399,72.417030 100.815697,71.863449 
	C100.401772,71.457207 100.143433,71.246994 99.657227,71.008324 
	C99.429367,70.979866 99.003670,70.807518 98.839874,70.656479 
	C98.446533,70.314400 98.196114,70.156479 97.685699,69.987625 
	C97.446609,69.943573 96.992287,69.770309 96.837952,69.623100 
	C96.462852,69.293655 96.220169,69.147942 95.711441,68.991745 
	C95.467339,68.944740 94.996414,68.785309 94.827423,68.639282 
	C94.422943,68.308411 94.168625,68.154732 93.442780,68.006432 
	C89.352142,68.006599 85.714226,68.032562 82.076302,68.058525 
	C84.609901,66.930916 87.143501,65.803307 90.113846,64.337120 
	C90.738548,63.982857 90.926491,63.967182 91.114433,63.951511 
	C94.274658,64.378242 97.434883,64.804977 101.067963,65.772125 
	C102.391106,66.528824 103.241402,66.745117 104.091690,66.961411 
	C104.519409,66.985641 104.947136,67.009872 105.856644,67.256378 
	C106.574806,67.670639 106.830231,67.832573 107.104706,67.964470 
	C107.104706,67.964470 107.010681,67.978264 107.221977,68.137589 
	C107.977036,68.522697 108.520798,68.748474 109.064560,68.974258 
	C109.064560,68.974258 109.549164,69.039688 110.005524,69.268036 
	C110.977234,69.644409 111.492569,69.792427 112.007912,69.940445 
	C112.007912,69.940445 112.175598,69.945061 112.193161,70.027077 
z"/>
<path fill="#4195D7" opacity="1.000000" stroke="none" 
	d="
M65.190048,56.735138 
	C67.178703,59.321285 70.923981,60.537163 69.299454,66.060211 
	C65.788307,62.888741 62.835922,60.221981 59.883541,57.555218 
	C60.019150,56.949932 60.154758,56.344643 60.290367,55.739353 
	C61.839218,55.983013 63.388069,56.226673 65.190048,56.735138 
z"/>
<path fill="#4296D6" opacity="1.000000" stroke="none" 
	d="
M112.717346,110.248657 
	C114.815079,112.226448 116.142342,113.953438 112.759956,116.277702 
	C110.070351,113.440926 107.457390,110.684982 104.732376,107.810852 
	C109.579559,103.726906 110.558464,108.026711 112.717346,110.248657 
z"/>
<path fill="#4395D6" opacity="1.000000" stroke="none" 
	d="
M68.853027,109.655128 
	C67.359108,111.459618 66.276680,113.184372 64.784172,114.409584 
	C64.036522,115.023338 62.541359,114.726509 61.384270,114.841507 
	C61.305004,113.707748 60.730267,112.212692 61.242493,111.510231 
	C62.596844,109.652878 64.294693,107.972839 66.123039,106.570663 
	C66.843880,106.017845 68.273735,106.389549 69.380737,106.340271 
	C69.285553,107.349876 69.190361,108.359482 68.853027,109.655128 
z"/>
<path fill="#4094D5" opacity="1.000000" stroke="none" 
	d="
M76.657318,50.431137 
	C77.872383,52.787857 79.146919,54.753529 79.754303,56.907337 
	C79.976723,57.696072 78.617249,58.930901 77.979393,59.962227 
	C76.439117,57.871967 74.579300,55.931107 73.501045,53.624840 
	C73.004311,52.562382 74.037315,50.784718 74.376686,49.331352 
	C75.068634,49.592438 75.760590,49.853527 76.657318,50.431137 
z"/>
<path fill="#3F97DA" opacity="1.000000" stroke="none" 
	d="
M101.726540,115.474670 
	C102.341011,117.314972 102.770576,118.811165 103.200134,120.307350 
	C102.769936,120.688026 102.339729,121.068695 101.909523,121.449364 
	C100.619041,120.347809 98.834869,119.489128 98.147064,118.091064 
	C96.940033,115.637627 94.136818,112.886459 98.270767,109.562614 
	C99.476936,111.615868 100.509285,113.373215 101.726540,115.474670 
z"/>
<path fill="#4496D8" opacity="1.000000" stroke="none" 
	d="
M101.732788,55.638992 
	C100.224678,57.502602 98.922653,59.030010 97.620621,60.557419 
	C96.902657,60.084728 96.184692,59.612038 95.466728,59.139351 
	C96.968224,55.750362 98.469719,52.361378 100.076149,48.735538 
	C104.320023,50.501945 102.934685,52.946472 101.732788,55.638992 
z"/>
<path fill="#4396D6" opacity="1.000000" stroke="none" 
	d="
M106.030342,62.303104 
	C108.574844,59.362583 111.091354,56.801624 114.211502,53.626369 
	C114.875145,58.230339 110.580078,64.687698 107.756355,64.799843 
	C107.200592,64.821915 106.588470,63.425106 106.030342,62.303104 
z"/>
<path fill="#4096D8" opacity="1.000000" stroke="none" 
	d="
M73.220703,117.492218 
	C74.695412,114.739449 76.007576,112.344368 77.319733,109.949280 
	C77.745369,109.936836 78.171005,109.924385 78.596634,109.911934 
	C78.924988,111.194115 79.893791,112.777954 79.459137,113.700752 
	C78.253883,116.259621 76.464172,118.543198 74.905426,120.935562 
	C74.289673,119.907013 73.673920,118.878464 73.220703,117.492218 
z"/>
<path fill="#4793CD" opacity="1.000000" stroke="none" 
	d="
M86.563477,49.059082 
	C87.899307,49.486084 89.651878,50.075096 89.796082,50.934101 
	C90.198990,53.334240 89.936256,55.846127 88.760498,59.318195 
	C87.835739,58.305099 86.295235,57.389313 86.116493,56.258316 
	C85.762222,54.016472 86.159492,51.655849 86.563477,49.059082 
z"/>
<path fill="#3B98E0" opacity="1.000000" stroke="none" 
	d="
M81.174599,106.400024 
	C85.321465,106.035690 89.714211,106.026550 94.574127,106.031967 
	C90.501022,106.282753 85.960754,106.518990 81.174599,106.400024 
z"/>
<path fill="#3E97DD" opacity="1.000000" stroke="none" 
	d="
M128.336349,90.915993 
	C127.797363,87.967484 129.404602,86.833847 132.650574,87.010406 
	C131.583954,88.281311 130.117310,89.543633 128.336349,90.915993 
z"/>
<path fill="#3E97DD" opacity="1.000000" stroke="none" 
	d="
M133.380981,87.002762 
	C132.396042,85.573158 131.772125,84.099136 131.083801,82.286362 
	C133.227829,82.911011 136.572006,83.257301 133.380981,87.002762 
z"/>
<path fill="#3E97DD" opacity="1.000000" stroke="none" 
	d="
M130.923615,81.662674 
	C129.029099,80.615074 127.009811,79.253471 124.910561,77.556259 
	C126.820015,78.596642 128.809433,79.972656 130.923615,81.662674 
z"/>
<path fill="#3B98E0" opacity="1.000000" stroke="none" 
	d="
M73.112350,104.347725 
	C75.425819,104.533371 77.945793,105.045921 80.731186,105.824913 
	C78.437355,105.619118 75.878113,105.146873 73.112350,104.347725 
z"/>
<path fill="#3E97DD" opacity="1.000000" stroke="none" 
	d="
M117.825577,72.730560 
	C116.349709,72.309746 114.704361,71.595367 112.917892,70.556343 
	C114.403221,70.966805 116.029655,71.701897 117.825577,72.730560 
z"/>
<path fill="#4A96D3" opacity="1.000000" stroke="none" 
	d="
M90.893768,63.614166 
	C90.926491,63.967182 90.738548,63.982857 90.268501,64.021927 
	C88.227753,64.036240 86.469101,64.027168 84.267303,64.004623 
	C86.107147,63.753036 88.390129,63.514927 90.893768,63.614166 
z"/>
<path fill="#3E98DC" opacity="1.000000" stroke="none" 
	d="
M120.319748,96.036469 
	C121.082237,95.397026 122.180916,94.693649 123.641701,94.009659 
	C122.887848,94.676880 121.771881,95.324707 120.319748,96.036469 
z"/>
<path fill="#4A96D3" opacity="1.000000" stroke="none" 
	d="
M82.658295,64.089005 
	C81.578384,64.452744 80.104446,64.746338 78.241730,65.027321 
	C79.323380,64.682762 80.793831,64.350815 82.658295,64.089005 
z"/>
<path fill="#3B98E0" opacity="1.000000" stroke="none" 
	d="
M95.397141,106.031433 
	C96.445618,105.708282 97.887871,105.355476 99.717735,105.014114 
	C98.667206,105.350967 97.229057,105.676376 95.397141,106.031433 
z"/>
<path fill="#3E98DC" opacity="1.000000" stroke="none" 
	d="
M115.786789,97.983246 
	C116.237534,97.883598 116.409241,97.898659 116.838684,97.941269 
	C116.253876,98.574997 115.411331,99.181183 114.241211,99.786819 
	C114.445015,99.223495 114.976387,98.660728 115.786789,97.983246 
z"/>
<path fill="#4A96D3" opacity="1.000000" stroke="none" 
	d="
M73.625351,65.926994 
	C73.161827,66.238197 72.351746,66.601372 71.198502,66.973732 
	C71.663162,66.648270 72.470985,66.313622 73.625351,65.926994 
z"/>
<path fill="#3E97DD" opacity="1.000000" stroke="none" 
	d="
M103.912750,66.665710 
	C103.241402,66.745117 102.391106,66.528824 101.287964,66.094620 
	C101.934677,66.041130 102.834251,66.205574 103.912750,66.665710 
z"/>
<path fill="#4A96D3" opacity="1.000000" stroke="none" 
	d="
M76.742180,65.097748 
	C76.579086,65.415497 76.066139,65.666115 75.272034,65.749710 
	C74.990875,65.582695 74.983101,65.161705 74.983101,65.161705 
	C75.452843,65.118011 75.922592,65.074310 76.742180,65.097748 
z"/>
<path fill="#3B98E0" opacity="1.000000" stroke="none" 
	d="
M70.076477,103.294113 
	C70.470833,103.174438 71.010498,103.333473 71.782059,103.657181 
	C71.416557,103.738838 70.819168,103.655830 70.076477,103.294113 
z"/>
<path fill="#3E97DD" opacity="1.000000" stroke="none" 
	d="
M108.925140,68.693298 
	C108.520798,68.748474 107.977036,68.522697 107.215347,68.090546 
	C107.593513,68.060226 108.189621,68.236290 108.925140,68.693298 
z"/>
<path fill="#3E97DD" opacity="1.000000" stroke="none" 
	d="
M111.886208,69.660339 
	C111.492569,69.792427 110.977234,69.644409 110.238373,69.342628 
	C110.598068,69.252663 111.181282,69.316444 111.886208,69.660339 
z"/>
<path fill="#3E97DD" opacity="1.000000" stroke="none" 
	d="
M120.928574,74.741760 
	C120.515579,74.803940 119.960640,74.583031 119.204178,74.136536 
	C119.597313,74.093529 120.191971,74.276108 120.928574,74.741760 
z"/>
<path fill="#3E98DC" opacity="1.000000" stroke="none" 
	d="
M104.281197,103.864349 
	C104.475021,103.558853 104.977661,103.314865 105.760620,103.042160 
	C105.557304,103.317574 105.073654,103.621712 104.281197,103.864349 
z"/>
<path fill="#3E98DC" opacity="1.000000" stroke="none" 
	d="
M109.273834,101.879227 
	C109.473473,101.569885 109.988495,101.324760 110.789062,101.042763 
	C110.579483,101.318405 110.084351,101.630920 109.273834,101.879227 
z"/>
<path fill="#3B98E0" opacity="1.000000" stroke="none" 
	d="
M68.253082,102.894058 
	C68.228409,102.643150 68.480553,102.586983 68.877281,102.747078 
	C68.829552,102.862373 68.665565,102.904198 68.253082,102.894058 
z"/>
<path fill="#3E98DC" opacity="1.000000" stroke="none" 
	d="
M118.110046,97.723274 
	C118.009003,97.419479 118.224327,97.219345 118.729736,97.058212 
	C118.893631,97.379738 118.695831,97.622978 118.110046,97.723274 
z"/>
<path fill="#3B98E0" opacity="1.000000" stroke="none" 
	d="
M102.246414,104.834267 
	C102.201141,104.583023 102.441757,104.394798 102.909286,104.131218 
	C102.912682,104.307945 102.711380,104.588409 102.246414,104.834267 
z"/>
<path fill="#3E98DC" opacity="1.000000" stroke="none" 
	d="
M112.219864,100.832405 
	C112.165649,100.560013 112.406609,100.369255 112.885620,100.118858 
	C112.893021,100.309052 112.690132,100.593994 112.219864,100.832405 
z"/>
<path fill="#3E98DC" opacity="1.000000" stroke="none" 
	d="
M107.215050,102.814545 
	C107.158623,102.544220 107.397903,102.353081 107.878876,102.107895 
	C107.886292,102.294983 107.683014,102.574951 107.215050,102.814545 
z"/>
<path fill="#3E97DD" opacity="1.000000" stroke="none" 
	d="
M122.948975,75.704285 
	C122.716194,75.899315 122.442604,75.758797 122.037720,75.386215 
	C122.206093,75.292389 122.540009,75.363907 122.948975,75.704285 
z"/>
<path fill="#3797E3" opacity="1.000000" stroke="none" 
	d="
M74.724625,65.131622 
	C74.983101,65.161705 74.990875,65.582695 74.988548,65.793442 
	C74.809235,65.999252 74.632248,65.994331 74.189857,65.968864 
	C74.105011,65.666054 74.285576,65.383797 74.724625,65.131622 
z"/>
<path fill="#3E97DD" opacity="1.000000" stroke="none" 
	d="
M107.015564,67.713730 
	C106.830231,67.832573 106.574806,67.670639 106.170341,67.325897 
	C106.310303,67.269753 106.618355,67.366364 107.015564,67.713730 
z"/>
<path fill="#3E97DD" opacity="1.000000" stroke="none" 
	d="
M123.998611,76.758682 
	C123.827873,76.805679 123.555687,76.607849 123.151901,76.192215 
	C123.312599,76.154221 123.604889,76.334030 123.998611,76.758682 
z"/>
<path fill="#3E97DD" opacity="1.000000" stroke="none" 
	d="
M127.256996,91.934418 
	C127.132324,91.692482 127.329643,91.437187 127.817444,91.124863 
	C127.857681,91.295113 127.681374,91.579521 127.256996,91.934418 
z"/>
<path fill="#3E97DD" opacity="1.000000" stroke="none" 
	d="
M126.170502,92.796402 
	C126.101479,92.527008 126.328102,92.332535 126.797318,92.094162 
	C126.813454,92.282936 126.622200,92.556618 126.170502,92.796402 
z"/>
<path fill="#3E98DC" opacity="1.000000" stroke="none" 
	d="
M124.278595,93.940048 
	C124.235023,93.752419 124.449219,93.494484 124.886276,93.114204 
	C124.918205,93.284485 124.727287,93.577118 124.278595,93.940048 
z"/>
<path fill="#000000" opacity="1.000000" stroke="none" 
	d="
M94.996414,68.785309 
	C94.996414,68.785309 95.467339,68.944740 95.795364,69.226181 
	C96.123398,69.507629 96.497536,69.838280 96.497536,69.838280 
	C96.497536,69.838280 96.992287,69.770309 96.992287,69.770309 
	C96.992287,69.770309 97.446609,69.943573 97.779358,70.225197 
	C98.409294,70.607056 98.706482,70.707291 99.003670,70.807518 
	C99.003670,70.807518 99.429367,70.979866 99.764709,71.248566 
	C100.390457,71.698013 100.680870,71.878746 100.971283,72.059486 
	C101.009399,72.417030 101.180229,72.692184 101.803337,73.205399 
	C102.404732,73.704559 102.686554,73.883278 102.968369,74.061996 
	C102.968369,74.061996 103.057411,74.543007 103.107101,75.024734 
	C103.428223,75.692665 103.699638,75.878868 103.971062,76.065063 
	C103.971062,76.065063 103.993195,76.008186 104.047623,76.269875 
	C104.395561,76.725563 104.689079,76.919556 104.982597,77.113556 
	C104.982597,77.113556 104.993629,77.009926 104.983963,77.351105 
	C105.295609,78.485069 105.616920,79.277863 105.938232,80.070656 
	C105.938232,80.070656 105.976288,80.014229 105.979126,80.456711 
	C105.948158,83.924713 105.914345,86.950226 105.880531,89.975746 
	C105.591736,90.734566 105.302940,91.493385 104.694748,92.760529 
	C103.977440,94.112671 103.579521,94.956490 103.181610,95.800316 
	C103.181610,95.800316 103.283318,95.948662 103.020363,95.964622 
	C102.500084,96.303116 102.242752,96.625641 101.985413,96.948174 
	C101.700027,97.123680 101.414642,97.299187 100.799759,97.792587 
	C100.306946,98.395302 100.143639,98.680122 99.980324,98.964951 
	C99.980324,98.964951 99.989708,98.989426 99.727852,99.053375 
	C99.290794,99.403969 99.115593,99.690613 98.940399,99.977257 
	C98.940399,99.977257 98.996986,99.996704 98.680565,100.003769 
	C97.886223,100.324371 97.408302,100.637909 96.930382,100.951447 
	C96.930382,100.951447 96.986259,100.985588 96.735092,100.999939 
	C96.483917,101.014297 96.007812,101.155373 96.007812,101.155373 
	C95.709290,101.228294 95.410759,101.301208 94.727661,101.687088 
	C93.862518,102.324257 93.381950,102.648476 92.901390,102.972702 
	C92.901390,102.972702 92.447601,103.031647 91.784943,103.026962 
	C88.415970,102.997108 85.709671,102.971931 83.003365,102.946762 
	C83.003365,102.946762 83.003120,103.001190 82.876320,102.709366 
	C82.159119,102.336578 81.568710,102.255615 80.978310,102.174652 
	C80.223114,101.788918 79.467911,101.403183 78.285652,100.767204 
	C77.578735,100.347107 77.298882,100.177261 77.019028,100.007408 
	C77.019028,100.007408 77.017525,99.984680 76.943741,99.740128 
	C76.590172,99.335770 76.310387,99.175972 76.030602,99.016174 
	C76.030602,99.016174 76.033516,98.960663 75.942284,98.734283 
	C75.670570,98.208733 75.405716,98.053566 75.056496,98.042412 
	C75.056496,98.042412 75.059608,97.946045 74.960312,97.708138 
	C74.675453,97.169418 74.405991,97.014503 74.052620,97.005486 
	C74.052620,97.005486 74.057167,96.948273 73.971542,96.704193 
	C73.608513,96.293793 73.331093,96.127472 73.053680,95.961151 
	C73.011177,95.608665 72.843048,95.332733 72.244675,94.680923 
	C67.715828,87.246964 69.139214,80.578430 73.058517,74.048233 
	C73.058517,74.048233 73.012520,74.001556 73.253510,73.947243 
	C73.806450,73.706078 73.963348,73.430870 73.965202,73.067322 
	C73.965202,73.067322 74.066185,73.065872 74.296066,72.962402 
	C74.822495,72.678261 74.971687,72.414284 74.973518,72.067001 
	C74.973518,72.067001 75.063736,72.068329 75.306160,71.967674 
	C75.845161,71.673561 76.014671,71.401054 76.057106,71.049500 
	C76.956123,70.584747 77.855141,70.119995 79.234535,69.333908 
	C80.495850,68.696289 81.276779,68.379997 82.057716,68.063705 
	C82.057716,68.063705 82.041199,68.029610 82.058746,68.044067 
	C85.714226,68.032562 89.352142,68.006599 93.541725,68.246338 
	C94.394394,68.603134 94.695404,68.694221 94.996414,68.785309 
M88.366470,73.097023 
	C87.365799,73.520546 85.526451,73.885612 85.492226,74.376503 
	C85.081467,80.268990 80.952217,81.255310 76.025772,81.302948 
	C76.025772,83.003624 76.020378,84.315262 76.026703,85.626839 
	C76.053871,91.264252 79.548775,95.593025 85.112579,96.885796 
	C90.089439,98.042183 95.798241,95.597061 98.194618,91.282654 
	C102.732956,83.111893 98.915123,75.721855 88.366470,73.097023 
z"/>
<path fill="#000000" opacity="1.000000" stroke="none" 
	d="
M66.984329,93.083260 
	C67.111237,93.657959 67.238152,94.232658 67.683395,95.233284 
	C68.317337,96.118279 68.632950,96.577339 68.948563,97.036407 
	C68.948563,97.036407 68.997002,97.011528 68.941132,97.301865 
	C68.584579,97.790169 68.283890,97.988152 67.983192,98.186127 
	C62.568085,94.010536 57.152981,89.834946 50.674866,84.839668 
	C56.993027,80.209778 62.577076,76.117836 68.552719,72.413620 
	C65.362549,79.278984 63.117313,85.885788 66.984329,93.083260 
z"/>
<path fill="#000000" opacity="1.000000" stroke="none" 
	d="
M107.028534,73.910011 
	C106.807068,73.372932 106.585594,72.835854 106.364120,72.298782 
	C107.032219,72.473732 107.700333,72.648689 108.790398,73.198448 
	C109.799164,73.730499 110.385963,73.887741 110.972771,74.044991 
	C110.972771,74.044991 110.998199,73.996483 111.050003,74.257263 
	C111.398163,74.694588 111.694519,74.871132 111.990875,75.047676 
	C111.990875,75.047676 112.003311,74.999176 112.103134,75.321854 
	C113.797256,76.767677 115.391556,77.890831 116.985855,79.013977 
	C116.985855,79.013977 117.000000,79.000000 117.110809,79.309952 
	C118.143608,80.094566 119.065598,80.569221 119.987579,81.043877 
	C119.987579,81.043877 120.003128,80.992485 120.053986,81.251701 
	C120.399452,81.680893 120.694069,81.850876 120.988678,82.020851 
	C120.988678,82.020851 121.001221,81.998756 121.056938,82.257576 
	C121.404053,82.682861 121.695457,82.849327 121.986855,83.015800 
	C121.986855,83.015800 121.999695,83.001167 122.091576,83.304672 
	C122.531319,84.114403 122.879181,84.620628 123.227036,85.126854 
	C123.227036,85.126854 123.077721,85.508934 122.783348,85.804436 
	C122.296486,86.398033 122.103996,86.696129 121.911507,86.994225 
	C121.572800,87.020966 121.312393,87.177757 120.812485,87.780685 
	C120.319458,88.392143 120.144249,88.687531 119.969040,88.982918 
	C119.969040,88.982918 120.001350,89.001648 119.735924,89.049622 
	C119.302460,89.392242 119.134422,89.686874 118.966385,89.981514 
	C118.966385,89.981514 119.001732,90.001717 118.733688,90.057785 
	C118.274696,90.407883 118.083740,90.701920 117.892776,90.995956 
	C117.569283,91.022179 117.318092,91.170700 116.757103,91.706360 
	C115.909424,92.301643 115.443840,92.632088 114.978264,92.962532 
	C114.978264,92.962532 114.990364,92.994514 114.722527,93.038162 
	C114.280060,93.370743 114.105438,93.659668 113.930817,93.948593 
	C113.930809,93.948593 113.985649,93.981598 113.728638,94.033539 
	C113.270432,94.379921 113.069237,94.674362 112.868042,94.968803 
	C112.868050,94.968803 112.450821,95.026360 111.990372,95.070679 
	C111.343163,95.397690 111.156387,95.680389 110.969620,95.963089 
	C110.969620,95.963089 110.997253,95.997482 110.731598,96.055740 
	C110.272141,96.398727 110.078339,96.683472 109.884537,96.968208 
	C109.151642,97.309364 108.418755,97.650520 107.422974,97.674522 
	C107.372368,96.877686 107.584656,96.398003 107.796951,95.918327 
	C108.195992,95.194916 108.595032,94.471504 109.327515,93.227249 
	C109.821960,91.475212 109.982971,90.244019 110.143982,89.012833 
	C110.143982,89.012833 110.064850,89.022743 110.421463,88.846634 
	C110.191223,85.092705 109.604378,81.514893 109.017532,77.937073 
	C108.888824,77.364624 108.760109,76.792183 108.317108,75.780197 
	C107.678055,74.863777 107.353294,74.386894 107.028534,73.910011 
z"/>
<path fill="#3B98E0" opacity="1.000000" stroke="none" 
	d="
M67.018684,92.789948 
	C63.117313,85.885788 65.362549,79.278984 68.906937,72.430908 
	C70.055786,72.649673 71.242004,73.238884 72.743362,73.938164 
	C69.139214,80.578430 67.715828,87.246964 72.008377,94.603882 
	C70.978493,93.849976 69.933022,92.657227 68.728264,91.656197 
	C68.535614,91.496132 67.629387,92.194908 67.018684,92.789948 
z"/>
<path fill="#3E97DD" opacity="1.000000" stroke="none" 
	d="
M106.160339,89.983589 
	C105.914345,86.950226 105.948158,83.924713 105.948822,80.441223 
	C106.279419,83.025284 106.643158,86.067307 107.003418,89.553757 
	C106.813339,89.995941 106.626740,89.993690 106.160339,89.983589 
z"/>
<path fill="#3B98E0" opacity="1.000000" stroke="none" 
	d="
M83.326981,103.162323 
	C85.709671,102.971931 88.415970,102.997108 91.567825,103.099152 
	C89.225784,103.243301 86.438194,103.310600 83.326981,103.162323 
z"/>
<path fill="#3B98E0" opacity="1.000000" stroke="none" 
	d="
M107.531418,96.003647 
	C107.584656,96.398003 107.372368,96.877686 107.110619,97.638252 
	C106.641228,97.979965 106.221291,98.040787 105.801361,98.101608 
	C106.289543,97.430733 106.777718,96.759850 107.531418,96.003647 
z"/>
<path fill="#3B98E0" opacity="1.000000" stroke="none" 
	d="
M68.188301,98.352966 
	C68.283890,97.988152 68.584579,97.790169 68.919724,97.320343 
	C69.445312,97.626038 69.936440,98.203598 70.427574,98.781151 
	C69.749519,98.694038 69.071465,98.606918 68.188301,98.352966 
z"/>
<path fill="#3E97DD" opacity="1.000000" stroke="none" 
	d="
M109.922523,89.226448 
	C109.982971,90.244019 109.821960,91.475212 109.347954,92.909576 
	C108.992950,92.655098 108.950943,92.197433 108.869614,91.397949 
	C109.120544,90.517441 109.410805,89.978752 109.922523,89.226448 
z"/>
<path fill="#3B98E0" opacity="1.000000" stroke="none" 
	d="
M103.497696,95.621475 
	C103.579521,94.956490 103.977440,94.112671 104.678627,93.092751 
	C104.592529,93.758644 104.203156,94.600639 103.497696,95.621475 
z"/>
<path fill="#3797E3" opacity="1.000000" stroke="none" 
	d="
M81.727386,68.071388 
	C81.276779,68.379997 80.495850,68.696289 79.376236,69.050140 
	C79.824059,68.751488 80.610550,68.415276 81.727386,68.071388 
z"/>
<path fill="#3B98E0" opacity="1.000000" stroke="none" 
	d="
M97.218597,100.897240 
	C97.408302,100.637909 97.886223,100.324371 98.675987,99.974197 
	C98.494156,100.239388 98.000488,100.541214 97.218597,100.897240 
z"/>
<path fill="#3B98E0" opacity="1.000000" stroke="none" 
	d="
M68.896423,96.752426 
	C68.632950,96.577339 68.317337,96.118279 67.957962,95.354919 
	C68.224220,95.523239 68.534248,95.995842 68.896423,96.752426 
z"/>
<path fill="#3B98E0" opacity="1.000000" stroke="none" 
	d="
M93.194717,102.910217 
	C93.381950,102.648476 93.862518,102.324257 94.647018,101.927139 
	C94.463318,102.185410 93.975677,102.516571 93.194717,102.910217 
z"/>
<path fill="#3B98E0" opacity="1.000000" stroke="none" 
	d="
M81.209122,102.335358 
	C81.568710,102.255615 82.159119,102.336578 82.895813,102.690369 
	C82.508049,102.807487 81.973984,102.651787 81.209122,102.335358 
z"/>
<path fill="#3B98E0" opacity="1.000000" stroke="none" 
	d="
M76.163895,99.202950 
	C76.310387,99.175972 76.590172,99.335770 76.932487,99.738388 
	C76.729950,99.822350 76.497337,99.625191 76.163895,99.202950 
z"/>
<path fill="#3B98E0" opacity="1.000000" stroke="none" 
	d="
M99.138580,99.840569 
	C99.115593,99.690613 99.290794,99.403969 99.715607,99.048752 
	C99.797302,99.257523 99.587814,99.498749 99.138580,99.840569 
z"/>
<path fill="#3B98E0" opacity="1.000000" stroke="none" 
	d="
M100.172638,98.827545 
	C100.143639,98.680122 100.306946,98.395302 100.712250,98.034927 
	C100.802940,98.239349 100.606506,98.482941 100.172638,98.827545 
z"/>
<path fill="#3B98E0" opacity="1.000000" stroke="none" 
	d="
M75.178078,98.226471 
	C75.405716,98.053566 75.670570,98.208733 75.914696,98.737625 
	C75.715347,98.826546 75.489120,98.640938 75.178078,98.226471 
z"/>
<path fill="#3B98E0" opacity="1.000000" stroke="none" 
	d="
M77.163681,100.198792 
	C77.298882,100.177261 77.578735,100.347107 77.959930,100.748016 
	C77.776291,100.826256 77.525307,100.629959 77.163681,100.198792 
z"/>
<path fill="#3B98E0" opacity="1.000000" stroke="none" 
	d="
M74.171158,97.191940 
	C74.405991,97.014503 74.675453,97.169418 74.912163,97.705673 
	C74.699455,97.800621 74.474915,97.613052 74.171158,97.191940 
z"/>
<path fill="#3B98E0" opacity="1.000000" stroke="none" 
	d="
M96.136292,101.214134 
	C96.007812,101.155373 96.483917,101.014297 96.728416,100.967888 
	C96.805893,101.189850 96.569839,101.306984 96.136292,101.214134 
z"/>
<path fill="#3E98DC" opacity="1.000000" stroke="none" 
	d="
M110.098137,96.838974 
	C110.078339,96.683472 110.272141,96.398727 110.719269,96.040283 
	C110.801300,96.257866 110.581017,96.505585 110.098137,96.838974 
z"/>
<path fill="#3797E3" opacity="1.000000" stroke="none" 
	d="
M75.866585,71.175415 
	C76.014671,71.401054 75.845161,71.673561 75.307877,71.922592 
	C75.231628,71.717896 75.434593,71.492287 75.866585,71.175415 
z"/>
<path fill="#3797E3" opacity="1.000000" stroke="none" 
	d="
M74.796539,72.189148 
	C74.971687,72.414284 74.822495,72.678261 74.296394,72.911903 
	C74.212364,72.714264 74.396606,72.496407 74.796539,72.189148 
z"/>
<path fill="#3797E3" opacity="1.000000" stroke="none" 
	d="
M73.782722,73.206612 
	C73.963348,73.430870 73.806450,73.706078 73.261902,73.978897 
	C73.182213,73.795494 73.372528,73.555847 73.782722,73.206612 
z"/>
<path fill="#3B98E0" opacity="1.000000" stroke="none" 
	d="
M102.232330,96.780319 
	C102.242752,96.625641 102.500084,96.303116 103.094467,95.913666 
	C103.114105,96.101997 102.796669,96.357231 102.232330,96.780319 
z"/>
<path fill="#3E98DC" opacity="1.000000" stroke="none" 
	d="
M114.199051,93.972244 
	C114.105438,93.659668 114.280060,93.370743 114.709320,93.026306 
	C114.978134,93.144402 114.992325,93.318001 115.005997,93.753845 
	C114.826088,94.009354 114.646690,94.002625 114.199051,93.972244 
z"/>
<path fill="#3E98DC" opacity="1.000000" stroke="none" 
	d="
M113.083969,94.826256 
	C113.069237,94.674362 113.270432,94.379921 113.732254,94.001740 
	C113.761887,94.173241 113.530891,94.428474 113.083969,94.826256 
z"/>
<path fill="#3E98DC" opacity="1.000000" stroke="none" 
	d="
M111.174004,95.867500 
	C111.156387,95.680389 111.343163,95.397690 111.794632,95.148331 
	C111.864685,95.415733 111.637703,95.612473 111.174004,95.867500 
z"/>
<path fill="#3B98E0" opacity="1.000000" stroke="none" 
	d="
M73.177063,96.156036 
	C73.331093,96.127472 73.608513,96.293793 73.942856,96.704689 
	C73.728004,96.794998 73.494896,96.595543 73.177063,96.156036 
z"/>
<path fill="#3E97DD" opacity="1.000000" stroke="none" 
	d="
M116.986649,78.691948 
	C115.391556,77.890831 113.797256,76.767677 112.081879,75.335068 
	C113.636337,76.140381 115.311882,77.255150 116.986649,78.691948 
z"/>
<path fill="#3E97DD" opacity="1.000000" stroke="none" 
	d="
M119.878235,80.731308 
	C119.065598,80.569221 118.143608,80.094566 117.103806,79.316956 
	C117.913620,79.482246 118.841255,79.950493 119.878235,80.731308 
z"/>
<path fill="#3E97DD" opacity="1.000000" stroke="none" 
	d="
M123.449654,85.000481 
	C122.879181,84.620628 122.531319,84.114403 122.085922,83.314095 
	C122.549683,83.638039 123.110977,84.256073 123.449654,85.000481 
z"/>
<path fill="#3E98DC" opacity="1.000000" stroke="none" 
	d="
M115.274445,92.927704 
	C115.443840,92.632088 115.909424,92.301643 116.683334,91.919182 
	C116.517982,92.209068 116.044304,92.550972 115.274445,92.927704 
z"/>
<path fill="#3E97DD" opacity="1.000000" stroke="none" 
	d="
M110.992477,73.785324 
	C110.385963,73.887741 109.799164,73.730499 109.072723,73.298042 
	C109.396812,73.015739 109.860527,73.008644 110.673233,73.003242 
	C111.018883,73.178505 111.015541,73.352089 110.992477,73.785324 
z"/>
<path fill="#3E97DD" opacity="1.000000" stroke="none" 
	d="
M111.860291,74.833679 
	C111.694519,74.871132 111.398163,74.694588 111.023178,74.262711 
	C111.206268,74.211487 111.467987,74.415588 111.860291,74.833679 
z"/>
<path fill="#3E97DD" opacity="1.000000" stroke="none" 
	d="
M120.862198,81.808205 
	C120.694069,81.850876 120.399452,81.680893 120.027863,81.257889 
	C120.262573,81.135231 120.524185,81.332130 120.862198,81.808205 
z"/>
<path fill="#3E97DD" opacity="1.000000" stroke="none" 
	d="
M121.866119,82.805161 
	C121.695457,82.849327 121.404053,82.682861 121.045975,82.264061 
	C121.286461,82.137901 121.541824,82.332161 121.866119,82.805161 
z"/>
<path fill="#3E97DD" opacity="1.000000" stroke="none" 
	d="
M122.139297,86.864830 
	C122.103996,86.696129 122.296486,86.398033 122.744873,86.005905 
	C122.789543,86.186394 122.578316,86.460915 122.139297,86.864830 
z"/>
<path fill="#3E97DD" opacity="1.000000" stroke="none" 
	d="
M120.188080,88.855499 
	C120.144249,88.687531 120.319458,88.392143 120.744293,88.005539 
	C120.798325,88.185577 120.602722,88.456833 120.188080,88.855499 
z"/>
<path fill="#3E97DD" opacity="1.000000" stroke="none" 
	d="
M119.177605,89.858620 
	C119.134422,89.686874 119.302460,89.392242 119.726486,89.033524 
	C119.850395,89.275848 119.652504,89.531273 119.177605,89.858620 
z"/>
<path fill="#3E97DD" opacity="1.000000" stroke="none" 
	d="
M118.119629,90.876602 
	C118.083740,90.701920 118.274696,90.407883 118.724182,90.039780 
	C118.770630,90.229553 118.558556,90.493401 118.119629,90.876602 
z"/>
<path fill="#3E97DD" opacity="1.000000" stroke="none" 
	d="
M109.010605,78.371986 
	C109.604378,81.514893 110.191223,85.092705 110.427147,88.886108 
	C109.718697,85.670090 109.361183,82.238495 109.010605,78.371986 
z"/>
<path fill="#3E97DD" opacity="1.000000" stroke="none" 
	d="
M105.929764,79.736206 
	C105.616920,79.277863 105.295609,78.485069 104.932129,77.345711 
	C105.233742,77.800018 105.577515,78.600891 105.929764,79.736206 
z"/>
<path fill="#3E97DD" opacity="1.000000" stroke="none" 
	d="
M107.090454,74.199112 
	C107.353294,74.386894 107.678055,74.863777 108.049164,75.647949 
	C107.781136,75.466240 107.466759,74.977226 107.090454,74.199112 
z"/>
<path fill="#3E97DD" opacity="1.000000" stroke="none" 
	d="
M94.827423,68.639282 
	C94.695404,68.694221 94.394394,68.603134 93.994431,68.272141 
	C94.168625,68.154732 94.422943,68.308411 94.827423,68.639282 
z"/>
<path fill="#3E97DD" opacity="1.000000" stroke="none" 
	d="
M96.837952,69.623100 
	C96.992287,69.770309 96.497536,69.838280 96.497536,69.838280 
	C96.497536,69.838280 96.123398,69.507629 96.039474,69.273193 
	C96.220169,69.147942 96.462852,69.293655 96.837952,69.623100 
z"/>
<path fill="#3E97DD" opacity="1.000000" stroke="none" 
	d="
M98.839874,70.656479 
	C98.706482,70.707291 98.409294,70.607056 98.018448,70.269257 
	C98.196114,70.156479 98.446533,70.314400 98.839874,70.656479 
z"/>
<path fill="#3E97DD" opacity="1.000000" stroke="none" 
	d="
M100.815697,71.863449 
	C100.680870,71.878746 100.390457,71.698013 99.992569,71.277023 
	C100.143433,71.246994 100.401772,71.457207 100.815697,71.863449 
z"/>
<path fill="#3E97DD" opacity="1.000000" stroke="none" 
	d="
M102.827240,73.866058 
	C102.686554,73.883278 102.404732,73.704559 102.040573,73.283836 
	C102.234039,73.212822 102.476662,73.422256 102.827240,73.866058 
z"/>
<path fill="#3E97DD" opacity="1.000000" stroke="none" 
	d="
M103.868729,75.873283 
	C103.699638,75.878868 103.428223,75.692665 103.191422,75.254341 
	C103.432312,75.207840 103.612427,75.434265 103.868729,75.873283 
z"/>
<path fill="#3E97DD" opacity="1.000000" stroke="none" 
	d="
M104.831520,76.909164 
	C104.689079,76.919556 104.395561,76.725563 104.017677,76.275772 
	C104.182358,76.248238 104.431396,76.476501 104.831520,76.909164 
z"/>
<path fill="#3199EC" opacity="1.000000" stroke="none" 
	d="
M88.697739,73.319077 
	C98.915123,75.721855 102.732956,83.111893 98.194618,91.282654 
	C95.798241,95.597061 90.089439,98.042183 85.112579,96.885796 
	C79.548775,95.593025 76.053871,91.264252 76.026703,85.626839 
	C76.020378,84.315262 76.025772,83.003624 76.025772,81.302948 
	C80.952217,81.255310 85.081467,80.268990 85.492226,74.376503 
	C85.526451,73.885612 87.365799,73.520546 88.697739,73.319077 
z"/>
</svg>