<svg width="246" height="119" viewBox="0 0 246 119" fill="none" xmlns="http://www.w3.org/2000/svg">
    <g clip-path="url(#clip0_671_12987)">
    <path d="M1.654 93.9401C2.40042 94.1756 3.1819 94.2805 3.96401 94.2501H13.384V86.8501H11.404V92.4501H7.654V86.9001C7.334 86.8501 6.794 86.8101 6.024 86.7701C5.254 86.7301 4.594 86.7101 4.044 86.7101C3.22835 86.6797 2.41346 86.7879 1.63401 87.0301C1.36334 87.1223 1.11405 87.2681 0.900996 87.4588C0.687946 87.6496 0.51551 87.8812 0.394 88.1401C0.102116 88.8669 -0.0308613 89.6477 0.00400043 90.4301C-0.0371383 91.2472 0.102872 92.0634 0.414004 92.8201C0.536439 93.0823 0.710108 93.3174 0.924784 93.5114C1.13946 93.7055 1.3908 93.8546 1.664 93.9501L1.654 93.9401ZM2.184 89.2401C2.32191 88.9718 2.55851 88.7675 2.844 88.6701C3.25542 88.5461 3.6847 88.4921 4.114 88.5101C4.664 88.5101 5.17401 88.5401 5.67401 88.5801V92.4401H4.074C3.66447 92.4566 3.25516 92.4025 2.864 92.2801C2.71947 92.2293 2.58659 92.15 2.47323 92.0469C2.35987 91.9439 2.26832 91.8191 2.20401 91.6801C2.03906 91.2778 1.96397 90.8444 1.984 90.4101C1.96403 90.0059 2.03582 89.6025 2.194 89.2301L2.184 89.2401Z" fill="#8E1537"/>
    <path d="M12.054 95.4297H10.524V97.2797H12.054V95.4297Z" fill="#8E1537"/>
    <path d="M14.304 95.4297H12.774V97.2797H14.304V95.4297Z" fill="#8E1537"/>
    <path d="M193.844 83.8809H191.864V94.2509H193.844V83.8809Z" fill="#8E1537"/>
    <path d="M202.874 83.6094H201.354V85.4594H202.874V83.6094Z" fill="#8E1537"/>
    <path d="M39.044 95.4297H37.224V97.3497H39.044V95.4297Z" fill="#8E1537"/>
    <path d="M232.984 83.6895H231.464V85.4695H232.984V83.6895Z" fill="#8E1537"/>
    <path d="M145.914 83.6094H144.394V85.4594H145.914V83.6094Z" fill="#8E1537"/>
    <path d="M205.124 83.6094H203.604V85.4594H205.124V83.6094Z" fill="#8E1537"/>
    <path d="M230.744 83.6895H229.214V85.4695H230.744V83.6895Z" fill="#8E1537"/>
    <path d="M49.524 83.8809H47.544V94.2509H49.524V83.8809Z" fill="#8E1537"/>
    <path d="M231.814 81.6406H230.394V83.3006H231.814V81.6406Z" fill="#8E1537"/>
    <path d="M83.944 83.6094H82.414V85.4594H83.944V83.6094Z" fill="#8E1537"/>
    <path d="M154.124 95.4297H152.594V97.2797H154.124V95.4297Z" fill="#8E1537"/>
    <path d="M81.694 83.6094H80.164V85.4594H81.694V83.6094Z" fill="#8E1537"/>
    <path d="M143.724 93.9401C144.47 94.1756 145.252 94.2805 146.034 94.2501H155.454V86.8501H153.474V92.4501H149.724V86.9001C149.404 86.8501 148.864 86.8101 148.094 86.7701C147.324 86.7301 146.664 86.7101 146.114 86.7101C145.298 86.6797 144.483 86.7879 143.704 87.0301C143.433 87.1223 143.184 87.2681 142.971 87.4588C142.758 87.6496 142.586 87.8812 142.464 88.1401C141.947 89.659 141.958 91.3079 142.494 92.8201C142.616 93.0823 142.79 93.3174 143.005 93.5114C143.219 93.7055 143.471 93.8546 143.744 93.9501L143.724 93.9401ZM144.254 89.2401C144.392 88.9718 144.629 88.7675 144.914 88.6701C145.325 88.5461 145.755 88.4921 146.184 88.5101C146.734 88.5101 147.244 88.5401 147.734 88.5801V92.4401H146.134C145.724 92.4566 145.315 92.4025 144.924 92.2801C144.779 92.2293 144.647 92.15 144.533 92.0469C144.42 91.9439 144.328 91.8191 144.264 91.6801C144.103 91.2769 144.031 90.8436 144.054 90.4101C144.034 90.0059 144.106 89.6025 144.264 89.2301L144.254 89.2401Z" fill="#8E1537"/>
    <path d="M156.364 95.4297H154.844V97.2797H156.364V95.4297Z" fill="#8E1537"/>
    <path d="M148.164 83.6094H146.644V85.4594H148.164V83.6094Z" fill="#8E1537"/>
    <path d="M28.364 83.6895H26.834V85.4695H28.364V83.6895Z" fill="#8E1537"/>
    <path d="M29.434 81.6406H28.014V83.3006H29.434V81.6406Z" fill="#8E1537"/>
    <path d="M180.884 83.6094H179.354V85.4594H180.884V83.6094Z" fill="#8E1537"/>
    <path d="M3.85401 83.6094H2.32401V85.4594H3.85401V83.6094Z" fill="#8E1537"/>
    <path d="M6.10401 83.6094H4.57401V85.4594H6.10401V83.6094Z" fill="#8E1537"/>
    <path d="M183.134 83.6094H181.604V85.4594H183.134V83.6094Z" fill="#8E1537"/>
    <path d="M30.614 83.6895H29.084V85.4695H30.614V83.6895Z" fill="#8E1537"/>
    <path d="M43.194 92.4409H39.154V86.8409H37.164V92.4409H33.714V90.1309C33.6988 89.6686 33.6554 89.2078 33.584 88.7509C33.504 88.1009 33.404 87.4609 33.294 86.8309L31.564 86.9008C31.634 87.7308 31.674 88.3609 31.694 88.8009C31.714 89.2409 31.724 89.7709 31.724 90.4109V92.4409H30.614C30.4639 92.4386 30.3153 92.4115 30.174 92.3609C30.0505 92.3153 29.9329 92.2548 29.824 92.1809C29.9294 91.7388 29.9798 91.2853 29.974 90.8309V87.5909H27.994V90.8309C28.0111 91.2387 27.9067 91.6425 27.694 91.9909C27.6011 92.1355 27.4719 92.2532 27.3192 92.3322C27.1665 92.4112 26.9957 92.4487 26.824 92.4409H26.144V87.5809H24.164V92.4409H19.454V86.8409H17.474V94.5009C17.4976 94.915 17.404 95.3274 17.204 95.6909C17.1209 95.8265 17.0027 95.9371 16.8619 96.0111C16.721 96.085 16.5628 96.1195 16.404 96.1109L15.904 96.0809V97.8609C16.494 97.9009 16.854 97.9209 16.984 97.9209C17.3486 97.9404 17.7117 97.8616 18.0354 97.6927C18.3591 97.5239 18.6315 97.2711 18.824 96.9609C19.2811 96.1334 19.4992 95.1951 19.454 94.2509H27.514C28.0606 94.27 28.5926 94.0723 28.994 93.7009C29.2152 93.8686 29.4616 94.0003 29.724 94.0909C30.0253 94.1997 30.3436 94.2539 30.664 94.2509H45.174V83.8809H43.194V92.4409Z" fill="#8E1537"/>
    <path d="M189.494 83.8809H187.514V92.4409H184.254V87.0509L183.484 86.9609C182.76 86.8876 182.032 86.8542 181.304 86.8609C180.534 86.8351 179.765 86.9469 179.034 87.1909C178.486 87.387 178.03 87.7788 177.754 88.2908C177.442 88.9523 177.298 89.6804 177.334 90.4109C177.323 91.0991 177.407 91.7855 177.584 92.4509H174.754V90.5408C174.775 89.5855 174.503 88.6468 173.974 87.8509C173.668 87.4511 173.264 87.1358 172.803 86.9346C172.341 86.7335 171.835 86.653 171.334 86.7009C170.76 86.6892 170.19 86.8018 169.664 87.0309C169.198 87.2396 168.769 87.5234 168.394 87.8708C167.964 88.2958 167.559 88.7467 167.184 89.2209V83.8909H165.204V92.4509H161.514V86.8509H159.534V94.5108C159.558 94.925 159.464 95.3374 159.264 95.7009C159.181 95.8365 159.063 95.9471 158.922 96.0211C158.781 96.095 158.623 96.1295 158.464 96.1208L157.964 96.0909V97.8708C158.554 97.9108 158.914 97.9309 159.044 97.9309C159.409 97.9504 159.772 97.8716 160.095 97.7028C160.419 97.5339 160.691 97.2811 160.884 96.9709C161.341 96.1434 161.559 95.2051 161.514 94.2608H189.484V83.8909L189.494 83.8809ZM172.774 92.4409H167.194V92.3109C167.299 91.8706 167.479 91.4513 167.724 91.0709C168.086 90.416 168.544 89.8194 169.084 89.3009C169.318 89.0542 169.598 88.8564 169.909 88.719C170.219 88.5817 170.554 88.5075 170.894 88.5009C171.165 88.4901 171.434 88.5487 171.675 88.6713C171.917 88.7938 172.123 88.9761 172.274 89.2009C172.619 89.7068 172.794 90.309 172.774 90.9209V92.4509V92.4409ZM182.264 92.4409H179.624C179.534 92.1609 179.464 91.9109 179.414 91.6809C179.36 91.3807 179.337 91.0758 179.344 90.7709C179.323 90.3151 179.377 89.8591 179.504 89.4209C179.548 89.2851 179.619 89.1599 179.714 89.0532C179.809 88.9464 179.924 88.8605 180.054 88.8009C180.434 88.6609 180.839 88.5997 181.244 88.6208C181.494 88.6208 181.834 88.6309 182.264 88.6609V92.4409Z" fill="#8E1537"/>
    <path d="M215.734 87.7001C215.489 87.4769 215.202 87.3052 214.889 87.1953C214.576 87.0853 214.245 87.0394 213.914 87.0601H210.984L211.254 86.5401C211.686 85.7166 212.17 84.9217 212.704 84.1601L211.234 83.3301C210.934 83.6601 210.624 84.0401 210.284 84.4901C209.979 84.888 209.711 85.3131 209.484 85.7601L208.594 87.4901L209.614 88.8701H213.584C213.758 88.8741 213.929 88.9209 214.08 89.0063C214.232 89.0918 214.36 89.2133 214.454 89.3601C214.706 89.7306 214.832 90.1723 214.814 90.6201V92.4401H206.684V86.8901C206.364 86.8401 205.824 86.8001 205.054 86.7601C204.284 86.7201 203.624 86.7001 203.074 86.7001C202.258 86.6697 201.443 86.7779 200.664 87.0201C200.393 87.1123 200.144 87.2581 199.931 87.4488C199.718 87.6396 199.546 87.8712 199.424 88.1301C198.907 89.649 198.918 91.2979 199.454 92.8101C199.576 93.0723 199.75 93.3074 199.965 93.5014C200.179 93.6955 200.431 93.8446 200.704 93.9401C201.45 94.1756 202.232 94.2805 203.014 94.2501H216.814V90.6401C216.808 90.1332 216.737 89.6292 216.604 89.1401C216.451 88.5941 216.158 88.0976 215.754 87.7001H215.734ZM204.704 92.4401H203.104C202.694 92.4566 202.285 92.4025 201.894 92.2801C201.749 92.2293 201.617 92.15 201.503 92.0469C201.39 91.9439 201.298 91.8191 201.234 91.6801C201.073 91.2769 201.002 90.8436 201.024 90.4101C201.004 90.0059 201.076 89.6025 201.234 89.2301C201.372 88.9618 201.609 88.7575 201.894 88.6601C202.305 88.5361 202.735 88.4821 203.164 88.5001C203.714 88.5001 204.224 88.5301 204.714 88.5701V92.4301L204.704 92.4401Z" fill="#8E1537"/>
    <path d="M94.664 83.8809H92.684V94.2509H94.664V83.8809Z" fill="#8E1537"/>
    <path d="M135.044 92.4406H131.694V89.1406C131.723 88.8031 131.681 88.4634 131.57 88.1431C131.46 87.8228 131.284 87.529 131.054 87.2806C130.477 86.8415 129.756 86.6346 129.034 86.7006C128.415 86.7108 127.797 86.7576 127.184 86.8406C126.553 86.9137 125.928 87.0307 125.314 87.1906L125.374 88.5106L126.134 88.4806C126.801 88.4506 127.591 88.4206 128.504 88.3906C128.674 88.3738 128.847 88.3936 129.009 88.4488C129.171 88.504 129.319 88.5933 129.444 88.7106C129.645 88.9885 129.741 89.3287 129.714 89.6706V92.4506H124.134V94.2606H137.034V83.8906H135.054V92.4506L135.044 92.4406Z" fill="#8E1537"/>
    <path d="M124.134 94.2509V92.4409H122.584V83.8809H120.604V92.4409H116.964V86.9209C116.524 86.8209 115.994 86.7409 115.354 86.6609C114.75 86.5914 114.142 86.5547 113.534 86.5509C112.889 86.5283 112.246 86.6372 111.644 86.8708C111.127 87.1242 110.729 87.569 110.534 88.1109C110.235 88.9712 110.102 89.8808 110.144 90.7908C110.144 93.1008 111.164 94.2542 113.204 94.2509H114.924C114.939 94.6353 114.895 95.0197 114.794 95.3909C114.74 95.6205 114.601 95.8209 114.404 95.9509C114.176 96.0699 113.921 96.1252 113.664 96.1109C112.859 96.0694 112.058 95.9793 111.264 95.8409V97.6309C112.116 97.7859 112.978 97.8794 113.844 97.9109C115.684 97.9109 116.704 96.6909 116.924 94.2409H124.154L124.134 94.2509ZM114.964 92.4409H113.734C113.492 92.4747 113.245 92.4455 113.017 92.3562C112.789 92.2668 112.589 92.1204 112.434 91.9309C112.202 91.5489 112.087 91.1074 112.104 90.6609C112.08 90.162 112.152 89.6631 112.314 89.1909C112.417 88.9028 112.624 88.6638 112.894 88.5209C113.209 88.3973 113.546 88.3395 113.884 88.3509C114.245 88.3549 114.606 88.3783 114.964 88.4209V92.4309V92.4409Z" fill="#8E1537"/>
    <path d="M107.824 96.1909C108.16 95.6732 108.338 95.0682 108.334 94.4509V83.8809H106.354V94.2509C106.357 94.5806 106.263 94.904 106.084 95.1809C105.892 95.4793 105.618 95.7156 105.294 95.8609C104.926 96.0355 104.521 96.1212 104.114 96.1109C103.697 96.1191 103.284 96.0337 102.904 95.8609C102.567 95.7101 102.277 95.4718 102.064 95.1709C101.867 94.8898 101.762 94.5542 101.764 94.2109C101.764 93.9509 101.814 93.4209 101.914 92.6109C102.014 91.8009 102.124 91.0209 102.244 90.2709L100.374 90.1709C100.11 91.5752 99.9327 92.9946 99.844 94.4209C99.8401 95.0504 100.032 95.6656 100.394 96.1809C100.788 96.7308 101.319 97.1685 101.934 97.4509C102.637 97.7713 103.402 97.9319 104.174 97.9209C104.927 97.9365 105.674 97.7755 106.354 97.4509C106.945 97.1736 107.447 96.7373 107.804 96.1909H107.824Z" fill="#8E1537"/>
    <path d="M239.164 92.4409H236.104V90.1309C236.089 89.6686 236.045 89.2078 235.974 88.7509C235.894 88.1009 235.794 87.4609 235.684 86.8309L233.954 86.9008C234.024 87.7308 234.064 88.3609 234.084 88.8009C234.104 89.2409 234.114 89.7709 234.114 90.4109V92.4409H233.004C232.854 92.4386 232.705 92.4115 232.564 92.3609C232.44 92.3153 232.323 92.2548 232.214 92.1809C232.319 91.7388 232.37 91.2853 232.364 90.8309V87.5909H230.384V90.8309C230.401 91.2387 230.297 91.6424 230.084 91.9909C229.991 92.1355 229.862 92.2532 229.709 92.3322C229.557 92.4112 229.386 92.4487 229.214 92.4409H228.534V87.5809H226.554V92.4409H221.844V86.8409H219.864V94.5009C219.888 94.915 219.794 95.3274 219.594 95.6909C219.511 95.8265 219.393 95.9371 219.252 96.0111C219.111 96.085 218.953 96.1195 218.794 96.1109L218.294 96.0809V97.8609C218.884 97.9009 219.244 97.9209 219.374 97.9209C219.739 97.9404 220.102 97.8616 220.425 97.6927C220.749 97.5239 221.022 97.2711 221.214 96.9609C221.671 96.1334 221.889 95.1951 221.844 94.2509H229.894C230.441 94.27 230.973 94.0723 231.374 93.7009C231.595 93.8686 231.842 94.0003 232.104 94.0909C232.405 94.1997 232.724 94.2539 233.044 94.2509H241.144V83.8809H239.164V92.4409Z" fill="#8E1537"/>
    <path d="M66.674 94.0497C66.6926 93.5867 66.6072 93.1254 66.424 92.6997C66.2409 92.3369 65.9604 92.0322 65.614 91.8197C65.1176 91.5282 64.5869 91.2998 64.034 91.1397C63.404 90.9397 62.954 90.7897 62.684 90.6897C62.44 90.599 62.2134 90.4671 62.014 90.2997C61.9265 90.2245 61.8568 90.1307 61.8101 90.0252C61.7634 89.9197 61.7408 89.8051 61.744 89.6897C61.744 88.9797 62.284 88.6197 63.354 88.6197C64.3408 88.6486 65.3255 88.7287 66.304 88.8597L66.464 87.2497C65.584 87.0897 64.924 86.9897 64.464 86.9297C64.0258 86.8788 63.5851 86.852 63.144 86.8497C62.2368 86.791 61.3387 87.0607 60.614 87.6097C60.3037 87.8902 60.0614 88.2377 59.9055 88.6258C59.7495 89.014 59.6841 89.4325 59.714 89.8497C59.6975 90.3211 59.8007 90.789 60.014 91.2097C60.2488 91.6091 60.5875 91.9374 60.994 92.1597C61.5734 92.4811 62.1918 92.7265 62.834 92.8897C63.3151 93.0158 63.7811 93.1935 64.224 93.4197C64.3577 93.4992 64.4668 93.6141 64.5392 93.7518C64.6116 93.8895 64.6444 94.0445 64.634 94.1997C64.6864 94.7287 64.552 95.2594 64.254 95.6997C64.0971 95.8506 63.9098 95.9662 63.7045 96.0387C63.4992 96.1111 63.2808 96.1387 63.064 96.1197H58.974C58.5581 96.1275 58.1465 96.0349 57.774 95.8497C57.4449 95.6812 57.1657 95.4296 56.964 95.1197C56.7734 94.8137 56.6729 94.4602 56.674 94.0997C56.674 93.8897 56.704 93.5497 56.754 93.0697C56.804 92.5897 56.874 92.1397 56.934 91.7297L55.084 91.4297C54.984 91.9097 54.894 92.4397 54.814 93.0097C54.7409 93.4664 54.6975 93.9274 54.684 94.3897C54.6628 95.0979 54.897 95.79 55.344 96.3397C55.7866 96.8737 56.3628 97.2809 57.014 97.5197C57.6611 97.7718 58.3496 97.9007 59.044 97.8997H63.174C63.6416 97.9281 64.1101 97.8603 64.5505 97.7003C64.9908 97.5403 65.3936 97.2917 65.734 96.9697C66.4132 96.1516 66.7437 95.0992 66.654 94.0397L66.674 94.0497Z" fill="#8E1537"/>
    <path d="M245.494 83.8809H243.514V94.2509H245.494V83.8809Z" fill="#8E1537"/>
    <path d="M76.824 94.2509H90.314V83.8809H88.334V92.4409H85.074V87.0509L84.304 86.9609C83.5797 86.8876 82.852 86.8542 82.124 86.8609C81.3537 86.8351 80.5851 86.9469 79.854 87.1909C79.3045 87.3841 78.8477 87.7767 78.574 88.2908C78.262 88.9523 78.1178 89.6804 78.154 90.4109C78.1433 91.0991 78.2275 91.7855 78.404 92.4509H74.994V86.9309C74.564 86.8309 74.024 86.7509 73.384 86.6709C72.7798 86.6014 72.1722 86.5647 71.564 86.5609C70.9188 86.5383 70.2758 86.6472 69.674 86.8809C69.1569 87.1342 68.7587 87.5789 68.564 88.1208C68.2645 88.9812 68.1321 89.8908 68.174 90.8009C68.174 93.1109 69.194 94.2642 71.234 94.2608H72.954C72.9688 94.6452 72.925 95.0297 72.824 95.4008C72.7704 95.6305 72.6308 95.8309 72.434 95.9609C72.2063 96.0799 71.9506 96.1352 71.694 96.1208C70.8893 96.0794 70.0878 95.9893 69.294 95.8509V97.6409C70.1462 97.7959 71.0084 97.8894 71.874 97.9209C73.714 97.9209 74.734 96.7009 74.954 94.2509H76.824ZM80.324 89.4209C80.366 89.2842 80.4369 89.1581 80.5318 89.0512C80.6266 88.9442 80.7433 88.8589 80.874 88.8009C81.2544 88.6609 81.6592 88.5997 82.064 88.6208C82.314 88.6208 82.654 88.6309 83.084 88.6609V92.4409H80.444C80.354 92.1609 80.284 91.9109 80.234 91.6809C80.1801 91.3807 80.1567 91.0758 80.164 90.7709C80.1434 90.3151 80.1974 89.8591 80.324 89.4209ZM73.014 92.4409H71.784C71.5417 92.4747 71.2949 92.4455 71.0672 92.3562C70.8395 92.2668 70.6386 92.1204 70.484 91.9309C70.2521 91.5489 70.1374 91.1074 70.154 90.6609C70.1303 90.162 70.2016 89.6631 70.364 89.1909C70.4667 88.9028 70.6736 88.6638 70.944 88.5209C71.259 88.3973 71.5959 88.3395 71.934 88.3509C72.295 88.3549 72.6555 88.3783 73.014 88.4209V92.4309V92.4409Z" fill="#8E1537"/>
    <path d="M178.824 114.11C178.725 114.125 178.624 114.109 178.533 114.067C178.442 114.024 178.366 113.956 178.314 113.87C178.213 113.513 178.179 113.14 178.214 112.77V108.83H179.594V107.5H178.204V104.73L176.514 105.73V107.52H175.544V108.85H176.514V112.89C176.471 113.551 176.559 114.214 176.774 114.84C177.014 115.32 177.604 115.56 178.534 115.56C178.955 115.559 179.374 115.492 179.774 115.36L179.574 113.96C179.334 114.053 179.081 114.103 178.824 114.11Z" fill="#8E1537"/>
    <path d="M237.174 107.33C236.649 107.306 236.124 107.396 235.637 107.594C235.15 107.793 234.712 108.095 234.354 108.48C233.612 109.33 233.229 110.434 233.284 111.56C233.26 112.094 233.342 112.626 233.525 113.128C233.709 113.629 233.991 114.089 234.354 114.48C234.722 114.849 235.163 115.137 235.648 115.327C236.134 115.516 236.653 115.602 237.174 115.58C237.696 115.602 238.216 115.512 238.701 115.317C239.185 115.123 239.623 114.827 239.984 114.45C240.68 113.608 241.062 112.55 241.064 111.457C241.066 110.364 240.688 109.305 239.994 108.46C239.629 108.085 239.19 107.79 238.704 107.596C238.218 107.401 237.697 107.31 237.174 107.33ZM238.734 113.47C238.553 113.711 238.317 113.905 238.046 114.035C237.774 114.166 237.475 114.229 237.174 114.22C235.744 114.22 235.024 113.3 235.024 111.46C235.024 109.62 235.744 108.7 237.174 108.7C238.604 108.7 239.324 109.63 239.324 111.49C239.359 112.195 239.15 112.89 238.734 113.46V113.47Z" fill="#8E1537"/>
    <path d="M170.504 111.34C170.553 112.034 170.448 112.731 170.194 113.38C170.041 113.662 169.809 113.894 169.527 114.048C169.245 114.203 168.925 114.273 168.604 114.25C167.614 114.25 167.114 113.5 167.114 112V107.52H165.404V112.47C165.366 113.164 165.496 113.857 165.784 114.49C166.026 114.865 166.367 115.166 166.769 115.36C167.171 115.555 167.62 115.634 168.064 115.59C168.571 115.608 169.074 115.496 169.524 115.263C169.974 115.03 170.357 114.684 170.634 114.26L170.654 115.43H172.194V107.52H170.504V111.34Z" fill="#8E1537"/>
    <path d="M184.074 107.51H182.384V115.42H184.074V107.51Z" fill="#8E1537"/>
    <path d="M184.074 104.49H182.384V106.21H184.074V104.49Z" fill="#8E1537"/>
    <path d="M55.814 113.06L53.204 104.49H50.284V115.42H51.994V105.86L54.924 115.42H56.604L59.554 105.86V115.42H61.294V104.49H58.474L55.814 113.06Z" fill="#8E1537"/>
    <path d="M202.984 108.46C202.748 108.077 202.409 107.768 202.006 107.569C201.603 107.369 201.152 107.286 200.704 107.33C200.197 107.312 199.694 107.423 199.241 107.652C198.788 107.881 198.401 108.221 198.114 108.64V107.51H196.554V115.42H198.244V111.45C198.205 110.809 198.318 110.168 198.574 109.58C198.724 109.293 198.955 109.057 199.237 108.899C199.519 108.741 199.841 108.668 200.164 108.69C201.174 108.69 201.674 109.45 201.674 110.97V115.42H203.364V110.81C203.373 110.299 203.357 109.788 203.314 109.28C203.247 108.991 203.135 108.715 202.984 108.46Z" fill="#8E1537"/>
    <path d="M226.074 114.07C223.984 114.07 222.941 112.68 222.944 109.9C222.944 107.12 224.014 105.85 226.144 105.85C226.762 105.817 227.372 106.008 227.861 106.388C228.349 106.769 228.684 107.313 228.804 107.92L230.574 107.49C230.466 107.078 230.305 106.681 230.094 106.31C229.7 105.647 229.129 105.107 228.446 104.751C227.762 104.394 226.993 104.234 226.224 104.29C225.527 104.256 224.83 104.376 224.184 104.64C223.538 104.904 222.958 105.307 222.484 105.82C221.507 106.964 221.006 108.438 221.084 109.94C221.005 111.443 221.486 112.922 222.434 114.09C222.904 114.598 223.48 114.996 224.121 115.257C224.762 115.518 225.453 115.635 226.144 115.6C227.208 115.666 228.26 115.337 229.097 114.676C229.935 114.016 230.499 113.071 230.684 112.02L228.914 111.49C228.534 113.21 227.584 114.07 226.074 114.07Z" fill="#8E1537"/>
    <path d="M190.304 107.33C189.779 107.306 189.254 107.396 188.767 107.594C188.28 107.793 187.842 108.095 187.484 108.48C186.742 109.33 186.358 110.434 186.414 111.56C186.39 112.094 186.472 112.626 186.655 113.128C186.839 113.629 187.121 114.089 187.484 114.48C187.852 114.849 188.293 115.137 188.778 115.327C189.264 115.516 189.783 115.602 190.304 115.58C190.826 115.602 191.346 115.512 191.831 115.317C192.315 115.123 192.752 114.827 193.114 114.45C193.81 113.608 194.192 112.55 194.194 111.457C194.196 110.364 193.817 109.305 193.124 108.46C192.759 108.085 192.32 107.79 191.834 107.596C191.348 107.401 190.827 107.31 190.304 107.33ZM191.864 113.47C191.683 113.711 191.447 113.905 191.175 114.035C190.904 114.166 190.605 114.229 190.304 114.22C188.874 114.22 188.154 113.3 188.154 111.46C188.154 109.62 188.874 108.7 190.304 108.7C191.734 108.7 192.454 109.63 192.454 111.49C192.489 112.195 192.28 112.89 191.864 113.46V113.47Z" fill="#8E1537"/>
    <path d="M162.074 104.49H160.364V115.42H162.074V104.49Z" fill="#8E1537"/>
    <path d="M245.214 113.631H243.424V115.421H245.214V113.631Z" fill="#8E1537"/>
    <path d="M210.414 110.52C209.904 110.431 209.409 110.269 208.944 110.04C208.833 109.99 208.739 109.911 208.671 109.81C208.604 109.709 208.567 109.591 208.564 109.47C208.564 108.91 209.074 108.63 210.084 108.63C211.094 108.63 211.614 109.01 211.744 109.76L213.364 109.5C213.094 108.06 211.944 107.33 209.914 107.33C209.143 107.295 208.383 107.528 207.764 107.99C207.502 108.185 207.29 108.44 207.147 108.734C207.005 109.028 206.935 109.353 206.944 109.68C206.927 109.98 206.984 110.28 207.11 110.554C207.235 110.827 207.425 111.066 207.664 111.25C208.646 111.807 209.72 112.186 210.834 112.37C211.564 112.52 211.934 112.81 211.934 113.22C211.934 113.94 211.364 114.3 210.224 114.3C210.006 114.328 209.785 114.313 209.573 114.255C209.361 114.196 209.163 114.096 208.991 113.96C208.818 113.824 208.675 113.655 208.569 113.462C208.463 113.27 208.397 113.058 208.374 112.84L206.684 113.1C207.014 114.75 208.207 115.576 210.264 115.58C211.14 115.621 212.005 115.371 212.724 114.87C213.023 114.655 213.264 114.37 213.428 114.041C213.592 113.712 213.673 113.347 213.664 112.98C213.675 112.685 213.616 112.392 213.493 112.125C213.37 111.857 213.185 111.623 212.954 111.44C212.181 110.958 211.316 110.641 210.414 110.51V110.52Z" fill="#8E1537"/>
    <path d="M20.364 110.34C20.4127 109.711 20.3098 109.08 20.064 108.5C19.614 107.72 18.654 107.34 17.194 107.34C16.4291 107.257 15.6591 107.441 15.0153 107.863C14.3715 108.284 13.8939 108.916 13.664 109.65L15.254 109.95C15.3538 109.544 15.5997 109.189 15.9446 108.953C16.2896 108.717 16.7095 108.616 17.124 108.67C17.3291 108.638 17.5389 108.654 17.7367 108.717C17.9345 108.78 18.1151 108.888 18.2643 109.032C18.4135 109.176 18.5272 109.353 18.5966 109.549C18.6659 109.745 18.689 109.954 18.664 110.16V110.34C17.9423 110.562 17.203 110.723 16.454 110.82C15.9585 110.901 15.4703 111.021 14.994 111.18C14.5372 111.316 14.1376 111.598 13.8559 111.983C13.5743 112.367 13.4261 112.833 13.434 113.31C13.434 114.83 14.334 115.59 16.144 115.59C17.1366 115.586 18.0894 115.199 18.804 114.51C18.8629 114.828 18.9638 115.138 19.104 115.43H20.814C20.4729 114.731 20.3146 113.957 20.354 113.18L20.374 110.34H20.364ZM18.674 112.06C18.7009 112.524 18.6115 112.988 18.414 113.41C18.2287 113.722 17.9603 113.976 17.6389 114.143C17.3175 114.311 16.9557 114.386 16.594 114.36C15.654 114.36 15.184 113.97 15.184 113.2C15.184 112.58 15.724 112.17 16.794 111.99C17.354 111.9 17.744 111.83 17.954 111.78C18.1993 111.721 18.4399 111.644 18.674 111.55V112.08V112.06Z" fill="#8E1537"/>
    <path d="M26.384 114.11C26.2848 114.125 26.1837 114.109 26.0931 114.067C26.0025 114.024 25.9263 113.956 25.874 113.87C25.7729 113.513 25.739 113.14 25.774 112.77V108.83H27.154V107.5H25.754V104.73L24.064 105.73V107.52H23.094V108.85H24.064V112.89C24.0209 113.551 24.1093 114.214 24.324 114.84C24.564 115.32 25.154 115.56 26.074 115.56C26.4985 115.559 26.9202 115.492 27.324 115.36L27.124 113.96C26.8809 114.053 26.6239 114.103 26.364 114.11H26.384Z" fill="#8E1537"/>
    <path d="M80.814 108.46C80.5776 108.077 80.2386 107.768 79.8356 107.569C79.4326 107.369 78.9817 107.286 78.534 107.33C78.0269 107.312 77.5237 107.423 77.0709 107.652C76.6182 107.881 76.2306 108.221 75.944 108.64V107.51H74.384V115.42H76.074V111.45C76.0346 110.809 76.1477 110.168 76.404 109.58C76.5545 109.293 76.7848 109.057 77.067 108.899C77.3493 108.741 77.6713 108.668 77.994 108.69C79.004 108.69 79.504 109.45 79.504 110.97V115.42H81.194V110.81C81.2034 110.299 81.1867 109.788 81.144 109.28C81.0765 108.991 80.9652 108.715 80.814 108.46Z" fill="#8E1537"/>
    <path d="M40.164 108.68V107.52H38.604V115.43H40.294V112.08C40.294 109.99 40.774 108.95 41.724 108.95C42.086 108.958 42.4389 109.065 42.744 109.26L43.304 107.75C42.8764 107.496 42.3912 107.355 41.894 107.34C41.224 107.34 40.654 107.79 40.174 108.68H40.164Z" fill="#8E1537"/>
    <path d="M71.644 110.34C71.6926 109.711 71.5897 109.08 71.344 108.5C70.894 107.72 69.934 107.34 68.474 107.34C67.7091 107.257 66.9391 107.441 66.2953 107.863C65.6515 108.284 65.1739 108.916 64.944 109.65L66.534 109.95C66.6338 109.544 66.8797 109.189 67.2246 108.953C67.5696 108.717 67.9895 108.616 68.404 108.67C68.6091 108.638 68.8188 108.654 69.0167 108.717C69.2145 108.78 69.3951 108.888 69.5443 109.032C69.6935 109.176 69.8072 109.353 69.8766 109.549C69.9459 109.745 69.969 109.954 69.944 110.16V110.34C69.2223 110.562 68.483 110.723 67.734 110.82C67.2385 110.901 66.7503 111.021 66.274 111.18C65.8172 111.316 65.4176 111.598 65.1359 111.983C64.8543 112.367 64.7061 112.833 64.714 113.31C64.714 114.83 65.614 115.59 67.424 115.59C68.4166 115.586 69.3694 115.199 70.084 114.51C70.1429 114.828 70.2437 115.138 70.384 115.43H72.094C71.7529 114.731 71.5946 113.957 71.634 113.18L71.654 110.34H71.644ZM69.954 112.06C69.9809 112.524 69.8915 112.988 69.694 113.41C69.5087 113.722 69.2403 113.976 68.9189 114.143C68.5975 114.311 68.2357 114.386 67.874 114.36C66.934 114.36 66.464 113.97 66.464 113.2C66.464 112.58 67.004 112.17 68.074 111.99C68.634 111.9 69.024 111.83 69.234 111.78C69.4793 111.721 69.7199 111.644 69.954 111.55V112.08V112.06Z" fill="#8E1537"/>
    <path d="M88.464 107.331C87.9939 107.32 87.5289 107.43 87.1126 107.648C86.6963 107.867 86.3424 108.188 86.084 108.581V107.501H84.524V118.441H86.214V114.541C86.4805 114.872 86.8188 115.139 87.2033 115.321C87.5879 115.503 88.0086 115.595 88.434 115.591C88.9026 115.601 89.3671 115.501 89.7895 115.297C90.2118 115.094 90.58 114.794 90.864 114.421C91.5199 113.554 91.8524 112.486 91.804 111.401C91.8595 110.339 91.5331 109.293 90.884 108.451C90.5954 108.092 90.2276 107.805 89.8094 107.613C89.3913 107.42 88.9342 107.327 88.474 107.341L88.464 107.331ZM88.104 114.241C86.794 114.241 86.134 113.351 86.134 111.571C86.134 109.631 86.804 108.671 88.134 108.671C89.464 108.671 90.074 109.591 90.074 111.431C90.074 113.271 89.414 114.251 88.104 114.251V114.241Z" fill="#8E1537"/>
    <path d="M35.864 110.34C35.9127 109.711 35.8098 109.08 35.564 108.5C35.114 107.72 34.154 107.34 32.694 107.34C31.9291 107.257 31.1591 107.441 30.5153 107.863C29.8715 108.284 29.3939 108.916 29.164 109.65L30.754 109.95C30.8538 109.544 31.0997 109.189 31.4446 108.953C31.7896 108.717 32.2095 108.616 32.624 108.67C32.8291 108.638 33.0389 108.654 33.2367 108.717C33.4345 108.78 33.6151 108.888 33.7643 109.032C33.9135 109.176 34.0272 109.353 34.0966 109.549C34.1659 109.745 34.189 109.954 34.164 110.16V110.34C33.4423 110.562 32.703 110.723 31.954 110.82C31.4585 110.901 30.9703 111.021 30.494 111.18C30.0372 111.316 29.6376 111.598 29.3559 111.983C29.0743 112.367 28.9261 112.833 28.934 113.31C28.934 114.83 29.834 115.59 31.644 115.59C32.6366 115.586 33.5894 115.199 34.304 114.51C34.3629 114.828 34.4638 115.138 34.604 115.43H36.314C35.9729 114.731 35.8146 113.957 35.854 113.18L35.874 110.34H35.864ZM34.174 112.06C34.2009 112.524 34.1115 112.988 33.914 113.41C33.7287 113.722 33.4603 113.976 33.1389 114.143C32.8175 114.311 32.4557 114.386 32.094 114.36C31.154 114.36 30.684 113.97 30.684 113.2C30.684 112.58 31.224 112.17 32.294 111.99C32.854 111.9 33.244 111.83 33.454 111.78C33.6993 111.721 33.9399 111.644 34.174 111.55V112.08V112.06Z" fill="#8E1537"/>
    <path d="M128.704 108.68V107.52H127.144V115.43H128.834V112.08C128.834 109.99 129.314 108.95 130.264 108.95C130.626 108.958 130.979 109.065 131.284 109.26L131.844 107.75C131.416 107.496 130.931 107.355 130.434 107.34C129.764 107.34 129.194 107.79 128.714 108.68H128.704Z" fill="#8E1537"/>
    <path d="M10.794 109.961C10.8761 108.453 10.3625 106.973 9.364 105.841C8.33377 104.853 6.96151 104.301 5.534 104.301C4.1065 104.301 2.73423 104.853 1.704 105.841C0.777754 107.014 0.273972 108.466 0.273972 109.961C0.273972 111.456 0.777754 112.907 1.704 114.081C2.19491 114.593 2.78972 114.995 3.44855 115.259C4.10738 115.523 4.81501 115.643 5.524 115.611C6.41532 115.622 7.29754 115.43 8.104 115.051C8.234 115.131 8.314 115.181 8.354 115.211C8.934 115.601 9.334 115.861 9.564 115.981C9.86677 116.135 10.181 116.265 10.504 116.371L11.114 115.121C10.4765 114.872 9.87203 114.546 9.314 114.151C10.3105 112.982 10.8409 111.486 10.804 109.951L10.794 109.961ZM7.854 113.141C7.23645 112.656 6.53466 112.29 5.784 112.061L5.304 113.231C5.80768 113.362 6.28248 113.585 6.704 113.891C6.31665 114.033 5.90671 114.104 5.494 114.101C5.02576 114.121 4.55933 114.031 4.13213 113.838C3.70493 113.645 3.32884 113.355 3.034 112.991C2.44678 112.093 2.13403 111.043 2.13403 109.971C2.13403 108.898 2.44678 107.848 3.034 106.951C3.34303 106.592 3.72961 106.308 4.16448 106.121C4.59935 105.934 5.0711 105.848 5.544 105.871C6.01588 105.849 6.48642 105.937 6.91853 106.127C7.35063 106.318 7.7325 106.607 8.034 106.971C8.68084 107.862 8.99885 108.951 8.934 110.051C8.96834 110.613 8.89056 111.177 8.70515 111.709C8.51975 112.241 8.23043 112.731 7.854 113.151V113.141Z" fill="#8E1537"/>
    <path d="M146.534 109.971C145.609 109.382 144.575 108.984 143.494 108.801C142.791 108.68 142.11 108.454 141.474 108.131C141.31 108.04 141.175 107.907 141.081 107.744C140.988 107.582 140.94 107.398 140.944 107.211C140.944 106.291 141.684 105.831 143.154 105.831C144.624 105.831 145.344 106.451 145.504 107.681L147.274 107.581C147.184 105.381 145.794 104.281 143.104 104.281C142.096 104.231 141.101 104.527 140.284 105.121C139.943 105.376 139.668 105.708 139.482 106.091C139.296 106.474 139.204 106.895 139.214 107.321C139.199 107.728 139.282 108.134 139.456 108.502C139.63 108.871 139.89 109.193 140.214 109.441C141.11 109.997 142.099 110.386 143.134 110.591C143.914 110.725 144.665 110.993 145.354 111.381C145.505 111.492 145.626 111.638 145.707 111.808C145.787 111.977 145.824 112.164 145.814 112.351C145.814 113.491 144.994 114.061 143.354 114.061C143.015 114.105 142.67 114.078 142.342 113.983C142.014 113.888 141.708 113.726 141.446 113.507C141.183 113.288 140.968 113.017 140.814 112.712C140.661 112.406 140.572 112.072 140.554 111.731L138.814 111.891C138.994 114.361 140.497 115.597 143.324 115.601C144.439 115.663 145.542 115.346 146.454 114.701C146.827 114.412 147.126 114.038 147.326 113.61C147.526 113.182 147.621 112.713 147.604 112.241C147.622 111.805 147.534 111.37 147.345 110.976C147.157 110.582 146.875 110.241 146.524 109.981L146.534 109.971Z" fill="#8E1537"/>
    <path d="M121.144 107.33C120.645 107.311 120.147 107.402 119.687 107.598C119.228 107.793 118.817 108.088 118.484 108.46C117.784 109.318 117.428 110.405 117.484 111.51C117.419 112.602 117.785 113.676 118.504 114.5C118.862 114.868 119.294 115.154 119.772 115.34C120.25 115.527 120.762 115.609 121.274 115.58C122.053 115.662 122.835 115.46 123.478 115.012C124.121 114.564 124.581 113.9 124.774 113.14L123.044 112.89C122.959 113.287 122.739 113.643 122.422 113.896C122.105 114.149 121.71 114.285 121.304 114.28C119.984 114.28 119.294 113.49 119.234 111.92H124.834V111.74C124.832 111.697 124.835 111.653 124.844 111.61C124.906 110.477 124.558 109.359 123.864 108.46C123.523 108.082 123.102 107.784 122.631 107.589C122.161 107.393 121.653 107.305 121.144 107.33ZM119.274 110.74C119.434 109.35 120.084 108.66 121.214 108.66C122.344 108.66 123.034 109.36 123.114 110.74H119.274Z" fill="#8E1537"/>
    <path d="M154.114 107.33C153.589 107.306 153.064 107.396 152.577 107.594C152.09 107.793 151.652 108.095 151.294 108.48C150.552 109.33 150.168 110.434 150.224 111.56C150.2 112.094 150.282 112.626 150.465 113.128C150.649 113.629 150.931 114.089 151.294 114.48C151.662 114.849 152.103 115.137 152.588 115.327C153.074 115.516 153.593 115.602 154.114 115.58C154.636 115.602 155.156 115.512 155.641 115.317C156.125 115.123 156.562 114.827 156.924 114.45C157.62 113.608 158.002 112.55 158.004 111.457C158.006 110.364 157.627 109.305 156.934 108.46C156.569 108.085 156.13 107.79 155.644 107.596C155.158 107.401 154.637 107.31 154.114 107.33ZM155.674 113.47C155.493 113.711 155.257 113.905 154.986 114.035C154.714 114.166 154.415 114.229 154.114 114.22C152.684 114.22 151.964 113.3 151.964 111.46C151.964 109.62 152.684 108.7 154.114 108.7C155.544 108.7 156.264 109.63 156.264 111.49C156.299 112.195 156.09 112.89 155.674 113.46V113.47Z" fill="#8E1537"/>
    <path d="M98.544 107.33C98.0186 107.306 97.4942 107.396 97.0072 107.594C96.5202 107.793 96.0823 108.095 95.724 108.48C94.9821 109.33 94.5985 110.434 94.654 111.56C94.6297 112.094 94.7117 112.626 94.8955 113.128C95.0792 113.629 95.3608 114.089 95.724 114.48C96.0921 114.849 96.5329 115.137 97.0184 115.327C97.5038 115.516 98.0234 115.602 98.544 115.58C99.0656 115.601 99.5856 115.511 100.07 115.316C100.554 115.121 100.992 114.826 101.354 114.45C102.05 113.608 102.432 112.55 102.434 111.457C102.436 110.364 102.057 109.305 101.364 108.46C100.999 108.085 100.56 107.79 100.074 107.596C99.5883 107.401 99.067 107.31 98.544 107.33ZM100.104 113.47C99.9231 113.711 99.687 113.905 99.4155 114.035C99.144 114.166 98.8451 114.229 98.544 114.22C97.114 114.22 96.394 113.3 96.394 111.46C96.394 109.62 97.114 108.7 98.544 108.7C99.974 108.7 100.694 109.63 100.694 111.49C100.729 112.195 100.52 112.89 100.104 113.46V113.47Z" fill="#8E1537"/>
    <path d="M113.014 112.37C112.914 112.7 112.834 113 112.764 113.27L111.304 107.51H109.634L108.094 113.27L106.484 107.51H104.794L107.254 115.42H108.964L110.224 110.55L110.404 109.78L111.914 115.42H113.584L116.094 107.51H114.434L113.004 112.37H113.014Z" fill="#8E1537"/>
    <path d="M152.804 69.9108C155.294 69.9081 157.68 68.918 159.441 67.1576C161.201 65.3972 162.191 63.0104 162.194 60.5208V46.8008H156.404V60.5208C156.404 61.4756 156.025 62.3912 155.35 63.0664C154.674 63.7415 153.759 64.1208 152.804 64.1208C151.849 64.1208 150.934 63.7415 150.258 63.0664C149.583 62.3912 149.204 61.4756 149.204 60.5208V46.8008H143.414V60.5208C143.417 63.0104 144.407 65.3972 146.167 67.1576C147.928 68.918 150.314 69.9081 152.804 69.9108Z" fill="white"/>
    <path d="M173.904 65.1807C172.738 65.1383 171.595 64.8447 170.552 64.3201C169.51 63.7954 168.593 63.0521 167.864 62.1407L164.864 65.7007C165.922 67.069 167.291 68.1643 168.859 68.8949C170.426 69.6256 172.146 69.9705 173.874 69.9007C176.135 70.0211 178.363 69.3256 180.154 67.9407C180.917 67.3441 181.531 66.5782 181.948 65.7035C182.364 64.8288 182.572 63.8693 182.554 62.9007C182.554 60.5007 181.314 58.6607 178.874 57.3807C178.274 57.0607 176.514 56.3407 173.634 55.2607C172.354 54.8207 171.714 54.1807 171.714 53.2607C171.714 52.2607 172.714 51.4207 174.194 51.4207C176.08 51.4536 177.877 52.2298 179.194 53.5807L181.994 49.9407C181.01 48.9151 179.821 48.1075 178.505 47.5701C177.189 47.0327 175.775 46.7774 174.354 46.8207C172.225 46.71 170.126 47.3625 168.434 48.6607C167.617 49.3278 166.986 50.1954 166.605 51.1789C166.223 52.1623 166.103 53.228 166.256 54.2717C166.409 55.3155 166.83 56.3017 167.478 57.1341C168.127 57.9664 168.98 58.6164 169.954 59.0207C170.434 59.2607 171.354 59.6607 172.754 60.1807C174.154 60.7007 174.994 61.0207 175.354 61.1807C176.394 61.6607 176.914 62.3007 176.914 63.0607C176.914 64.3007 175.634 65.1807 173.914 65.1807H173.904Z" fill="white"/>
    <path d="M185.904 56.1908V60.5208C185.904 63.0112 186.893 65.3995 188.654 67.1605C190.415 68.9215 192.804 69.9108 195.294 69.9108C197.784 69.9108 200.173 68.9215 201.934 67.1605C203.695 65.3995 204.684 63.0112 204.684 60.5208V56.1908C204.684 53.7004 203.695 51.312 201.934 49.551C200.173 47.7901 197.784 46.8008 195.294 46.8008C192.804 46.8008 190.415 47.7901 188.654 49.551C186.893 51.312 185.904 53.7004 185.904 56.1908ZM198.894 56.1908V60.5208C198.894 61.4756 198.515 62.3912 197.84 63.0664C197.164 63.7415 196.249 64.1208 195.294 64.1208C194.339 64.1208 193.424 63.7415 192.748 63.0664C192.073 62.3912 191.694 61.4756 191.694 60.5208V56.1908C191.694 55.236 192.073 54.3203 192.748 53.6452C193.424 52.9701 194.339 52.5908 195.294 52.5908C196.249 52.5908 197.164 52.9701 197.84 53.6452C198.515 54.3203 198.894 55.236 198.894 56.1908Z" fill="white"/>
    <path d="M231.054 56.9108V69.9108H236.844V56.9108C236.846 55.7657 237.302 54.6681 238.112 53.8584C238.921 53.0487 240.019 52.5929 241.164 52.5908H245.504V46.8008H241.164C238.484 46.8053 235.915 47.8719 234.02 49.7669C232.125 51.6619 231.059 54.2308 231.054 56.9108Z" fill="white"/>
    <path d="M133.314 59.7999C133.312 60.9449 132.856 62.0425 132.046 62.8522C131.237 63.6619 130.139 64.1177 128.994 64.1198H124.654V69.9099H128.994C131.674 69.9054 134.243 68.8387 136.138 66.9437C138.033 65.0487 139.099 62.4798 139.104 59.7999V39.5898H133.314V59.7999Z" fill="white"/>
    <path d="M207.954 46.8008V60.5208C207.954 63.0112 208.943 65.3995 210.704 67.1605C212.465 68.9215 214.854 69.9108 217.344 69.9108C219.834 69.9108 222.223 68.9215 223.984 67.1605C225.745 65.3995 226.734 63.0112 226.734 60.5208V46.8008H220.944V60.5208C220.944 61.4756 220.565 62.3912 219.89 63.0664C219.214 63.7415 218.299 64.1208 217.344 64.1208C216.389 64.1208 215.474 63.7415 214.798 63.0664C214.123 62.3912 213.744 61.4756 213.744 60.5208V46.8008H207.954Z" fill="white"/>
    <path d="M164.764 21.67H188.294C190.425 21.6679 192.481 20.8772 194.064 19.45C195.646 20.879 197.702 21.6701 199.834 21.6701C201.966 21.6701 204.022 20.879 205.604 19.45C207.186 20.8796 209.242 21.6708 211.374 21.67H242.344L245.684 15.88H242.474C241.934 15.8794 241.406 15.7235 240.952 15.431C240.498 15.1384 240.138 14.7215 239.914 14.23L235.734 5.04C235.05 3.53917 233.95 2.26633 232.563 1.37286C231.177 0.479382 229.563 0.00287415 227.914 0H218.584V5.79H227.914C228.454 5.79197 228.982 5.9484 229.435 6.24078C229.889 6.53317 230.249 6.9493 230.474 7.44L234.314 15.89H211.224C210.853 15.8935 210.485 15.8205 210.144 15.6755C209.802 15.5305 209.494 15.3167 209.239 15.0474C208.984 14.7781 208.787 14.4591 208.66 14.1103C208.534 13.7614 208.481 13.3903 208.504 13.02V0.0100021H202.714V13.01C202.75 13.4859 202.654 13.9625 202.437 14.3876C202.22 14.8127 201.89 15.1699 201.484 15.42C201.045 15.7084 200.536 15.8731 200.011 15.8968C199.486 15.9205 198.964 15.8023 198.501 15.5547C198.037 15.3071 197.649 14.9392 197.377 14.4896C197.105 14.0401 196.959 13.5255 196.954 13V0H191.164V13C191.164 13.7637 190.86 14.4961 190.32 15.0362C189.78 15.5762 189.048 15.8797 188.284 15.88H183.964V0H178.174V15.88H164.874L164.774 9.91C164.774 8.39233 164.428 6.89459 163.764 5.53C162.889 3.81168 161.541 2.37917 159.879 1.40121C158.218 0.423242 156.311 -0.0594445 154.384 0.0100021C151.737 0.156592 149.248 1.31844 147.435 3.25375C145.623 5.18905 144.627 7.74871 144.654 10.4V11.56C144.655 14.2409 145.721 16.8117 147.617 18.7074C149.512 20.6031 152.083 21.6687 154.764 21.67H158.824C158.526 22.5089 157.976 23.2351 157.249 23.7489C156.522 24.2627 155.654 24.5391 154.764 24.54H144.654V30.33H154.764C157.192 30.3269 159.537 29.4501 161.371 27.86C163.206 26.2699 164.406 24.0726 164.754 21.67H164.764ZM154.774 15.88C153.629 15.8779 152.531 15.4221 151.722 14.6124C150.912 13.8027 150.456 12.7051 150.454 11.56V10.12C150.454 8.97426 150.909 7.87546 151.719 7.0653C152.529 6.25514 153.628 5.8 154.774 5.8C155.92 5.8 157.019 6.25514 157.829 7.0653C158.639 7.87546 159.094 8.97426 159.094 10.12V15.89H154.774V15.88Z" fill="white"/>
    <path d="M138.904 20.2198V0.00976562H133.114V20.2198C133.112 21.3649 132.656 22.4624 131.846 23.2721C131.037 24.0818 129.939 24.5376 128.794 24.5398H124.454V30.3298H128.794C131.474 30.3253 134.043 29.2587 135.938 27.3637C137.833 25.4686 138.899 22.8997 138.904 20.2198Z" fill="white"/>
    <path d="M226.074 23.6036L221.994 27.6836L226.074 31.7636L230.154 27.6836L226.074 23.6036Z" fill="white"/>
    <path d="M87.874 19.4898C93.2533 19.4898 97.614 15.129 97.614 9.74977C97.614 4.37051 93.2533 0.00976562 87.874 0.00976562C82.4947 0.00976562 78.134 4.37051 78.134 9.74977C78.134 15.129 82.4947 19.4898 87.874 19.4898Z" fill="white"/>
    <path d="M61.1805 24.4824C63.9376 21.7253 63.9376 17.2552 61.1805 14.4981C58.4234 11.741 53.9533 11.741 51.1962 14.4981C48.4391 17.2552 48.4391 21.7253 51.1962 24.4824C53.9533 27.2395 58.4234 27.2395 61.1805 24.4824Z" fill="white"/>
    <path d="M30.914 45.5602C34.0399 45.5602 36.574 43.0262 36.574 39.9002C36.574 36.7743 34.0399 34.2402 30.914 34.2402C27.7881 34.2402 25.254 36.7743 25.254 39.9002C25.254 43.0262 27.7881 45.5602 30.914 45.5602Z" fill="white"/>
    <path d="M244.924 73.7099H107.474V27.6799C97.1578 24.2158 86.1104 23.5334 75.4462 25.7017C64.7821 27.87 54.8784 32.8122 46.734 40.0299L37.274 48.4099C32.554 52.5899 27.734 56.4099 22.504 60.2699C15.794 65.2199 8.184 70.1099 0.954004 73.1399C0.62141 73.282 0.348142 73.5346 0.18049 73.8551C0.0128384 74.1755 -0.0388872 74.5441 0.0340745 74.8983C0.107036 75.2525 0.3002 75.5706 0.580843 75.7987C0.861486 76.0268 1.21235 76.1509 1.574 76.1499H244.924C245.078 76.1499 245.225 76.0888 245.334 75.9801C245.443 75.8713 245.504 75.7238 245.504 75.5699V74.2799C245.504 74.2038 245.489 74.1283 245.46 74.058C245.431 73.9876 245.388 73.9237 245.334 73.8698C245.28 73.816 245.216 73.7732 245.146 73.7441C245.076 73.7149 245 73.6999 244.924 73.6999V73.7099ZM94.844 35.5399C96.9901 36.6224 98.791 38.283 100.044 40.3344C101.297 42.3858 101.951 44.7464 101.934 47.1499V73.7099H73.844V47.8999C73.844 37.9099 84.284 30.3499 94.854 35.5399H94.844ZM62.184 48.6699C63.894 49.6615 65.3293 51.0644 66.3596 52.7514C67.3899 54.4383 67.9827 56.3558 68.084 58.3299V73.7099H44.304V59.0899C44.304 50.5999 53.204 44.1899 62.184 48.6699ZM35.624 60.8899C36.5436 61.5407 37.3032 62.392 37.8454 63.3795C38.3876 64.3669 38.6983 65.4648 38.754 66.5899V73.7099H23.074V67.3299C23.074 61.4899 29.464 57.1399 35.624 60.8899Z" fill="white"/>
    </g>
    <defs>
    <clipPath id="clip0_671_12987">
    <rect width="245.684" height="118.44" fill="white"/>
    </clipPath>
    </defs>
    </svg>
    