<svg width="48" height="48" viewBox="0 0 48 48" fill="none" xmlns="http://www.w3.org/2000/svg">
    <path
        d="M4.305 42.8402C3.56228 42.8362 2.85111 42.5394 2.32592 42.0142C1.80073 41.489 1.50394 40.7779 1.5 40.0352V16.9652C1.50396 15.4268 2.11683 13.9526 3.20462 12.8648C4.29241 11.777 5.76664 11.1641 7.305 11.1602H34.68C36.221 11.1602 37.699 11.7713 38.7901 12.8595C39.8811 13.9477 40.496 15.4242 40.5 16.9652V32.3402C40.5 33.8811 39.8889 35.3592 38.8007 36.4502C37.7124 37.5413 36.236 38.1562 34.695 38.1602H11.865C11.6057 38.1623 11.3537 38.2463 11.145 38.4002L6 42.2852C5.50942 42.6477 4.91499 42.8423 4.305 42.8402ZM7.305 14.1602C6.56228 14.1641 5.85111 14.4609 5.32592 14.9861C4.80073 15.5113 4.50394 16.2224 4.5 16.9652V39.6602L9.345 36.0002C10.074 35.4587 10.9569 35.1644 11.865 35.1602H34.68C35.4279 35.1602 36.1452 34.8631 36.674 34.3342C37.2029 33.8053 37.5 33.0881 37.5 32.3402V16.9652C37.4961 16.2224 37.1993 15.5113 36.6741 14.9861C36.1489 14.4609 35.4377 14.1641 34.695 14.1602H7.305Z"
        fill="black" />
    <path
        d="M26.91 26.2949C27.7384 26.2949 28.41 25.6234 28.41 24.7949C28.41 23.9665 27.7384 23.2949 26.91 23.2949C26.0815 23.2949 25.41 23.9665 25.41 24.7949C25.41 25.6234 26.0815 26.2949 26.91 26.2949Z"
        fill="black" />
    <path
        d="M21.09 26.2949C21.9185 26.2949 22.59 25.6234 22.59 24.7949C22.59 23.9665 21.9185 23.2949 21.09 23.2949C20.2616 23.2949 19.59 23.9665 19.59 24.7949C19.59 25.6234 20.2616 26.2949 21.09 26.2949Z"
        fill="black" />
    <path
        d="M15.09 26.2949C15.9185 26.2949 16.59 25.6234 16.59 24.7949C16.59 23.9665 15.9185 23.2949 15.09 23.2949C14.2616 23.2949 13.59 23.9665 13.59 24.7949C13.59 25.6234 14.2616 26.2949 15.09 26.2949Z"
        fill="black" />
    <path
        d="M45 27.6602C44.6022 27.6602 44.2206 27.5021 43.9393 27.2208C43.658 26.9395 43.5 26.558 43.5 26.1602V10.9652C43.4961 10.2224 43.1993 9.51126 42.6741 8.98608C42.1489 8.46089 41.4377 8.1641 40.695 8.16016H10.5C10.1022 8.16016 9.72064 8.00212 9.43934 7.72082C9.15804 7.43951 9 7.05798 9 6.66016C9 6.26233 9.15804 5.8808 9.43934 5.5995C9.72064 5.31819 10.1022 5.16016 10.5 5.16016H40.695C42.2334 5.16412 43.7076 5.77698 44.7954 6.86478C45.8832 7.95257 46.496 9.42679 46.5 10.9652V26.1602C46.5 26.558 46.342 26.9395 46.0607 27.2208C45.7794 27.5021 45.3978 27.6602 45 27.6602Z"
        fill="black" />
</svg>
    