<svg width="28" height="28" viewBox="0 0 28 28" fill="none" xmlns="http://www.w3.org/2000/svg">
    <path
        d="M25.5938 6.42573L19.5751 0.4375H6.32084C5.40269 0.4375 4.64844 1.14067 4.64844 2.05877V10.6228C4.64844 10.6212 4.70438 10.6094 4.74157 10.6094H5.46875V2.05877C5.46875 1.60043 5.8625 1.25781 6.32084 1.25781H19.2043L19.4688 1.50582V4.87419C19.4688 5.78851 20.2123 6.50781 21.1266 6.50781H24.495L24.7188 6.77004V25.8862C24.7188 26.3446 24.4004 26.7422 23.942 26.7422H6.32084C5.8625 26.7422 5.46875 26.3445 5.46875 25.8862V22.5859H4.74157C4.70438 22.5859 4.64844 22.588 4.64844 22.5863V25.8862C4.64844 26.8043 5.40269 27.5625 6.32084 27.5625H23.9421C24.8602 27.5625 25.5938 26.8043 25.5938 25.8862V6.42573ZM21.1266 5.6875C20.6683 5.6875 20.2891 5.33252 20.2891 4.87419V2.40302L23.5978 5.6875H21.1266Z"
        fill="white" />
    <path
        d="M20.4314 11.4297H4.06864C3.15055 11.4297 2.40625 12.174 2.40625 13.0921V20.0485C2.40625 20.9666 3.15055 21.7109 4.06864 21.7109H20.4314C21.3495 21.7109 22.0938 20.9666 22.0938 20.0485V13.0921C22.0938 12.174 21.3495 11.4297 20.4314 11.4297ZM8.97127 19.3047L7.94396 17.6574L6.92743 19.3047H5.31617L7.06442 16.6184L5.42073 14.0547H6.99956L7.95118 15.684L8.86676 14.0547H10.4925L8.8235 16.7302L10.6186 19.3047H8.97127ZM14.6562 19.3047H11.2109V14.0547H12.6328V18.1562H14.6562V19.3047ZM16.8708 15.7261C16.9777 15.8078 17.2679 15.9568 17.7413 16.1731C18.1956 16.3773 18.511 16.5966 18.6876 16.8309C18.8642 17.0652 18.9526 17.3602 18.9526 17.7159C18.9526 18.0427 18.8696 18.3328 18.7038 18.5864C18.538 18.84 18.2989 19.0369 17.9865 19.1775C17.6741 19.3181 17.3076 19.3884 16.8871 19.3884C16.5362 19.3884 16.24 19.3637 16.0022 19.3145C15.7642 19.2653 15.5312 19.1793 15.2578 19.0567V17.7879C15.5284 17.9264 15.813 18.0357 16.1067 18.1141C16.3998 18.1923 16.6699 18.2313 16.915 18.2313C17.1264 18.2313 17.2819 18.1947 17.3805 18.1214C17.4789 18.0481 17.5284 17.9538 17.5284 17.8384C17.5284 17.7663 17.5087 17.7032 17.469 17.6491C17.4294 17.5951 17.3657 17.5405 17.2781 17.4851C17.1904 17.4299 16.9567 17.317 16.577 17.1463C16.2333 16.9901 15.9756 16.8388 15.8039 16.6921C15.632 16.5455 15.5047 16.3773 15.4218 16.1874C15.3389 15.9976 15.2975 15.7729 15.2975 15.5134C15.2975 15.028 15.4741 14.6495 15.8273 14.3779C16.1806 14.1064 16.666 13.9706 17.2836 13.9706C17.8291 13.9706 18.3854 14.0967 18.9526 14.349L18.5164 15.4485C18.0237 15.2226 17.5984 15.1096 17.2403 15.1096C17.0553 15.1096 16.9207 15.142 16.8366 15.2069C16.7525 15.2718 16.7105 15.3523 16.7105 15.4485C16.7104 15.5519 16.7639 15.6444 16.8708 15.7261Z"
        fill="white" />
</svg>
    