<?xml version="1.0" encoding="UTF-8" standalone="no" ?>
<!DOCTYPE svg PUBLIC "-//W3C//DTD SVG 1.1//EN" "http://www.w3.org/Graphics/SVG/1.1/DTD/svg11.dtd">
<svg xmlns="http://www.w3.org/2000/svg" xmlns:xlink="http://www.w3.org/1999/xlink" version="1.1" width="1080"
     height="1080" viewBox="0 0 1080 1080" xml:space="preserve">
<desc>Created with Fabric.js 5.2.4</desc>
    <defs>
</defs>
    <g transform="matrix(1 0 0 1 540 540)" id="1c2964b4-c38d-4b0e-9674-5aa872449736">
</g>
    <g transform="matrix(1 0 0 1 540 540)" id="3000ae9b-86f1-4cdf-919b-931fbe6a4536">
<rect
    style="stroke: none; stroke-width: 1; stroke-dasharray: none; stroke-linecap: butt; stroke-dashoffset: 0; stroke-linejoin: miter; stroke-miterlimit: 4; fill: rgb(255,255,255); fill-rule: nonzero; opacity: 1; visibility: hidden;"
    vector-effect="non-scaling-stroke" x="-540" y="-540" rx="0" ry="0" width="1080" height="1080"/>
</g>
    <g transform="matrix(17.42 0 0 17.42 540.02 540.02)">
<g style="">
		<g transform="matrix(1 0 0 1 3.87 0)">
<path
    style="stroke: none; stroke-width: 1; stroke-dasharray: none; stroke-linecap: butt; stroke-dashoffset: 0; stroke-linejoin: miter; stroke-miterlimit: 4; fill: rgb(226,229,231); fill-rule: nonzero; opacity: 1;"
    vector-effect="non-scaling-stroke" transform=" translate(-34.88, -31)"
    d="M 15.5 0 C 13.3687 0 11.625 1.74375 11.625 3.875 L 11.625 58.125 C 11.625 60.2562 13.3687 62 15.5 62 L 54.25 62 C 56.3812 62 58.125 60.2562 58.125 58.125 L 58.125 15.5 L 42.625 0 L 15.5 0 Z"
    stroke-linecap="round"/>
</g>
    <g transform="matrix(1 0 0 1 19.38 -23.25)">
<path
    style="stroke: none; stroke-width: 1; stroke-dasharray: none; stroke-linecap: butt; stroke-dashoffset: 0; stroke-linejoin: miter; stroke-miterlimit: 4; fill: rgb(176,183,189); fill-rule: nonzero; opacity: 1;"
    vector-effect="non-scaling-stroke" transform=" translate(-50.38, -7.75)"
    d="M 46.5 15.5 L 58.125 15.5 L 42.625 0 L 42.625 11.625 C 42.625 13.7563 44.3687 15.5 46.5 15.5 Z"
    stroke-linecap="round"/>
</g>
    <g transform="matrix(1 0 0 1 21.31 -9.69)">
<path
    style="stroke: none; stroke-width: 1; stroke-dasharray: none; stroke-linecap: butt; stroke-dashoffset: 0; stroke-linejoin: miter; stroke-miterlimit: 4; fill: rgb(202,209,216); fill-rule: nonzero; opacity: 1;"
    vector-effect="non-scaling-stroke" transform=" translate(-52.31, -21.31)"
    d="M 58.125 27.125 L 46.5 15.5 L 58.125 15.5 L 58.125 27.125 Z" stroke-linecap="round"/>
</g>
    <g transform="matrix(1 0 0 1 -3.88 9.69)">
<path
    style="stroke: none; stroke-width: 1; stroke-dasharray: none; stroke-linecap: butt; stroke-dashoffset: 0; stroke-linejoin: miter; stroke-miterlimit: 4; fill: rgb(80,190,232); fill-rule: nonzero; opacity: 1;"
    vector-effect="non-scaling-stroke" transform=" translate(-27.13, -40.69)"
    d="M 50.375 50.375 C 50.375 51.4406 49.5031 52.3125 48.4375 52.3125 L 5.8125 52.3125 C 4.74687 52.3125 3.875 51.4406 3.875 50.375 L 3.875 31 C 3.875 29.9344 4.74687 29.0625 5.8125 29.0625 L 48.4375 29.0625 C 49.5031 29.0625 50.375 29.9344 50.375 31 L 50.375 50.375 Z"
    stroke-linecap="round"/>
</g>
</g>
</g>
    <g transform="matrix(1.48 0 0 1.48 463.92 718.94)" style="" id="6e398a3d-ca68-426b-a331-bfcc4751af10">
		<text xml:space="preserve" font-family="Calibri" font-size="270" font-style="normal" font-weight="900"
              style="stroke: none; stroke-width: 1; stroke-dasharray: none; stroke-linecap: butt; stroke-dashoffset: 0; stroke-linejoin: miter; stroke-miterlimit: 4; fill: rgb(255,255,255); fill-rule: nonzero; opacity: 1; white-space: pre;">
            <tspan x="-210" y="77.83" >HSE</tspan></text>
</g>
</svg>
